<svg id="Layer_1" data-name="Layer 1" xmlns="http://www.w3.org/2000/svg" viewBox="0 0 1072.574 1072.574">
  <defs>
    <style>
      .cls-1 {
        fill: #0c293b;
      }

      .cls-1, .cls-2 {
        stroke: #1cfce5;
        stroke-miterlimit: 10;
      }

      .cls-2 {
        fill: #0d4e54;
      }

      .cls-3 {
        font-size: 30px;
        fill: #fff;
        font-family: MyriadPro-Regular, Myriad Pro;
      }
    </style>
  </defs>
  <path class="cls-1" d="M72.457,482.053v31.472a2.289,2.289,0,0,0,.339.355.807.807,0,0,0,.426.166c10.634.008,21.269.007,32.235.007v-33h82V645.96H220.5V630.167H375.243v50c-2.222-.488-3.84.744-5.614,1.28-7.53,2.279-14.84,5.217-22.294,7.741-4.5,1.525-9.157,2.71-13.5,4.8a17.74,17.74,0,0,1-9.64,2.108,45.585,45.585,0,0,0-6-.028c-1.922.048-3.884-.246-5.933.3v7.755H295.586v132.4c1.844,3.6,5.482,5.327,8.1,8.112,2.7,2.876,4.6,6.607,8.441,8.213H418.548V820.284h98.758v98.5c-.291.137-.43.26-.57.26q-15.747.014-31.5.014a.9.9,0,0,0-.432.153c-.139.086-.247.22-.175.153v65.589h66.625V918.981H518.681V852.933H584.6V794.884h7.759V778h-7.978V704.28H567.328v24.773c-2.811,0-5.453-.037-8.093.011a66.881,66.881,0,0,0-7.959.162v7.729H377.793a3.6,3.6,0,0,1-.323-.972c-.015-11.5.114-23-.048-34.494-.163-11.529.089-23.041-.733-34.6-.779-10.951-1.036-22.081.769-33.063.206-1.254-.458-2.627.317-3.595h32.717V703.85h58.041V555.956h8.051V546.9h8.054v-7.88h16.61V521.96h-32.9V406.92H369.478c-.09-8.4.085-16.646-.092-24.687H352.561v57.879h16.768V513.83H220.336V482.053c-2.81,0-5.45.036-8.089-.01a71.393,71.393,0,0,1-7.79-.133V382.053h48.535a2.506,2.506,0,0,1,.305.349.9.9,0,0,1,.154.432c.007,10.637.006,21.275.006,32.087H270.35v50h48.9V333.168h-81.6V348.96h15.676l16.994,16.994v47.984H254.648V381.7c-1.317-1.124-2.693-.621-3.936-.621q-75.481-.048-150.962.036c-1.391,0-3.294-1.252-4.293.936h-14c-.014-1.379-1.071-.982-1.792-.985-6.5-.025-13-.015-19.5-.015H55.6V365.406l16.351-16.35H187.294V333.175h-15.7V300.119H385.35V258.235H353c-.763-4.347-1.035-101.33-.336-115.226H551.493a3.432,3.432,0,0,0-.29-.7.671.671,0,0,0-.389-.248c-21.652-.011-43.3-.011-65.156-.011v-81.9h11.633V71.808h29.06V60.268h45.058v11.6h29c.133-3.688,0-7.607.074-11.659h32.872V71.927h29.06V60.15h13.883v9.568c2.337.8,4.684-.026,7.059.513v72.746h98.992v15.057H683.622c.643.538-.414.2.024.7.106.12.244.3.368.3,32.66.014,65.32.013,98.212.013v66.1H747.618c-.568,1.855.511,1.913,1.667,2.086v61.8c-.172.493-2.7-.586-1.562,1.8H864.4V258.242H963.13c-.088-.08.055.013.148.143a.794.794,0,0,1,.172.424c.008,10.641.007,21.283.007,32.1h32.767v33.059H963.662v33.058h65.8v49.027H864.647c-.707,15.541-.423,112.749.327,117h65.483v15.83c16.089.654,61.727.4,66-.343V523.053h17V538.91a71.393,71.393,0,0,0,7.79.133c2.639.046,5.28.01,8.062.01v49.9H996.526v16.055H955.552v32.875h69.659V670.94h-11.668v33.051H922.5V736.96H864.621V704.3H831.6v82.667h32.739v131.89H732.487V886.23H666.766c.069-.075-.063.035-.148.173a.88.88,0,0,0-.154.432q-.011,65.452-.007,131.061H451.6V886.2H352.553v32.733H202.511v-9.853h-20.88V880.2H169.6V862.407l34.73-34.731V787.515c1.983-1.009,4.042.02,5.853-.668,1.041-1.915-.791-1.6-1.722-2.229v-47.4H72.705V704.168H96.371v-7h49.894v6.119a5.032,5.032,0,0,0,.519.579.786.786,0,0,0,.421.178c31.306.007,62.612.007,94.085.007V785.02c-.177.514-2.712-.564-1.566,1.818h5.622V696.243H129.552c-.181-2.905-.07-5.672-.09-8.428-.02-2.811,0-5.622,0-8.6H113.586v16.695H39.672v-49.8h98.593V547.07H39.457V482.053Zm528.176,64.971v91.055h82.621V754.137h-32.91V778.2h-8.9c.044,5.742-.052,11.307.071,17.046h9v24.591h99.057V638.3h31.885c0,43.913,0,87.578.015,131.243,0,.119.2.262.335.352.555.37.145-.677.7,1.041V679.224l1.826-.384V663.612c-.31-1.015-1.335-.151-1.88-1.275,0-7.578,0-15.553.008-23.529a.8.8,0,0,1,.172-.423c.093-.13.237-.223.147-.143h98.729v16.592h15.914V604.368c-1.752-1.7-3.553-3.683-5.593-5.374s-2.861-4.621-5.019-5.793c-2.3-1.248-3.742-3.153-5.446-4.84-1.82-1.8-4.255-3.163-5-5.9-2.629-.874-4.044-3.214-5.935-4.966-1.935-1.8-3.749-3.72-5.57-5.543H831.657V389.978h82.572v-65.77H815.472v65.214c-.573,1.021-1.986.129-2,1.382-.265,1.674,1.492.881,1.989,1.811,0,23.357.087,46.847-.1,70.335-.026,3.313,1.682,6.3,1.1,9.587,2,3.842,2.089,8.186,2.838,12.286.766,4.19,2.428,8.271,2.162,12.642,2.225,1.444.326,3.94,1.573,5.879,1.209,1.878.243,4.5.444,6.791.113,1.277-.427,2.628.426,4.007h6.321V564.2h-6.6c-.526,2.707.317,5.367-.429,7.659H749.4V489.275H699.338v57.749ZM501.445,291.053h98.319l33.9,33.9v31.972h82.892V291.109c1.5-.008,2.284-.316,1.391-2.64.034.1-1.017,1.031-1.39.09V227.493c.53-.791,1.91.021,1.894-1.276.25-1.673-1.607-.728-2.135-2.072V192.053c-2.978,0-5.786-.012-8.594,0-2.764.016-5.537-.074-8.45.073V200.1h-7.89v8.954h-5.321q-123.965,0-247.929.006c-2.232,0-4.546-.333-6.663,1.452.485,1.546-1.118,2-1.944,2.932-1.21,1.372-2.553,2.629-3.87,3.9a26.859,26.859,0,0,1-4,3.646c-1.537.97-1.617,2.982-2.957,3.406v149.5h82.746ZM567.457,599.2V569.974c-1.2-2.407-2.233-4.476-3.139-6.29.784-2.195,1.6-3.9,3.137-5.108V528.3c-.751-2.5-2.193-3.8-3.33-5.492l3.514-7.057V489.16h32.884v41.761h50.05v-58H782.435V392.7c.561-1.046,1.983-.132,2.01-1.373.277-1.68-1.459-.922-2.081-1.993V374.29H765.306v7.6c-2.7.544-5.366-.329-8.042.573v7.648H600.384v57.808H567.335V340.907h-7.878c0-2.982.014-5.792,0-8.6-.018-2.76.081-5.53-.061-8.062H542.4v16.895h-7.8v98.648l2.022.7v32.584h5.64v33.057h-5.9V638.169H517.705v33.05H633.47v16.875h16.874c.368,5.516-.248,10.724.544,15.868.678-4.385.747-27.736.267-33.711-.139-.066-.279-.19-.418-.19q-41.244-.012-82.487-.014a.867.867,0,0,1-.435-.147,2.343,2.343,0,0,1-.358-.347V611.976l-3.234-6.483C565.337,603.323,566.326,601.4,567.457,599.2ZM773.626,853.134v24.919c11.13,0,22.092,0,33.053-.006a.889.889,0,0,0,.431-.156c.139-.085.25-.214.179-.15V853.134Z"/>
  <path class="cls-2" d="M930.457,523.053H864.974c-.75-4.251-1.034-101.459-.327-117h164.81v66.928c-2.549.166-5.153.044-7.744.067-2.643.023-5.286,0-8.256,0v50h-17V472.9H980.3V440.272H881.581v48.874h16.988v8.038h16.039v8.869c2.809,0,5.449-.038,8.088.011a66.181,66.181,0,0,1,7.761.142Z"/>
  <path class="cls-2" d="M204.457,382.053v83h-17v16h-82V465.2a70.008,70.008,0,0,1,7.782-.136c2.639-.046,5.28-.01,8.089-.01v-16.9h8.052V432.1h8.978V415.229h-41.2a4.635,4.635,0,0,1-.536-.522.824.824,0,0,1-.159-.429c-.007-10.637-.007-21.273-.007-32.225Z"/>
  <path class="cls-2" d="M72.457,482.053h-33v-99.9h40.82v32.662c-2.313.662-4.964-.082-7.82.411Z"/>
  <path class="cls-1" d="M95.457,415.053c-.077.989.613,1,1.291,1,2.472,0,4.943,0,7.559,0v96.635c.039-.041-.057.1-.188.193a.812.812,0,0,1-.427.165c-9.967.008-19.934.007-30.067.007v-97c2.264,0,4.4,0,6.542,0,.678,0,1.368-.009,1.29-1Z"/>
  <path class="cls-1" d="M996.373,705.216v31.672H931.557V705.245h23.869v6.629h16.786c.77-1.958-.17-4.308.461-6.658Z"/>
  <path class="cls-1" d="M201.368,909.882v9.011H169.78c.055.061-.076-.049-.161-.188a.888.888,0,0,1-.155-.431c-.007-12.29-.007-24.58-.007-37.045h10.668c-.064-.062.077.037.167.17a.83.83,0,0,1,.159.429c.007,9.3.006,18.589.006,28.054Z"/>
  <path class="cls-1" d="M873.371,217.2V232.89h-8.78v-7.7H807.7V217.2Z"/>
  <path class="cls-1" d="M996.284,273.973H964.631V258.389c-.061.064.037-.077.17-.168a.826.826,0,0,1,.428-.161c10.294-.007,20.588-.007,31.055-.007Z"/>
  <path class="cls-1" d="M996.372,275.217v14.672H964.618c-.387-2.213-.1-4.668-.149-7.093-.052-2.472-.012-4.946-.012-7.579Z"/>
  <path class="cls-1" d="M1029.37,590.216V604.89H997.617c-.383-2.216-.1-4.671-.148-7.1-.051-2.471-.012-4.945-.012-7.576Z"/>
  <path class="cls-1" d="M105.541,430.887V416.22h31.753c.4,2.207.1,4.66.152,7.083.053,2.472.011,4.947.011,7.584Z"/>
  <path class="cls-1" d="M105.538,463.883v-31.66h14.6c-.06-.064.075.044.161.182a.87.87,0,0,1,.152.432c.007,10.292.006,20.585.006,31.046Z"/>
  <path class="cls-1" d="M95.457,415.053h-14v-33h14Z"/>
  <path class="cls-1" d="M47.611,572.149H55.3v49.79c-2.388.264-4.966.04-7.693.138Z"/>
  <path class="cls-1" d="M525.371,60.221V70.885h-26.71c-.535-1.509-.1-3.323-.185-5.076-.084-1.8-.019-3.616-.019-5.588Z"/>
  <path class="cls-1" d="M599.366,60.212V70.9H572.6c-.044-1.58-.113-3.346-.137-5.113-.025-1.8-.006-3.61-.006-5.57Z"/>
  <path class="cls-1" d="M634.548,70.894V60.213h26.766c.045,1.577.114,3.343.138,5.109.025,1.806,0,3.612,0,5.572Z"/>
  <path class="cls-1" d="M930.305,736.956H923.61V705.3h6.695Z"/>
  <path class="cls-1" d="M114.541,695.887V680.219h13.791a70.449,70.449,0,0,1,.115,7.595c.047,2.636.01,5.274.01,8.073Z"/>
  <path class="cls-1" d="M128.375,432.221v14.665h-6.668V432.221Z"/>
  <path class="cls-1" d="M971.207,710.9H956.552v-5.669h14.655Z"/>
  <path class="cls-1" d="M683.377,60.223v8.661H677.5c-.111-2.7,0-5.595-.059-8.661Z"/>
  <path class="cls-1" d="M244.287,728.958h-1.659v-15.81h1.659Z"/>
  <path class="cls-1" d="M773.626,853.134h33.663v24.607c.071-.064-.04.065-.179.15a.889.889,0,0,1-.431.156c-10.961.007-21.923.006-33.053.006Zm.922,14.759h31.909c0-2.46.044-4.767-.012-7.071-.054-2.262.247-4.556-.173-6.609H774.548Zm0,9h31.931c-.1-2.728.126-5.3-.136-7.686h-31.8Z"/>
  <path class="cls-1" d="M328.291,736.969H296.623v-31.6c-.067.06.044-.07.182-.156a.9.9,0,0,1,.432-.154c10.3-.007,20.593-.007,31.054-.007Z"/>
  <path class="cls-1" d="M203.3,513.959H188.613V466.208a52.248,52.248,0,0,1,7.122-.144c2.471-.049,4.944-.011,7.567-.011Z"/>
  <path class="cls-1" d="M468.551,537.877V523.229h31.734c.425,2.184.1,4.634.16,7.048.057,2.475.012,4.952.012,7.6Z"/>
  <path class="cls-1" d="M219.376,490.222v23.663h-14.6c.06.065-.073-.044-.159-.182a.885.885,0,0,1-.153-.432c-.007-7.627-.007-15.254-.007-23.049Z"/>
  <path class="cls-1" d="M368.377,383.226v23.655H353.51c-.122-7.706-.008-15.594-.067-23.655Z"/>
  <path class="cls-1" d="M568.544,720.878v-15.65H583.4c.153,2.372.033,4.972.055,7.559.024,2.639,0,5.279,0,8.091Z"/>
  <path class="cls-1" d="M475.285,554.963H468.63V539.254c2-.5,4.261.02,6.655-.311Z"/>
  <path class="cls-1" d="M313.543,703.888v-6.67h14.718c.473,2.022,0,4.277.293,6.67Z"/>
  <path class="cls-1" d="M567.372,730.218v6.67H552.654c-.463-2.023-.047-4.274-.253-6.67Z"/>
  <path class="cls-1" d="M219.364,483.21V488.9H204.71V483.21Z"/>
  <path class="cls-1" d="M476.539,545.884v-6.662H483.2v6.662Z"/>
  <path class="cls-1" d="M896.374,638.225v15.656H882.516c-.149-2.379-.031-4.981-.054-7.571-.022-2.639,0-5.277,0-8.085Z"/>
  <path class="cls-1" d="M700.624,193.137h14.667V208.9c-2.213.378-4.666.1-7.092.146-2.47.05-4.942.011-7.575.011Z"/>
  <path class="cls-1" d="M699.457,201.237V208.8c-2.174.552-4.428.033-6.824.358v-7.919A26.809,26.809,0,0,1,699.457,201.237Z"/>
  <path class="cls-1" d="M634.613,671.053h15.772c.167,2.545.044,5.144.067,7.731.024,2.639,0,5.279,0,8.093H634.643A149.051,149.051,0,0,1,634.613,671.053Z"/>
  <path class="cls-1" d="M543.54,340.882V325.225H558.4c.148,2.38.031,4.983.054,7.573.022,2.639,0,5.277,0,8.084Z"/>
  <path class="cls-1" d="M781.37,375.228v14.65H766.623c-.405-2.191-.1-4.641-.153-7.058-.055-2.472-.013-4.946-.013-7.592Z"/>
  <path class="cls-1" d="M765.3,389.965H758.62V383.3H765.3Z"/>
  <path class="cls-1" d="M882.542,472.888V441.219h96.565c-.061-.056.082.039.174.169a.8.8,0,0,1,.169.425c.008,10.3.007,20.607.007,31.075Z"/>
  <path class="cls-1" d="M930.294,504.966H915.621V474.213c2.216-.384,4.67-.1,7.1-.149,2.471-.05,4.945-.011,7.576-.011Z"/>
  <path class="cls-1" d="M914.363,474.209V487.9h-31.9c0-2.089-.008-4.356-.01-6.624,0-2.3,0-4.609,0-7.064Z"/>
  <path class="cls-1" d="M899.55,495.9v-6.684h14.655V495.9Z"/>
  <path class="cls-1" d="M774.548,867.893v-13.68h31.724c.42,2.053.119,4.347.173,6.609.056,2.3.012,4.611.012,7.071Z"/>
  <path class="cls-1" d="M774.55,876.9V869.21h31.8c.262,2.381.038,4.958.136,7.686Z"/>
  <text class="cls-3" transform="translate(152.754 430.887)">B</text>
  <text class="cls-3" transform="translate(873.37 516.922)">A</text>
</svg>
