<svg id="Layer_1" data-name="Layer 1" xmlns="http://www.w3.org/2000/svg" viewBox="0 0 868.006 927.039">
  <defs>
    <style>
      .cls-1 {
        fill: #0c293b;
      }

      .cls-1, .cls-2 {
        stroke: #1cfce5;
        stroke-miterlimit: 10;
      }

      .cls-2 {
        fill: #0d4e54;
      }

      .cls-3 {
        font-size: 30px;
        fill: #fff;
        font-family: MyriadPro-Regular, Myriad Pro;
      }
    </style>
  </defs>
  <path class="cls-1" d="M272.31,819.7H236.842a2.319,2.319,0,0,1-.356-.335.8.8,0,0,1-.169-.425q-.011-116.39-.007-233.1h-103V529.7h27c0-9.634,0-18.935-.007-28.236a.813.813,0,0,0-.166-.426,2.321,2.321,0,0,0-.354-.338H133.31V446.762h11.8v-5.039h-5.623V333.7H159.31v15.173h7.178V356.6h7.822V333.7h69v-6q.039-1.038-1-1h-181c0-8.769,0-17.238,0-25.708,0-.678.008-1.37,1-1.292H215.551c-.636-1.5.4-2.815-.868-4.148H184.547V197.553h30.669V194.7H181.31v-28h61.746V159.82H230.811c-.928-1.363-.47-2.726-.474-3.991q-.061-23.747,0-47.493c0-1.552-.808-3.459,2.068-4.623h178.73V1.235C415.508.481,522.2.207,536.171.893V103.462h6.873c.358-.358.712-.711,1.241-1.241V90.87h41.879v11.7H689.21v85.039H834.729l1.581,1.582v19.5h-15c0,4.117,0,7.915,0,11.713,0,.679.014,1.364,1,1.287.007,1.336,1.024.983,1.744.988,4.086.025,8.171.012,12.256.012v5h-91v-5.131H655.4c-.039-1.4-.3-2.242-1.806-1.715-.863,1.424.3,3.2-.714,4.846-2.356,0-4.828-.038-7.3.011a50.9,50.9,0,0,0-7.272.17V228.7h-15c-.132-.949.311-1.969-.463-3.025H607.3c-2.045-3.947-.7-8.134-.935-12.127-.245-4.149-.055-8.324-.055-12.488V188.834h46.728c.248.718.449,1.3.652,1.885.563-.1,1.109.2,1.455-.369.615-14.291.387-47.506-.326-51.488H585.31v64.55q0,5,0,9.993c0,.678-.009,1.369-1,1.291h-13c0,2.8-.041,5.278.012,7.75.051,2.423-.243,4.876.181,7.25H585.31c.17,1.659,1.47.964,2.266.969,9.578.048,19.156.031,28.734.031v13.056h20.556l1.493,1.493V251.7h8.951c5.523,6.4,9.636,13.839,15,20.615,0,13.4.005,27-.014,40.6,0,.721.384,1.77-.986,1.783-.119-.6.311-1.321-.317-1.808a14.676,14.676,0,0,0-6.45-3.174c-.66-.115-1.3.052-1.233.982-2.515.626-1.952,3.6-4.007,5.063V277.792H647.31v42.9h-4.9v6.036h32.946v14.822h7.6c.39-.39.86-.861,1.5-1.5V319.7c2.134,0,4.107.016,6.08,0,1.935-.02,3.87-.078,5.778-.118V313.7h125c.007,1.339,1.027.983,1.747.988,4.418.025,8.836.012,13.253.012v47h-29v29H784.833a2.444,2.444,0,0,0-.354.342.828.828,0,0,0-.162.428c-.007,10.966-.007,21.932-.007,33.064h82.415c.825,4.2,1.037,25.553.438,41.986h-44.65c-.471-2.012-.126-4.3-.189-6.553-.064-2.308-.014-4.62-.014-7.1H801.321c0,2.077-.009,4.346-.01,6.614,0,2.306,0,4.612,0,7.217h-138.9v8h9.9v14h14v82H672.57c-.683,2.511.278,4.861-.653,7.177h-6.511V585.7h20.9v76h-83V628.905h-5c0,10.477-.006,20.744.014,31.011,0,.721-.381,1.768.986,1.78V703.51a49.226,49.226,0,0,0,7.274.175c2.474.05,4.949.011,7.572.011V774.35l-1.455,1.455H555.358V793.7c-7.115,0-14.155-.714-20.99.166-10.553,1.358-21.07.576-31.6.787-10.658.214-21.324.047-31.986.047H407.31c-.732-1.846-1.909-.886-3-.578V795.7H397.8a2.47,2.47,0,0,0-.337.356.87.87,0,0,0-.149.434c-.006,32.3-.006,64.592-.006,96.71l-1.409,1.409H359.52v6.083l-21.649,25.826H299.642c.079.072-.064-.023-.156-.153a.8.8,0,0,1-.169-.426c-.007-35.3-.007-70.595-.007-106.239h-25a2.533,2.533,0,0,0-.674-2.223c-2.186-2.025-4.263-4.167-6.326-6.206V802.7a.847.847,0,0,0,1-1,.847.847,0,0,0,1-1,.847.847,0,0,0,1-1,.847.847,0,0,0,1-1,.847.847,0,0,0,1-1h11q-.037,1.038,1,1-.037,1.038,1,1-.037,1.038,1,1-.037,1.038,1,1-.037,1.038,1,1v11a.848.848,0,0,0-1,1,.848.848,0,0,0-1,1,.848.848,0,0,0-1,1q-1.038-.038-1,1a.7.7,0,0,0-.888.594c-.018.078.217.312.294.295a.7.7,0,0,0,.594-.889q1.041.036,1-1a.847.847,0,0,0,1-1,.847.847,0,0,0,1-1,.847.847,0,0,0,1-1c1.009.05,1.211-1,2.017-1.43-.08-3.173.081-6.388-.092-9.57H288.31q.039-1.038-1-1,.039-1.038-1-1,.039-1.038-1-1,.039-1.038-1-1,.039-1.038-1-1c-.127-.613.311-1.331-.335-1.845-3.446,0-6.883,0-10.32.014-.121,0-.242.21-.345.306V797.7a.848.848,0,0,0-1,1,.848.848,0,0,0-1,1,.848.848,0,0,0-1,1,.848.848,0,0,0-1,1,.848.848,0,0,0-1,1c-.607.121-1.311-.3-1.914.421V812.2C267.574,814.841,270.5,816.744,272.31,819.7Zm-66-594a.848.848,0,0,0-1,1h-1.5c-1.078,1.35-1.118,3.274-2.5,4.5q0,17.679,0,35.426c0,1.465-.314,3.045,1.535,3.965h12.126a12.771,12.771,0,0,0,1.391-5.566c-.115-10.158-.039-20.317-.076-30.475,0-.933.444-1.991-.437-2.841-1.07.939-.506,2.157-.512,3.213q-.072,13.738-.016,27.478c.007,2.252.154,4.5-1.394,6.094H203.31V239.857c0-2.665-.154-5.342.056-7.99.133-1.68,1.81-2.888,1.943-4.671.012-.166,0-.333,0-.5a.847.847,0,0,0,1-1,.847.847,0,0,0,1-1,.847.847,0,0,0,1-1h2q-.038,1.038,1,1c1.046,1.3.9,3.489,2.837,3.456.341,1.188-.293,2.079.759,2.467.668-.691.584-1.327-.6-1.923-.045-3.344-.227-3.586-3-4q.039-1.038-1-1c-.121-.608.3-1.315-.328-1.836-1.946-.649-1.653.736-1.672,1.836a.848.848,0,0,0-1,1A.848.848,0,0,0,206.31,225.7Zm77,96c-.887-.065-1,.514-1,1.195q0,1.9,0,3.805h-9.5l-1.367,1.368v5.749H299.31c0,23.341,0,46.331-.013,69.322,0,.123-.193.247-.3.371-12.868.637-71.561.391-75.867-.347V382.8H181.26v58.975h-7.721v5.053H244.31v6.587c0,2.333-.012,4.665,0,7,.014,2.1.06,4.207.089,6.111h40.933V446.894h73.045v25.239c1.22,1.606,2.391,2.262,3.929,1.074V393.7h21.028v12.795H397.4V393.98c2.019-.761,4.081.293,5.889-.687-.074-1.187.328-2.348-.306-3.476-2.525-.468-5.182.333-7.861-.494v-5.509H380.57c-.739,1.956.277,4.014-.58,5.735h-4.68c0-2.281.013-4.422,0-6.562-.016-2.105-.062-4.21-.094-6.291h-11.9c-.991.078-1-.614-1-1.293,0-13.8,0-27.608,0-41.764h33.87v-63.8c-.59-.057-1.06-.114-1.531-.145a1.274,1.274,0,0,0-1.322.5v13.956c-4.966,5.292-11.034,9.388-15.855,14.836-2.418,2.734-5.08,5.251-7.26,7.485h-51.02V258.947H312.31V275.7H279.544V228.563H299.21v-1.692H278.551v50.976h12.612c.1.951.187,1.738.307,2.849h20.84v15.947c-7.221.218-14.131-.2-21,.242V317.7c-1.117,0-2.242-.08-3.351.016C285.313,317.943,284.027,319.086,283.31,321.7Zm193-239c-.125-.612.308-1.327-.21-1.744h-6.79V82.7h-1.516c-.252,1.361-1.66,2.275-1.438,4.219,1.129.788.643,2.6,1.209,3.606,2.836,2.631,5.757,2.349,8.745,1.989V90.7h1.469a7.939,7.939,0,0,0,1.393-6.633C478.425,83.172,477.653,82.335,476.31,82.7Zm-137,663v1.472c3.262,2.464,7.027,1.214,10.494,1.563,1.031-1.336,3.249-1.037,3.506-3.035,2.257-.671,2.725-2.931,4.008-4.645,1.188-9.187-5.176-15.551-14.363-14.362-1.713,1.282-3.973,1.751-4.645,4.007-2,.258-1.7,2.476-3.035,3.506.349,3.467-.9,7.233,1.564,10.494h1.471Q338.273,745.734,339.31,745.7Zm74-266c-.612.126-1.327-.307-1.744.211V486.7h1.744v1.484c5.476,2.572,6.874,2.117,9.924-3.122V480.2c-2.291-2.818-5.038-4.086-8.094-3.479C413.629,477.48,413.111,478.416,413.31,479.7Zm-79-341H306.286v20.873H272.938l-1.471,1.471v5.435c2.343.664,4.705-.343,7.026.633v39.627h33.881v29.827h7.056v-13.71h74.044c0,4.938,0,9.723.015,14.508,0,.112.225.224.346.338.773-.179,1.658.352,2.522-.55v-8.526h15.051V162.579h54.914c-.142-1.133.291-1.982-.48-2.883q-65.223,0-130.744-.006a.874.874,0,0,1-.434-.15,2.422,2.422,0,0,1-.354-.33V139.7q38.729,0,77.458-.013c.122,0,.261-.188.363-.313.42-.517-.636-.159,1.081-.674Zm195,462c.606-1.937,2.209-.946,3.283-.949q38.147-.1,76.3-.051h4.422v-18.31c0-11.8-.014-23.6.032-35.4,0-.8-.7-2.108.968-2.285h13c0-2.636.046-4.944-.013-7.249-.058-2.256.262-4.548-.217-6.751H614.31c-1.378-.014-.983-1.071-.985-1.792-.024-7.5-.015-15-.015-22.492V474.829h22.367l1.48-1.48V466.7c-1.79,0-3.432.046-5.071-.013-1.6-.058-3.253.309-4.6-.2V403.793h35.87v20.79H749.1V390.6H684.375V370.345l-1.36-1.461h-7.754v14.88H592.44v14.044h12.718v54.64H550.14V431.791H516.31V599.7c-.966-.075-1,.591-1,1.27,0,3.777,0,7.553,0,11.23l1.375,1.375H529.31Zm-25-203c7.822,0,15.646.138,23.464-.039,7.686-.175,15.347.305,23.077-.769,6.649-.925,13.529-.192,20.459-.192,0-2.481.046-4.625-.013-6.766-.056-2.085.277-4.211-.29-6.421H557.442c-.628-19.216-.392-52.508.424-56.967h61.189V319.7H612.31q0-20.729-.013-41.458c0-.122-.188-.261-.313-.362-.517-.42-.159.635-.674-1.081v42.9H599.291V264.663H544.273V139.9h-8.038v19.9H495.346c.061,1.136-.306,1.966.411,2.9h13.382v40.01H453.106l-13.744,13.743v11.532l14.931,14.935h25.878v49.908h-34.7V333.7c9.462,0,18.767,0,28.072.007a.821.821,0,0,1,.428.163,2.331,2.331,0,0,1,.341.353V389.7h-40.6c-2.8,1.062-2.552,2.367-2.116,4H474.31v4h14v69H461.1a34.7,34.7,0,0,0-8.788.75h37V397.7h2v14c2.469,0,4.61.04,6.749-.011,2.092-.05,4.218.251,6.251-.226Zm-51,215h13.017V598.662H489.18c.723-23.263.43-93.441-.4-97.966q-17.982,0-35.964.014c-.119,0-.262.2-.352.337-.368.556.679.144-1,.692h36.716c.727,24.033.432,91.46-.407,95.957H452.31V543.169c-2.337-2.328-4.786-4.6-7.03-7.053-2.186-2.392-5.165-4.108-6.451-7.513H425.19V515.857H410.31c0,2.3.041,4.444-.011,6.586-.051,2.092.26,4.221-.188,6.069H362.269V494.919a6.386,6.386,0,0,0-4.053.165v27.381H306.174V494.7c-9.143,0-18.114,0-27.086.007a.893.893,0,0,0-.431.156c-.139.084-.252.213-.187.156V682.356l1.235,1.235h96.669v-6.769h76.039v26.734h111.66v-56H452.31c0-11.3,0-22.435,0-33.571C452.312,613.31,452.32,612.618,453.31,612.7Z"/>
  <path class="cls-2" d="M181.31,166.7v28c-1.327,1.5-1,3.323-1,5.074q-.009,38.917,0,77.835v5.216H167.174V295.7H62.31c.524-2.953-1.393-5.561-1.074-8.565a89.9,89.9,0,0,0,.074-9.463V253.7a.764.764,0,0,0,.983-.79q.032-22.211,0-44.42a.764.764,0,0,0-.983-.79V167.164c1.143-.929,2.516-.438,3.767-.441q31.971-.057,63.944.025c1.076,0,2.68-.989,3.289.948v13c2.637,0,4.945.046,7.25-.013,2.256-.058,4.548.263,6.75-.218V166.7Zm-67,79v12c2.638,0,4.946.046,7.252-.013,2.255-.058,4.546.264,6.748-.218V243.7c.32-1.3-.484-2.05-1.318-2.841-.9-.851-2.084-1.6-1.682-3.159v-7.805h-14c0,3.641,0,7.087,0,10.534,0,.679.032,1.346,1,1.271.01.777-.121,1.527.619,2.178C113.483,244.36,114.352,244.718,114.31,245.7Z"/>
  <path class="cls-2" d="M821.31,313.7h-125v-84h125c0,2.611-.043,4.919.013,7.224.054,2.264-.247,4.561.205,6.776H835.31c1.666.174.965,1.48.968,2.277.047,11.274.032,22.548.032,33.823v18.9h-15ZM717.473,257.783V299.7c2.633,0,5.107.041,7.58-.011,2.425-.051,4.88.239,7.094-.151V257.783ZM773.39,278.85h13.621c.689.961-.228,2.157.57,2.69h13.493V267.57H787.628c-.825-1.292.327-2.783-.654-3.731H774.668l-1.278,1.278Z"/>
  <path class="cls-1" d="M61.31,253.7v15h-5v4h-6.6c-.446.815-1.456,1.019-1.4,2a.848.848,0,0,0-1,1,.848.848,0,0,0-1,1c-.692-.025-1.025.308-1.3,1.964-.091.779.293.489.269.451-.27-.44.6-1.535-.419-1.328-.806.163-.771,1.147.15.877.99-.938,1.324-1.272,1.3-1.964a.847.847,0,0,0,1-1,.847.847,0,0,0,1-1h8v6.487c-4.393.769-36.373,1-55.81.387V180.852H56.094c.481,1.865.146,3.99.2,6.074.059,2.141.013,4.285.013,6.77h5v14H55.477c-.593,14.931-.384,41.8.341,46Z"/>
  <path class="cls-1" d="M62.31,295.7H167.174V282.821H180.31v-5.216q0-38.918,0-77.835c0-1.751-.331-3.578,1-5.074h33.906v2.857H184.547v98h30.136c1.267,1.333.232,2.644.868,4.148H62.31v-1H214.222v-2H62.31ZM168.4,294.523H180.31c0-1.977.065-3.786-.018-5.588-.081-1.751.347-3.563-.182-5.065H168.4Z"/>
  <path class="cls-1" d="M822.31,389.7h-13v-26c2.467,0,4.609-.04,6.75.012,2.091.05,4.218-.257,6.25.23Z"/>
  <path class="cls-1" d="M835.31,363.7v26h-12v-26Z"/>
  <path class="cls-1" d="M62.31,296.7H214.222v2H62.31Z"/>
  <path class="cls-1" d="M835.31,243.7H821.528c-.452-2.215-.151-4.512-.205-6.776-.056-2.3-.013-4.613-.013-7.224h-76v-2h91c-.381.984.927,2.531-1,3h-13c0,2.3-.015,4.276.005,6.25.019,1.926.073,3.852.111,5.75H835.31Z"/>
  <path class="cls-1" d="M835.31,242.7H822.426c-.038-1.9-.092-3.824-.111-5.75-.02-1.974-.005-3.948-.005-6.25h13Z"/>
  <path class="cls-1" d="M133.31,500.7h26.473a2.321,2.321,0,0,1,.354.338.813.813,0,0,1,.166.426c.008,9.3.007,18.6.007,28.236h-27a.763.763,0,0,1-.982-.789q-.036-13.71,0-27.422A.763.763,0,0,1,133.31,500.7Zm1.171,1.084V528.7c8.136,0,16.1,0,24.066-.007a.815.815,0,0,0,.426-.166c.131-.092.226-.235.166-.169V501.78Z"/>
  <path class="cls-1" d="M835.31,363.7h-12v26h-1V363.938c-2.032-.487-4.159-.18-6.25-.23-2.141-.052-4.283-.012-6.75-.012v26l-2,1v-29h29C836.16,362.454,836.806,363.611,835.31,363.7Z"/>
  <path class="cls-1" d="M599.31,661.7c-1.367-.012-.984-1.059-.986-1.78-.02-10.267-.014-20.534-.014-31.011h5V661.7h-2q0-15.729-.013-31.458c0-.122-.188-.261-.313-.362-.518-.42-.159.635-.674-1.081v32.9Z"/>
  <path class="cls-1" d="M133.31,167.7h11v11c-2.135,0-3.945.062-5.748-.018-1.756-.077-3.569.335-5.252-.234Z"/>
  <path class="cls-1" d="M686.31,488.7h-14v-14c-.077-.985.609-1,1.287-1,4.131,0,8.262,0,12.713,0Zm-12.853-12.917v10.7H684.25c-.009-1,.322-1.807-.286-2.7H677.9L676.31,482.2a22.017,22.017,0,0,0-.039-3.416c-.178-1.13,2.247-1.545.612-3Zm10.853.079h-5.75V481.7c1.077,0,1.908.047,2.731-.012.95-.069,1.953.3,3.019-.417v-5.409Z"/>
  <path class="cls-1" d="M174.31,333.7v22.9h-7.822v-7.731H159.31V333.7a.764.764,0,0,1,.785-.982q6.715-.046,13.43,0A.763.763,0,0,1,174.31,333.7Zm-2.379,13.992c1.64-2.7,1.887-7.3.886-12.83H160.552v12.83Zm-4.536,6.843h5.662v-5.67H167.4Z"/>
  <path class="cls-1" d="M686.31,585.7h-20.9v-7.823h6.511c.931-2.316-.03-4.666.653-7.177h13.74ZM673.4,584.521H684.31c0-2.31.04-4.45-.011-6.588-.051-2.087.257-4.209-.188-6.062H673.4Zm-6.921-5.74v5.661h5.67v-5.661Z"/>
  <path class="cls-1" d="M821.31,313.7v-15h15a.761.761,0,0,1,.98.761c.035,4.239-.073,8.482.081,12.716.043,1.163-1.132,1.523-1.061,2.523-4.417,0-8.835.013-13.253-.012C822.337,314.679,821.317,315.035,821.31,313.7Zm13.832-1.082V299.7c-2.3,0-4.439,0-6.578,0-2.092,0-4.185.013-6.086.019v12.9Z"/>
  <path class="cls-1" d="M822.382,221.625c-1.056.148-1.069-.537-1.07-1.216,0-3.8,0-7.6,0-11.713h15a.763.763,0,0,1,.982.785q.049,6.214,0,12.43a.763.763,0,0,1-.982.785c-4.085,0-8.17.013-12.256-.012-.72,0-1.737.348-1.672-1.059,4.191-.07,8.455-.07,12.716-.07V209.8H822.455C822.455,213.832,822.455,217.764,822.382,221.625Z"/>
  <path class="cls-1" d="M133.31,167.7v10.748c1.683.569,3.5.157,5.252.234,1.8.08,3.613.018,5.748.018v-11c.086-1.5,1.242-.849,2-1v13.769c-2.2.481-4.494.16-6.75.218-2.305.059-4.613.013-7.25.013v-13Z"/>
  <path class="cls-1" d="M267.31,802.7v8.571c2.063,2.039,4.14,4.181,6.326,6.206a2.533,2.533,0,0,1,.674,2.223h-2c-1.806-2.952-4.736-4.855-6.914-7.5v-9.084C266,802.4,266.7,802.817,267.31,802.7Z"/>
  <path class="cls-1" d="M600.31,661.7v-32.9c.515,1.716.156.661.674,1.081.125.1.313.24.313.362q.021,15.729.013,31.458Z"/>
  <path class="cls-1" d="M48.31,274.7c-.054-.981.956-1.185,1.4-2h6.6v2Z"/>
  <path class="cls-1" d="M404.31,795.7v-1.578c1.091-.308,2.268-1.268,3,.578C406.841,796.623,405.294,795.315,404.31,795.7Z"/>
  <path class="cls-1" d="M242.31,326.7q1.038-.038,1,1Q242.272,327.735,242.31,326.7Z"/>
  <path class="cls-1" d="M363.31,377.7v-1h11.9c.032,2.081.078,4.186.094,6.291.016,2.14,0,4.281,0,6.562h4.68c.857-1.721-.159-3.779.58-5.735h14.549v5.509c2.679.827,5.336.026,7.861.494.634,1.128.232,2.289.306,3.476-1.808.98-3.87-.074-5.889.687v12.511H383.338V393.7H362.31c0-.941,0-1.883,0-2.824,0-.683.135-1.238,1-1.176h11c0-2.3.015-4.276,0-6.249-.019-1.927-.073-3.853-.112-5.751Zm21.083,27.833H395.31c0-1.97.019-3.774,0-5.578-.024-1.762-.093-3.523-.137-5.087H384.393Zm-2.91-20.754V390.7c2.139,0,4.109.016,6.078,0,1.926-.02,3.851-.075,5.577-.111v-5.806Z"/>
  <path class="cls-1" d="M453.31,600.7c-.144-1.063-1.489-1.726-1-3h35.466c.839-4.5,1.134-71.924.407-95.957H451.467c1.678-.548.631-.136,1-.692.09-.135.233-.336.352-.337q17.982-.022,35.964-.014c.828,4.525,1.121,74.7.4,97.966H466.327V612.7H453.31v-1h12c0-2.136.063-3.946-.018-5.748-.077-1.756.336-3.569-.235-5.252Z"/>
  <path class="cls-1" d="M312.31,275.7a3.437,3.437,0,0,1,0,5H291.47c-.12-1.111-.2-1.9-.307-2.849H278.551V226.871H299.21v1.692H279.544V275.7Zm-.153,2.827-.04-.827q-9.649,0-19.3.015c-.119,0-.26.2-.351.334-.372.553.675.143-.356.478Z"/>
  <path class="cls-1" d="M474.31,389.7v4H431.594c-.436-1.633-.68-2.938,2.116-4Z"/>
  <path class="cls-1" d="M205.31,226.7c0,.167.011.334,0,.5-.133,1.783-1.81,2.991-1.943,4.671-.21,2.648-.056,5.325-.056,7.99V268.5h10.618c1.548-1.592,1.4-3.842,1.394-6.094q-.043-13.74.016-27.478c.006-1.056-.558-2.274.512-3.213.881.85.433,1.908.437,2.841.037,10.158-.039,20.317.076,30.475a12.771,12.771,0,0,1-1.391,5.566H202.846c-1.849-.92-1.535-2.5-1.535-3.965q0-17.73,0-35.426c1.384-1.231,1.424-3.155,2.5-4.5Z"/>
  <path class="cls-1" d="M661.31,317.7c.944,1.16.944,1.16-.414,3-2.445,0-5.144.024-7.842-.022a.759.759,0,0,1-.744-.978c-.145-1.716-2.212-.584-2.586-1.91-.7.617-.3,1.308-.414,1.91-.085,1.5-1.242.85-2,1v-42.9H649.3v37.967c2.055-1.467,1.492-4.437,4.007-5.063.316,2.189-.814,3.873-1.943,5.56,1.6.088,2.4,1.624,3.741,2.6.185-2.346.251-2.555,1.2-4.164C656.607,318.992,657.522,319.542,661.31,317.7Z"/>
  <path class="cls-1" d="M488.31,397.7h1v69.75h-37a34.7,34.7,0,0,1,8.788-.75H488.31Z"/>
  <path class="cls-1" d="M334.31,139.7v-1h78.9c-1.717.515-.661.157-1.081.674-.1.125-.241.313-.363.313Q373.04,139.7,334.31,139.7Z"/>
  <path class="cls-1" d="M338.31,730.7c.672-2.256,2.932-2.725,4.645-4.007,9.187-1.189,15.551,5.175,14.363,14.362-1.283,1.714-1.751,3.974-4.008,4.645a6.864,6.864,0,0,1,.889-3.645c1.294-2.139,2.05-4.669.155-7.122-.311-.4-.044-1.252-.044-1.895l-.6.433c-1-1.319-1.992-2.637-2.847-3.771-.656,0-1.051.119-1.312-.018-2.751-1.451-5.512-1.483-8,.371C340.444,730.876,339.4,730.547,338.31,730.7Z"/>
  <path class="cls-1" d="M516.31,599.7q1.038-.038,1,1v11.1c3.891-.323,7.469.216,11-.31V600.7h1v12.875H516.685L515.31,612.2c0-3.677,0-7.453,0-11.23C515.312,600.287,515.344,599.621,516.31,599.7Z"/>
  <path class="cls-1" d="M616.31,230.7h1v12h30v1h-8.12c.323,2.559-.163,4.815.359,7h7.761v1h-8.951v-6.451l-1.493-1.493H616.31Z"/>
  <path class="cls-1" d="M584.31,227.7c1.5.085.85,1.242,1,2H571.5c-.424-2.374-.13-4.827-.181-7.25-.053-2.472-.012-4.946-.012-7.75h13v1h-12c0,2.3-.015,4.276.005,6.249.019,1.927.073,3.853.111,5.751Z"/>
  <path class="cls-1" d="M413.31,479.7c-.2-1.28.319-2.216,1.83-2.974,3.056-.607,5.8.661,8.094,3.479v4.857c-3.05,5.239-4.448,5.694-9.924,3.122V486.7c1.934-.178,3.489,1.831,5.781.7l2.219-2.2V481.19l-2.219-2.2C416.8,477.865,415.244,479.874,413.31,479.7Z"/>
  <path class="cls-1" d="M612.31,319.7h-1V276.8c.515,1.716.157.661.674,1.081.125.1.313.24.313.362Q612.318,298.968,612.31,319.7Z"/>
  <path class="cls-1" d="M491.31,397.7h1v13c2.136,0,3.946.063,5.749-.018,1.755-.078,3.569.337,5.251-.236V397.7h1v13.763c-2.033.477-4.159.176-6.251.226-2.139.051-4.28.011-6.749.011Z"/>
  <path class="cls-1" d="M614.31,530.7v-1h12.77c.479,2.2.159,4.5.217,6.751.059,2.3.013,4.613.013,7.249h-13v-1h12c0-2.3.015-4.276,0-6.249-.019-1.927-.073-3.853-.111-5.751Z"/>
  <path class="cls-1" d="M476.31,90.7V92.51c-2.988.36-5.909.642-8.745-1.989-.566-1.007-.08-2.818-1.209-3.606-.222-1.944,1.186-2.858,1.438-4.219h1.516c.178,1.934-1.829,3.493-.753,5.684L470.8,90.7Z"/>
  <path class="cls-1" d="M623.31,230.7v-2h15v2Z"/>
  <path class="cls-1" d="M338.31,744.7h-1.471c-2.465-3.261-1.215-7.027-1.564-10.494,1.336-1.03,1.037-3.248,3.035-3.506a11.049,11.049,0,0,1-.56,3.195c-1.85,4.268-1.751,4.347.283,8.962A7.32,7.32,0,0,1,338.31,744.7Z"/>
  <path class="cls-1" d="M353.31,745.7c-.257,2-2.475,1.7-3.506,3.035-3.467-.349-7.232.9-10.494-1.563V745.7a7.379,7.379,0,0,1,1.844.277c4.615,2.035,4.693,2.133,8.962.284A11.012,11.012,0,0,1,353.31,745.7Z"/>
  <path class="cls-1" d="M272.31,797.7v-1.525c.1-.1.224-.305.345-.306,3.437-.017,6.874-.014,10.32-.014.646.514.208,1.232.335,1.845Z"/>
  <path class="cls-1" d="M288.31,802.7h1.925c.173,3.182.012,6.4.092,9.57-.806.433-1.008,1.48-2.017,1.43Z"/>
  <path class="cls-1" d="M653.31,310.7c-.07-.93.573-1.1,1.233-.982a14.676,14.676,0,0,1,6.45,3.174c.628.487.2,1.206.317,1.808h-5c-.162-.81.742-.967.94-1.562C656.235,311.86,654.677,311.431,653.31,310.7Z"/>
  <path class="cls-1" d="M476.31,82.7c1.343-.361,2.115.476,2.863,1.365a7.946,7.946,0,0,1-1.394,6.635H476.31c-.471-1.534,1.1-2.465,1.1-4S475.839,84.231,476.31,82.7Z"/>
  <path class="cls-1" d="M291.31,317.7v2a11.571,11.571,0,0,0-8,2c.717-2.61,2-3.753,4.649-3.984C289.068,317.616,290.193,317.7,291.31,317.7Z"/>
  <path class="cls-1" d="M413.31,486.7h-1.744v-6.789c.417-.518,1.132-.085,1.744-.211.433,1.258-.854,1.945-1.023,3.139C413.389,483.85,413.372,485.267,413.31,486.7Z"/>
  <path class="cls-1" d="M469.31,82.7V80.952h6.79c.518.417.085,1.132.21,1.744A11.328,11.328,0,0,0,469.31,82.7Z"/>
  <path class="cls-1" d="M211.31,224.7c2.773.414,2.955.656,3,4C212.214,228.185,212.356,226,211.31,224.7Z"/>
  <path class="cls-1" d="M283.31,326.7h-1q0-1.9,0-3.805c0-.681.113-1.26,1-1.195Z"/>
  <path class="cls-1" d="M208.31,223.7c.019-1.1-.274-2.485,1.672-1.836.626.521.207,1.228.328,1.836Z"/>
  <path class="cls-1" d="M214.147,228.152c1.343,1.14,1.427,1.776.759,2.467C213.854,230.231,214.488,229.34,214.147,228.152Z"/>
  <path class="cls-1" d="M208.31,223.7a.847.847,0,0,1-1,1A.847.847,0,0,1,208.31,223.7Z"/>
  <path class="cls-1" d="M205.31,226.7a.848.848,0,0,1,1-1A.848.848,0,0,1,205.31,226.7Z"/>
  <path class="cls-1" d="M207.31,224.7a.847.847,0,0,1-1,1A.847.847,0,0,1,207.31,224.7Z"/>
  <path class="cls-1" d="M211.31,224.7q-1.038.039-1-1Q211.348,223.659,211.31,224.7Z"/>
  <path class="cls-1" d="M339.31,745.7q-1.038.039-1-1Q339.348,744.659,339.31,745.7Z"/>
  <path class="cls-1" d="M272.31,797.7a.847.847,0,0,1-1,1A.847.847,0,0,1,272.31,797.7Z"/>
  <path class="cls-1" d="M284.31,798.7q-1.038.039-1-1Q284.348,797.659,284.31,798.7Z"/>
  <path class="cls-1" d="M271.31,798.7a.847.847,0,0,1-1,1A.847.847,0,0,1,271.31,798.7Z"/>
  <path class="cls-1" d="M285.31,799.7q-1.038.039-1-1Q285.348,798.659,285.31,799.7Z"/>
  <path class="cls-1" d="M270.31,799.7a.847.847,0,0,1-1,1A.847.847,0,0,1,270.31,799.7Z"/>
  <path class="cls-1" d="M285.31,799.7q1.038-.038,1,1Q285.272,800.735,285.31,799.7Z"/>
  <path class="cls-1" d="M269.31,800.7a.847.847,0,0,1-1,1A.847.847,0,0,1,269.31,800.7Z"/>
  <path class="cls-1" d="M287.31,801.7q-1.038.039-1-1Q287.348,800.659,287.31,801.7Z"/>
  <path class="cls-1" d="M268.31,801.7a.847.847,0,0,1-1,1A.847.847,0,0,1,268.31,801.7Z"/>
  <path class="cls-1" d="M288.31,802.7q-1.038.039-1-1Q288.348,801.659,288.31,802.7Z"/>
  <path class="cls-1" d="M287.31,814.7a.848.848,0,0,1,1-1A.848.848,0,0,1,287.31,814.7Z"/>
  <path class="cls-1" d="M286.31,815.7a.848.848,0,0,1,1-1A.848.848,0,0,1,286.31,815.7Z"/>
  <path class="cls-1" d="M286.31,815.7a.847.847,0,0,1-1,1A.847.847,0,0,1,286.31,815.7Z"/>
  <path class="cls-1" d="M285.31,816.7a.847.847,0,0,1-1,1A.847.847,0,0,1,285.31,816.7Z"/>
  <path class="cls-1" d="M284.306,817.7a.7.7,0,0,1-.592.886c-.077.017-.312-.217-.294-.295A.7.7,0,0,1,284.306,817.7Z"/>
  <path class="cls-1" d="M125.31,237.7c-.4,1.562.786,2.308,1.682,3.159.834.791,1.638,1.54,1.318,2.841-1.369.013-.967,1.059-.985,1.782-.045,1.824,0,3.649-.019,5.474-.02,1.924-.074,3.848-.109,5.579H115.31c0-3.292,0-6.422,0-9.551,0-.679-.018-1.361-1-1.284.042-.978-.827-1.336-1.381-1.822-.74-.651-.609-1.4-.619-2.178v-9.823h12c0,1.8-.033,3.425.02,5.05A.764.764,0,0,0,125.31,237.7Z"/>
  <path class="cls-1" d="M61.31,253.7H55.818c-.725-4.2-.934-31.069-.341-46H61.31a.764.764,0,0,1,.983.79q.032,22.211,0,44.42A.764.764,0,0,1,61.31,253.7Zm-1.17-1.1V208.792H57.481V252.6Z"/>
  <path class="cls-1" d="M125.31,237.7a.764.764,0,0,1-.98-.773c-.053-1.625-.02-3.251-.02-5.05h-12V241.7c-.967.075-1-.592-1-1.271,0-3.447,0-6.893,0-10.534h14Z"/>
  <path class="cls-1" d="M114.31,245.7c.981-.077,1,.6,1,1.284,0,3.129,0,6.259,0,9.551H127.2c.035-1.731.089-3.655.109-5.579.019-1.825-.026-3.65.019-5.474.018-.723-.384-1.769.985-1.782v13.769c-2.2.482-4.493.16-6.748.218-2.306.059-4.614.013-7.252.013Z"/>
  <path class="cls-1" d="M717.473,257.783h14.674v41.751c-2.214.39-4.669.1-7.094.151-2.473.052-4.947.011-7.58.011Zm1.013,1.009V298.6h11.648V258.792Z"/>
  <path class="cls-1" d="M773.39,278.85V265.117l1.278-1.278h12.306c.981.948-.171,2.439.654,3.731h13.446v13.97H787.581c-.8-.533.119-1.729-.57-2.69Zm12.75-2.236V265.7c-2.14,0-4.111-.015-6.083,0-1.925.02-3.85.074-5.576.109v10.8Zm2.345-6.832V280.7c2.144,0,4.117.015,6.089,0,1.922-.019,3.844-.072,5.562-.106v-10.8Z"/>
  <path class="cls-1" d="M44.713,279.624c-.622-.694-.657-1.678.149-1.841,1.022-.207.149.888.419,1.328C45.305,279.149,44.921,279.439,44.713,279.624Z"/>
  <path class="cls-1" d="M47.31,275.7a.848.848,0,0,1,1-1A.847.847,0,0,1,47.31,275.7Z"/>
  <path class="cls-1" d="M45.31,277.7a.848.848,0,0,1,1-1A.847.847,0,0,1,45.31,277.7Z"/>
  <path class="cls-1" d="M47.31,275.7a.847.847,0,0,1-1,1A.848.848,0,0,1,47.31,275.7Z"/>
  <path class="cls-1" d="M168.4,294.523V283.87H180.11c.529,1.5.1,3.314.182,5.065.083,1.8.018,3.611.018,5.588Z"/>
  <path class="cls-1" d="M134.481,501.78h24.658v26.574c.06-.066-.035.077-.166.169a.815.815,0,0,1-.426.166c-7.965.008-15.93.007-24.066.007Z"/>
  <path class="cls-1" d="M673.457,475.779h3.426c1.635,1.456-.79,1.871-.612,3a22.017,22.017,0,0,1,.039,3.416l1.585,1.585h6.069c.608.9.277,1.706.286,2.7H673.457Z"/>
  <path class="cls-1" d="M684.31,475.858v5.409c-1.066.716-2.069.348-3.019.417-.823.059-1.654.012-2.731.012v-5.838Z"/>
  <path class="cls-1" d="M171.931,347.688H160.552v-12.83h12.265C173.818,340.391,173.571,344.99,171.931,347.688Z"/>
  <path class="cls-1" d="M167.4,354.531v-5.67h5.662v5.67Z"/>
  <path class="cls-1" d="M673.4,584.521v-12.65h10.715c.445,1.853.137,3.975.188,6.062.051,2.138.011,4.278.011,6.588Z"/>
  <path class="cls-1" d="M666.475,578.781h5.67v5.661h-5.67Z"/>
  <path class="cls-1" d="M835.142,312.614H822.478v-12.9c1.9-.006,3.994-.016,6.086-.019,2.139,0,4.277,0,6.578,0Z"/>
  <path class="cls-1" d="M822.455,221.555V209.8H835.1v11.753Z"/>
  <path class="cls-1" d="M422.931,528.689H411.553V516.858h12.262C424.8,522.24,424.58,525.976,422.931,528.689Z"/>
  <path class="cls-1" d="M453.31,600.7h11.747c.571,1.683.158,3.5.235,5.252.081,1.8.018,3.612.018,5.748h-12Z"/>
  <path class="cls-1" d="M503.31,397.7v12.746c-1.682.573-3.5.158-5.251.236-1.8.081-3.613.018-5.749.018v-13Z"/>
  <path class="cls-1" d="M614.31,530.7H626.2c.038,1.9.092,3.824.111,5.751.019,1.973,0,3.947,0,6.249h-12Z"/>
  <path class="cls-1" d="M528.31,600.7v10.791c-3.531.526-7.109-.013-11,.31V600.7Z"/>
  <path class="cls-1" d="M363.31,377.7h10.884c.039,1.9.093,3.824.112,5.751.019,1.973,0,3.947,0,6.249h-11Z"/>
  <path class="cls-1" d="M283.31,326.7v-5a11.571,11.571,0,0,1,8-2v7Z"/>
  <path class="cls-1" d="M623.31,230.7H648.2c.037,1.892.109,3.813.1,5.734-.007,1.972-.074,3.944-.176,5.913-.007.132-.531.236-.815.353h-30v-12Z"/>
  <path class="cls-1" d="M647.31,250.7h-7.761c-.522-2.185-.036-4.441-.359-7h8.12Z"/>
  <path class="cls-1" d="M656.31,314.7h5v3C657.522,319.542,656.607,318.992,656.31,314.7Z"/>
  <path class="cls-1" d="M649.31,319.7c.115-.6-.281-1.293.414-1.91.374,1.326,2.441.194,2.586,1.91Z"/>
  <path class="cls-1" d="M584.31,227.7H572.426c-.038-1.9-.092-3.824-.111-5.751-.02-1.973-.005-3.947-.005-6.249h12Z"/>
  <path class="cls-1" d="M384.393,405.529V394.864h10.775c.044,1.564.113,3.325.137,5.087.024,1.8,0,3.608,0,5.578Z"/>
  <path class="cls-1" d="M381.483,384.775h11.655v5.806c-1.726.036-3.651.091-5.577.111-1.969.02-3.939,0-6.078,0Z"/>
  <path class="cls-1" d="M312.157,278.523H292.112c1.031-.335-.016.075.356-.478.091-.134.232-.334.351-.334q9.648-.025,19.3-.015Z"/>
  <path class="cls-1" d="M653.31,310.7c1.367.735,2.925,1.164,3.94,2.438-.2.595-1.1.752-.94,1.562-.951,1.609-1.017,1.818-1.2,4.164-1.345-.98-2.14-2.516-3.741-2.6C652.5,314.569,653.626,312.885,653.31,310.7Z"/>
  <path class="cls-1" d="M339.31,745.7q.039-1.038-1-1a7.32,7.32,0,0,0-.277-1.843c-2.034-4.615-2.133-4.694-.283-8.962a11.049,11.049,0,0,0,.56-3.195c1.086-.149,2.134.18,3.244-.647,2.486-1.854,5.247-1.822,8-.371.261.137.656.018,1.312.018.855,1.134,1.851,2.452,2.847,3.771l.6-.433c0,.643-.267,1.492.044,1.895,1.9,2.453,1.139,4.983-.155,7.122a6.864,6.864,0,0,0-.889,3.645,11.012,11.012,0,0,0-3.194.561c-4.269,1.849-4.347,1.751-8.962-.284A7.379,7.379,0,0,0,339.31,745.7Z"/>
  <path class="cls-1" d="M413.31,486.7c.062-1.429.079-2.846-1.023-3.861.169-1.194,1.456-1.881,1.023-3.139,1.934.178,3.489-1.831,5.781-.7l2.219,2.2V485.2l-2.219,2.2C416.8,488.527,415.244,486.518,413.31,486.7Z"/>
  <path class="cls-1" d="M469.31,82.7a11.328,11.328,0,0,1,7,0c-.471,1.535,1.1,2.466,1.1,4s-1.575,2.466-1.1,4H470.8l-2.239-2.316C467.481,86.189,469.488,84.63,469.31,82.7Z"/>
  <path class="cls-1" d="M60.14,252.6H57.481V208.792H60.14Z"/>
  <path class="cls-1" d="M718.486,258.792h11.648V298.6H718.486Z"/>
  <path class="cls-1" d="M786.14,276.614H774.481v-10.8c1.726-.035,3.651-.089,5.576-.109,1.972-.019,3.943,0,6.083,0Z"/>
  <path class="cls-1" d="M788.485,269.782h11.651v10.8c-1.718.034-3.64.087-5.562.106-1.972.019-3.945,0-6.089,0Z"/>
  <text class="cls-3" transform="translate(79.141 200.021)">B</text>
  <text class="cls-3" transform="translate(745.31 278.11)">A</text>
</svg>
