<svg id="Layer_1" data-name="Layer 1" xmlns="http://www.w3.org/2000/svg" viewBox="0 0 919.673 969.721">
  <defs>
    <style>
      .cls-1 {
        fill: #0c293b;
      }

      .cls-1, .cls-2, .cls-3, .cls-4 {
        stroke: #1cfce5;
        stroke-miterlimit: 10;
      }

      .cls-2 {
        fill: #009f86;
      }

      .cls-3 {
        fill: #00dfa3;
      }

      .cls-4 {
        fill: #0d4e54;
      }

      .cls-5 {
        font-size: 30px;
        fill: #fff;
        font-family: MyriadPro-Regular, Myriad Pro;
      }
    </style>
  </defs>
  <path class="cls-1" d="M720.518,314.213v32.058H742.8l1.6,1.6v52.956a2.521,2.521,0,0,0,.343.375.8.8,0,0,0,.422.175c21.642.008,43.283.007,64.749.007l1.368,1.368V459.33H793.446v37.058H778.518v1.854h28.809V483.507h45.9l18.192,20.434v24.947l-18.384,18.384H807.5V532.105c-.5-.831-1.027-.693-1.506-.716-.2.237-.559.473-.559.71q-.038,54.468-.024,109.113H713.746l-23.234,11.63V757.793l-7.325,7.324c-13.2,13.2-26.662,26.146-39.489,39.7-6.926,7.316-14.319,14.22-20.837,21.867-5.269,6.183-11.343,11.5-16.771,17.683h-4.253c-.309.746-.384,1.516-.806,1.852-3.117,2.479-5.1,5.934-7.7,8.86-4.909,5.54-9.522,11.346-14.171,17.112a7.97,7.97,0,0,0-1.792,5.266c.1,8.665.01,17.332.066,26,.015,2.272.139,4.642-1.1,6.537-1.135,1.741-.942,3.655-1.351,5.44-1.52,6.628-5.793,11.686-9.323,17.146-4.269,6.6-8.947,12.941-13.153,19.581-.9,1.429-2.171,2.378-3.085,3.829v2.8c-3,3.533-6.989,6.092-9.092,10.438H492.664c-3.082-3.353-3.162-8.525-6.188-12.3v-3.935c2.928-3.028,3.834-7.505,7.4-10.56-3.167-3.352-6.9-5.487-10.294-8.027-3.167-2.37-6.412-4.635-9.608-6.965-.4-.29-.668-.766-1.076-1.036-4.526-2.987-5.175-3.9-7.541-8.209a67.213,67.213,0,0,0-3.509-6.09,14.6,14.6,0,0,1-2.473-8.454c.092-11.832.037-23.666.039-35.5-3.533-3.965-6.543-8.357-11.715-12.859-1.8-.494-4.409-2.961-6.935-5.211-5.6-4.985-10.212-10.938-14.926-16.761-1.139-4.692-4.274-8.566-5.97-13.889-3.887-4.53-8.434-9.633-12.594-14.983-2.354-3.027-5.6-5.276-7.383-8.867a6.908,6.908,0,0,0-4.593-3.032c-2.079-.333-2.6-1.481-3.222-2.984-3.044-7.415-7.3-14.277-9.933-21.887-.549-1.587-1.741-2.942-2.4-4.5s-1.726-3.04-1.362-4.953c.243-1.283-.761-2.542-.821-3.589-.256-4.486-1.544-8.763-2.23-13.149-.37-2.364-.307-5.02-1.148-7-.958-2.258.207-4.937-1.772-6.767.732-2.827-1.584-5.286-.988-8.083.268-1.26-1.065-2.217-.906-3.069.449-2.415-1.465-4.375-1.049-6.594.449-2.4-1.6-4.279-1.047-6.594.408-1.712-1.523-2.775-1.082-4.605a4.357,4.357,0,0,0-.861-4.127c-.414-.466-.067-1.608-.067-2.441v-8.841c-5.776.548-11.016-2.1-16.655-1.967-2.724-2.194-6.152-.523-9.263-1.771-2.727-1.094-6.269.026-9.4-.311-2.393-.258-4.279,1.189-6.594,1.183-2.174,0-4.648-1.148-6.6.887-.08.083-.323.026-.487.01-5.569-.52-10.963,2.009-16.549.818-2.607-1.641-5.013-2.324-8.361-.985-3.429,1.372-7.26,2.957-11.087,2.1-8.011-1.8-16.084-.378-24.1-.961a29.734,29.734,0,0,0-12.635,2.137,15.468,15.468,0,0,1-5.624.89c-30,.009-60,.006-89.841.006l-66.7-66.705v-45.9l1.341-1.341H98.226V562.5c-1.71-.034-3.638-.088-5.567-.106-1.976-.02-3.953,0-5.744,0L85.5,560.973V460.389h-10.5c-5.5,0-11-.058-16.5.042a3.412,3.412,0,0,1-3.01-1.494V445.086c-.983-.831-2.431-.936-3.06-2.222V419.9c.854-.649,1.2-2.123,2.911-1.344V402.968l1.408-1.408h68.341l1.43,1.43v4.037a1.466,1.466,0,0,0,1.715.138V391.043l1.817-1.728h14.21l.148-1.728H112.035l-1.667-1.907V338.491H56.017l-1.6-1.6V245.863l1.623-1.548h60.3V178.963c.529-.529.883-.882,1.405-1.405H283.084l1.255,1.255c.06,1.121.119,2.242.183,3.443l1.619.089c.764-1.576-.629-3.9,2.581-5.029h87.693v-5.071q0-30.748-.014-61.5a35.362,35.362,0,0,1,1.828-10.743c.705-2.247.481-4.679.987-7.056.759-3.563,2.152-7.232.989-10.943a3.7,3.7,0,0,0,1.837-2.9c.663-3.4,2.19-6.49,3.492-9.58,2.035-4.829,3.554-9.844,5.735-14.628,2.423-5.313,3.955-11.025,6.2-16.428,1.895-4.561,3.271-9.333,5.322-13.789,1.5-3.256,1.974-6.826,3.744-9.958,1.746-3.09,3.229-6.328,4.894-9.466.889-1.678,1.565-3.531,3.625-4.76h49.954a6.558,6.558,0,0,0,3.9,2.732c2.48.631,3.333,2.53,4.08,4.328,1.475,3.553,3,7.113,4.294,10.713,1.155,3.213,2.745,6.2,3.957,9.369a262.593,262.593,0,0,0,10.181,24.28c-.158,3.486,2.734,5.823,3.325,9.151.779,4.4,2.46,8.625,3.663,12.952,1.5,5.386,2.989,10.777,4.322,16.206,1.224,4.983,3.175,9.774,3.934,14.9.569.569,1.158,1.158,1.75,1.748q0,35,0,69.993c.261.172.524.5.779.493,29.872-.7,59.709,1.536,89.582,1.059,13.662-.218,27.331-.037,40.571-.037,3.168.79,1.421,3.53,2.394,4.991h1.253c.988-1.457-.028-3.214.648-4.717.355-.353.708-.707,1.168-1.167h86.214l1.242,1.242v49.3l-1.488,1.489h-20.57c6.914,7.524,14.605,13.776,20.379,21.858h12.349c.787.891,1.6,1.371,1.529,2.63-.151,2.825-.048,5.664-.048,8.5v50.375l-1.323,1.324Zm-289.1,191.176h-3v3c.151.758-.5,1.915,1,2v2c-1.5.086-.849,1.242-1,2v69.816c-15.479.683-92.72.413-97.177-.354V572.358h-4.616V567.3H348.2V475.279H336.66V464.226h11.769v-8.611a6.924,6.924,0,0,1,4.056.1v14.544h42.163l21.7-21.7V430.19l-20.567-20.566h-43.51v15c-1.387-.69-2.737.479-3.868-.774v-5.072c-1.988-1.307-3.348-3.293-5.514-4.651-4.233-2.65-8.964-3.027-13.5-3.544a44.734,44.734,0,0,0-13.1.551c-4.965.909-9.541,1.848-13.4,5.22-.283.247-.971.032-1.471.032a2.644,2.644,0,0,1,1.873-3c6.036-2.7,12.126-5.11,18.927-5.022,5.15.067,10.162.222,15.22,1.863,4.135,1.342,8.048,2.627,11.1,5.808.435.454.894.3,1.717.4V408.69c1.044-1.656,2.507-1.3,3.814-1.3,14.317-.006,28.633,0,42.395,0l21.877,21.878v20.7l-22.47,22.47c-14.661-.286-29.446.339-44.225-.352-.246-.012-.538-.681-.7-.637-.634.174.266.493-.535.217V567.9l-1.582,1.583H327.62c2.283,1.57,5.01-.2,6,3.977v8.807h92.719V505l1.56-1.613H479.92c2.166,0,4.341-.122,6.5.035,2.072.152,4.275-.753,6.208.674,1.9-1.01,3.951-.7,5.964-.705,8.665-.009,17.33.021,25.994-.032,1.263-.007,2.629.464,3.672-.289v-18.68H504.918l-1.369-1.369V432.756l1.535-1.535h23.233V420.642c-1.446-.339-3.064-.157-3.745-1.554V394.341c.7-2.768,2.957-1.263,3.627-2.185V381.283h-34.39l-1.394-1.394c0-10.483-.054-21.127.04-31.769.022-2.536-.778-5.225.928-7.608a1.515,1.515,0,0,0,0-1.442c-1.8-1.839-.885-4.086-.92-6.119-.12-7-.046-14-.046-21V300.889l1.394-1.393h46.213l1.519,1.519v15.21H556.42V299.884c.53-.529.883-.883,1.588-1.588h25.336c.041-.822.251-1.325-.458-1.88H566.265l-2.057-1.617v-9.5H519.826l-1.322-1.322V220.8c.433-.433.786-.787,1.493-1.493h8.321c.074-.823.269-1.318-.408-1.882H508.636c-1.232-3.317-3.887-5.558-6-8.072-4.771-5.673-9.118-11.708-14.1-17.168-4.161-4.564-7.647-9.648-11.821-14.2a75.25,75.25,0,0,1-6.046-6.961,71.135,71.135,0,0,0-9.724-11.535H427.72c-15.615,19.447-30.952,39.008-46.577,57.8H288.93c-3.76-.969-1.681-3.547-2.967-4.884h-1.216c-1,1.443.788,4.2-3.354,5.208H270.562v38.923h12.681v44.528l-1.408,1.408h-22.2V425.242h38.925v-7.853h1.852v9.9H257.366V410.31H243.647V393.249h13.768c0-10.483,0-20.792-.007-31.1a.8.8,0,0,0-.169-.425c-.093-.13-.236-.225-.15-.146H209.53v51.894h11.74v25.061H209.59v34.883h14.882v14.841h33.06V452.551h43.016c-.433,1.721.338,3.349-.65,5.03H287.355v54.9H257.3v29.7c-12.776.675-128.747.411-132.7-.262V433.494H130.3v5.281l12.583,12.583h34.6l12.933-12.933c0-15.268,0-30.768-.007-46.267a.821.821,0,0,0-.163-.428,4.786,4.786,0,0,0-.553-.526H172.368v-4.6H146.307v4.922h-16.06V409.29h-5.884v-5.771H57.3v16.7c-1.117.394-2.011-.217-2.715.477q0,10.695.015,21.366c0,.109.227.218.03.04,1.074.574,1.99-.132,2.838.856v15.517h30.06v102.06h12.708v12.884H84.562v44.617l65.353,65.353q44.441,0,88.951-.017c1.41,0,3.022.572,4.085-.983,4.4-.584,8.55-2.358,13.177-2.088,6.146.358,12.329.022,18.494.124,2.21.036,4.438-.508,6.665.833.944.568,2.741.022,4.215-.312,4.44-1.007,8.634-3.528,13.6-2.356a6.613,6.613,0,0,0,4.531,1.833c4.426.307,8.649-1.714,13.088-1.034,1.962-1.868,4.407-1,6.582-.907,2.342.1,4.2-1.533,6.6-1.167a48.879,48.879,0,0,0,6.989.077,23.954,23.954,0,0,1,7.124.872c2.054.635,4.512-.264,6.547,1.125,5.964-.083,11.578,2.593,17.938,1.923a71.82,71.82,0,0,0,1.939,21.856c.6,2.643.7,5.371,1.334,7.96a45.653,45.653,0,0,1,1.517,7.811,40.572,40.572,0,0,0,1.421,7.985c1.236,4.584,1.467,9.3,2.651,13.864.678,2.614,1.507,5.279,1.05,8.072,2.051,1.4.177,3.828,1.4,5.415,1.384,1.789.074,3.86.911,5.612l14.056,30.34a10.724,10.724,0,0,1,7.329,4.586,31.865,31.865,0,0,0,3.335,4.084,35.332,35.332,0,0,1,2.782,2.863,68.839,68.839,0,0,0,8.52,10.46,28.119,28.119,0,0,1,6.408,9.348c1.182,2.844,3.256,5.383,4.063,8.3a16.261,16.261,0,0,0,4.379,7.2c1.512,1.552,3.443,2.84,4.52,4.643,3.178,5.321,8.111,8.535,13.176,11.605a5.934,5.934,0,0,1,1.888,1.393,100.955,100.955,0,0,0,10.229,12.231c0,12.023.059,24.024-.041,36.023a13.115,13.115,0,0,0,2.348,8c2.976,3.887,4.039,8.806,6.167,11.091,9.564,6.921,18.183,12.2,25.526,18.712,0,1.181.255,2-.04,2.49-2.268,3.74-4.642,7.415-7.132,11.344q2.675,6.17,5.5,12.689h45.111c2.175-3.941,5.98-6.227,8.625-9.673v-3.843c1.067-.484,2.206-.725,2.837-1.782,4.907-8.234,10.463-16.033,15.843-23.955,2.334-3.438,5.028-6.818,6.041-10.975,1.5-6.143,3.709-12.081,3.325-18.681-.473-8.139-.113-16.326-.113-24.638,7.575-11.078,17.432-20.453,25.405-31.33h4.165c5.1-5.724,10.8-10.933,15.933-16.771,7.515-8.552,15.768-16.468,23.641-24.722,13.112-13.743,26.781-26.955,40.219-40.386,1.275-1.274,2.581-2.517,3.513-3.423V682.287h-7.008v-5.648c-2.026-.678-4.077.313-5.683-.539V663.343h12.715V651.49L712.6,639.262H803.21c.605-11.828.4-41.855-.341-46.055H790.375v-6.888H754.554v-3.061h49.022V529.485h5.883v15.779H851.83l17.548-17.546V504.929q-8.723-9.828-17.23-19.414H809.31v14.718H776.679V494.2h14.785V457.31h17.809V403.251h-102.9c.106-.818-.173-1.367.692-1.883h11.4V388.307h23.715v-18.06h-7.688c-.272-7.4.182-14.649-.28-22.047H718.532V312.3h23.737V291.742c-.9-.89-2.629.569-2.854-1.353.943-.125,1.951.3,3.1-.5-.562-1.034.535-2.374-.586-3.5h-2.515c.219-1.941,1.985-.433,2.787-1.291V253.527H570.854l-4.624,4.538v5.213h-16.6V215.194c3.371,1.081,6.178-.941,9.271-.831,3.329.118,6.665.026,10,.026h70.532v-4.8h6.06V227.5h45.767v4.721c-1.621-.105-1.571,1.311-2.247,2.016a88.924,88.924,0,0,1-7.611,6.838c-3.945,3.269-7.386,7.146-11.072,10.8.407.225.678.5.949.506q28.249.03,56.5.008a.617.617,0,0,0,.389-.249c.416-.521-.5-.193-.159-.276-2.251-3.931-5.59-7.09-8.909-10.244-3.436-3.266-6.325-7.142-10.581-9.82v-4.453h21.772V179.62h-85.01v5.5h-6.049v-4.735c-15,0-29.82.125-44.633-.035-14.864-.159-29.714.254-44.6-.778-12.937-.9-25.986-.187-38.985-.187h-4.558v-71.46l-1.476-1.476C503.424,100.969,502,96.04,500.631,91.1c-1.406-5.085-2.817-10.176-4.112-15.281-1.148-4.523-2.592-8.957-3.7-13.488-.664-2.711-2.463-5.06-3.278-7.625-2.81-8.843-7.305-16.993-10.174-25.8-1.044-3.208-2.633-6.238-3.947-9.36-1.913-4.542-3.8-9.094-5.721-13.69-2.137-.874-4.281-1.584-5.647-3.319H415.368c-1.321,2.639-2.629,5.273-3.955,7.9s-2.77,5.183-3.968,7.858-1.922,5.536-2.883,8.294c-.617,1.773-1.651,3.309-2.189,5.108-2.473,8.279-6.153,16.118-9.166,24.2-1.819,4.883-3.636,9.815-5.674,14.644-1.3,3.089-2.816,6.182-3.494,9.578a3.784,3.784,0,0,1-1.833,2.905c1.167,3.707-.232,7.376-.991,10.938-.507,2.376-.286,4.8-.99,7.054a35.495,35.495,0,0,0-1.825,10.745q.048,31.248.015,62.5V179.5H288.276v4.623h-6.049v-4.6c-8.589-.276-158.777-.184-163.888.115v66.86H56.658v35.058h6.661v1.883H56.541v53.058h67.72v24.9c-2.124,0-4.1-.015-6.075,0-1.933.019-3.866.075-5.587.11V385.28h66.032c7.027-8.487,12.259-17.8,19.156-26.042,8.6.814,17.1-.335,25.683.94,7.009,1.04,14.3.211,21.445.211l1.607-1.606v-9.53h11.059V300.371h23.634V258.313h-12.57V215.254h13.511c.682-1.682-.321-3.434.582-4.679h5.726v4.677H380.2l46.436-57.815h36.012l47.871,58.186h19.736v5.65c-3.374.351-6.657-.179-9.65.3v61.869H566.5V294.5h18.668v6.06H558.389v17.622h-19.06V301.623H494.415v19.72a97.285,97.285,0,0,1-.076,9.991c-.329,3.177,1.558,6.164.923,9.06a46.609,46.609,0,0,0-.838,9.619c-.038,3.333-.009,6.666-.009,10v19.493h35.751v14.849c-1.365.178-2.545-.3-3.648.385V418.25c1.26.488,2.709-.4,3.765.5v14.757H505.577v48.882c8.136,0,16.111,0,24.087.008a.787.787,0,0,1,.423.175c.128.093.22.237.137.143v22.733H494.769c-.859,1.664.217,3.43-.725,4.888-.859-.04-1.688.32-2.425-.241-.635-1.509.366-3.263-.644-4.706h-53.56c-.758.151-1.914-.5-2,1h-2C433.33,504.893,432.173,505.54,431.415,505.389ZM298.223,455.267l.041-.7H259.39v33.292c-.754,2.589-1.929,2.541-3.133,2.54-15.815-.012-31.63-.008-47.286-.008l-1.376-1.307V436.354h11.613V415.3H207.3V361.409h-8.686l-18.652,26.179h-5.542l.152,1.727h16.214l1.625,1.552q0,24.556,0,49.027l-13.463,13.463H141.983l-13.558-13.682c-.418-1.145.6-2.891-.521-4.289-.564.02-1.087-.1-1.362.357V540.172H255.415c0-8.872.019-17.527-.019-26.182-.007-1.38-.015-2.658,1.7-3.617h28.182V457.028l1.761-1.761ZM639.479,216.389H573.47a101.479,101.479,0,0,1-10.98-.085c-3.839-.419-7.209,1.673-10.921,1.041-.617,17.037-.4,40.007.363,43.852h12.543v-4.256l5.6-5.713h98c4.4-4.4,8.343-9,12.979-12.752a34.251,34.251,0,0,0,8.359-9.057h-44.3c-.764-.662-1.263-1.1-1.893-1.643V211.407l-1.542.119C640.95,213.018,642.214,215.044,639.479,216.389ZM123.246,360.3V337.389c-1.972,0-3.783-.065-5.587.019-1.753.081-3.566-.349-5.075.184V360.3ZM676.5,675.223h11.916c0-1.969.019-3.773,0-5.577-.024-1.762-.093-3.524-.137-5.09H676.5ZM220.331,477.555H209.415c0,1.968-.019,3.772.006,5.575.024,1.763.093,3.526.137,5.093h10.773ZM730.252,400.3V389.389c-1.964,0-3.767-.019-5.57.006-1.765.024-3.53.093-5.1.137V400.3Zm5.337-50.82V369.3h5.652V349.483Zm5.665,50.818V389.639h-9.677V400.3ZM337.5,474.222h9.917c0-1.634.069-3.111-.019-4.578-.087-1.423.431-2.929-.306-4.087H337.5Zm-80.25-67.915v-8.918c-1.8,0-3.441-.046-5.076.014-1.594.058-3.241-.311-4.589.206v8.7ZM244.5,409.225h12.608a1.53,1.53,0,0,0-.049-1.85H246.415c0-2.139-.064-3.947.018-5.748.08-1.751-.343-3.561.3-5.409H257.32v-1.65H244.5Zm3-51h8.958c-.152-2.728.114-5.3-.155-7.674h-8.8ZM791.611,586.389a16.781,16.781,0,0,0,.016,5.824h11.511v-5.824Zm-582.2-110.105,12.167.217v11.587a1.4,1.4,0,0,0,1.662.036V474.346c-4.723.363-9.3-.576-13.824.567A9.84,9.84,0,0,0,209.415,476.284Zm593.8,108.933c-8.625-1.286-44.51-1.052-48.261,0ZM688.249,681.306v-4.663h-5.667v4.663Z"/>
  <path class="cls-2" d="M.5,772.218V425.563H32.1c1.438,2.477-1.616,4.039-1.7,6.707.051,1.522,2.082,2.714,2.032,5.071H12.513V760.356h356.8v11.862Z"/>
  <path class="cls-2" d="M700.51,772.218v-11.66H906.832c.946-4.848,1.321-209.675.465-238.975H896.723c-.54-2.049-.249-4.011-.3-5.933-.049-1.977-.011-3.955-.011-6.095h22.758V772.218Z"/>
  <path class="cls-3" d="M893.415,526.389H882.7c-2.654-3.712-5.8-7.325-5.291-12.085,1.835-3.574,3.458-6.736,5.089-9.915,3.714,0,7.176,0,10.637,0,.679,0,1.36.017,1.283,1-2.486,2.327-2.839,5.9-4.958,8.514a10.739,10.739,0,0,0,1.453,6.676C891.937,522.336,893.582,524.04,893.415,526.389Z"/>
  <path class="cls-3" d="M48.415,442.389H39.937c-3.486-2.788-4.086-7.327-6.685-10.978,2.193-2.889,2.628-6.83,5.593-9.461,3.068-2.508,6.917-1.267,10.57-1.561a69.47,69.47,0,0,1-3.521,6.941c-1.843,2.847-1.763,5.288.012,8.2C47.141,437.559,48.855,439.649,48.415,442.389Z"/>
  <path class="cls-3" d="M48.415,442.389c.44-2.74-1.274-4.83-2.509-6.858-1.775-2.913-1.855-5.354-.012-8.2a69.47,69.47,0,0,0,3.521-6.941c.984-.077,1,.607,1,1.286,0,6.789,0,13.578,0,20.183C49.751,442.7,49.029,442.261,48.415,442.389Z"/>
  <path class="cls-3" d="M893.415,526.389c.167-2.349-1.478-4.053-2.5-5.81a10.739,10.739,0,0,1-1.453-6.676c2.119-2.61,2.472-6.187,4.958-8.514,0,6.414.01,12.827-.013,19.241C894.4,525.35,894.765,526.38,893.415,526.389Z"/>
  <path class="cls-1" d="M437.415,505.389h53.56c1.01,1.443.009,3.2.645,4.708.736.559,1.565.2,2.424.239.942-1.458-.134-3.224.725-4.888h35.455V482.715c.083.094-.009-.05-.137-.143a.787.787,0,0,0-.423-.175c-7.976-.009-15.951-.008-24.087-.008V433.507h24.706V418.75c-1.056-.9-2.5-.012-3.765-.5V394.739c1.1-.683,2.283-.207,3.648-.385V379.505H494.415V360.012c0-3.333-.029-6.666.009-10a46.609,46.609,0,0,1,.838-9.619c.635-2.9-1.252-5.883-.923-9.06a97.285,97.285,0,0,0,.076-9.991v-19.72h44.914v16.562h19.06V300.563h26.778V294.5H566.5V283.444H520.605V221.575c2.993-.481,6.276.049,9.65-.3v-5.65H510.519l-47.871-58.186H426.636L380.2,215.252H288.464v-4.677h-5.726c-.9,1.245.1,3-.582,4.679H268.645v43.059h12.57v42.058H257.581v48.882H246.522v9.53l-1.607,1.606c-7.148,0-14.436.829-21.445-.211-8.585-1.275-17.087-.126-25.683-.94-6.9,8.237-12.129,17.555-19.156,26.042H112.6V361.5c1.721-.035,3.654-.091,5.587-.11,1.975-.02,3.951,0,6.075,0v-24.9H56.541V283.435h6.778v-1.883H56.658V246.494h61.681v-66.86c5.111-.3,155.3-.391,163.888-.115v4.6h6.049V179.5h90.139v-5.245q0-31.25-.015-62.5a35.495,35.495,0,0,1,1.825-10.745c.7-2.249.483-4.678.99-7.054.759-3.562,2.158-7.231.991-10.938a3.784,3.784,0,0,0,1.833-2.905c.678-3.4,2.19-6.489,3.494-9.578,2.038-4.829,3.855-9.761,5.674-14.644,3.013-8.085,6.693-15.924,9.166-24.2.538-1.8,1.572-3.335,2.189-5.108.961-2.758,1.688-5.625,2.883-8.294s2.645-5.238,3.968-7.858,2.634-5.259,3.955-7.9h48.683c1.366,1.735,3.51,2.445,5.647,3.319,1.919,4.6,3.808,9.148,5.721,13.69,1.314,3.122,2.9,6.152,3.947,9.36,2.869,8.807,7.364,16.957,10.174,25.8.815,2.565,2.614,4.914,3.278,7.625,1.109,4.531,2.553,8.965,3.7,13.488,1.3,5.105,2.706,10.2,4.112,15.281,1.367,4.944,2.793,9.873,4.348,15.357l1.476,1.476v71.46h4.558c13,0,26.048-.71,38.985.187,14.883,1.032,29.733.619,44.6.778,14.813.16,29.63.035,44.633.035v4.735h6.049v-5.5h85.01v47.717H708.515v4.453c4.256,2.678,7.145,6.554,10.581,9.82,3.319,3.154,6.658,6.313,8.909,10.244-.346.083.575-.245.159.276a.617.617,0,0,1-.389.249q-28.248.016-56.5-.008c-.271,0-.542-.281-.949-.506,3.686-3.649,7.127-7.526,11.072-10.8a88.924,88.924,0,0,0,7.611-6.838c.676-.705.626-2.121,2.247-2.016V227.5H645.492V209.589h-6.06v4.8H568.9c-3.334,0-6.67.092-10-.026-3.093-.11-5.9,1.912-9.271.831v48.084h16.6v-5.213l4.624-4.538H742.2V285.1c-.8.858-2.568-.65-2.787,1.291a2.478,2.478,0,0,0,0,4c.225,1.922,1.958.463,2.854,1.353V312.3H718.532v35.9h15.682c.462,7.4.008,14.648.28,22.047h7.688v18.06H718.467v13.061h-11.4c-.865.516-.586,1.065-.692,1.883h102.9V457.31H791.464V494.2H776.679v6.03H809.31V485.515h42.838q8.508,9.588,17.23,19.414v22.789L851.83,545.264H809.459V529.485h-5.883v53.773H754.554v3.061h35.821v6.888h12.494c.737,4.2.946,34.227.341,46.055H712.6L688.315,651.49v11.853H675.6V676.1c1.606.852,3.657-.139,5.683.539v5.648h7.008v74.821c-.932.906-2.238,2.149-3.513,3.423-13.438,13.431-27.107,26.643-40.219,40.386-7.873,8.254-16.126,16.17-23.641,24.722-5.13,5.838-10.837,11.047-15.933,16.771H600.82c-7.973,10.877-17.83,20.252-25.405,31.33,0,8.312-.36,16.5.113,24.638.384,6.6-1.827,12.538-3.325,18.681-1.013,4.157-3.707,7.537-6.041,10.975-5.38,7.922-10.936,15.721-15.843,23.955-.631,1.057-1.77,1.3-2.837,1.782v3.843c-2.645,3.446-6.45,5.732-8.625,9.673H493.746q-2.821-6.505-5.5-12.689c2.49-3.929,4.864-7.6,7.132-11.344.3-.488.04-1.309.04-2.49-7.343-6.507-15.962-11.791-25.526-18.712-2.128-2.285-3.191-7.2-6.167-11.091a13.115,13.115,0,0,1-2.348-8c.1-12,.041-24,.041-36.023a100.955,100.955,0,0,1-10.229-12.231,5.934,5.934,0,0,0-1.888-1.393c-5.065-3.07-10-6.284-13.176-11.605-1.077-1.8-3.008-3.091-4.52-4.643a16.261,16.261,0,0,1-4.379-7.2c-.807-2.915-2.881-5.454-4.063-8.3a28.119,28.119,0,0,0-6.408-9.348,68.839,68.839,0,0,1-8.52-10.46,35.332,35.332,0,0,0-2.782-2.863,31.865,31.865,0,0,1-3.335-4.084,10.724,10.724,0,0,0-7.329-4.586l-14.056-30.34c-.837-1.752.473-3.823-.911-5.612-1.227-1.587.647-4.015-1.4-5.415.457-2.793-.372-5.458-1.05-8.072-1.184-4.562-1.415-9.28-2.651-13.864a40.572,40.572,0,0,1-1.421-7.985,45.653,45.653,0,0,0-1.517-7.811c-.629-2.589-.738-5.317-1.334-7.96a71.82,71.82,0,0,1-1.939-21.856c-6.36.67-11.974-2.006-17.938-1.923-2.035-1.389-4.493-.49-6.547-1.125a23.954,23.954,0,0,0-7.124-.872,48.879,48.879,0,0,1-6.989-.077c-2.4-.366-4.259,1.269-6.6,1.167-2.175-.094-4.62-.961-6.582.907-4.439-.68-8.662,1.341-13.088,1.034a6.613,6.613,0,0,1-4.531-1.833c-4.967-1.172-9.161,1.349-13.6,2.356-1.474.334-3.271.88-4.215.312-2.227-1.341-4.455-.8-6.665-.833-6.165-.1-12.348.234-18.494-.124-4.627-.27-8.774,1.5-13.177,2.088-1.063,1.555-2.675.982-4.085.983q-44.493.035-88.951.017L84.562,618.036V573.419h15.677V560.535H87.531V458.475H57.471V442.958c-.848-.988-1.764-.282-2.838-.856.2.178-.03.069-.03-.04q-.026-10.677-.015-21.366c.7-.694,1.6-.083,2.715-.477v-16.7h67.06v5.771h5.884V391.527h16.06v-4.922h26.061v4.6h17.324a4.786,4.786,0,0,1,.553.526.821.821,0,0,1,.163.428c.008,15.5.007,31,.007,46.267l-12.933,12.933h-34.6L130.3,438.775v-5.281h-5.708V541.915c3.955.673,119.926.937,132.7.262v-29.7h30.06v-54.9H299.9c.988-1.681.217-3.309.65-5.03H257.532v35.706h-33.06V473.416H209.59V438.533h11.68V413.472H209.53V361.578h47.559c-.086-.079.057.016.15.146a.8.8,0,0,1,.169.425c.008,10.308.007,20.617.007,31.1H243.647V410.31h13.719v16.981h43.049v-9.9a.847.847,0,0,0,1-1c.5,0,1.188.215,1.471-.032,3.863-3.372,8.439-4.311,13.4-5.22a44.734,44.734,0,0,1,13.1-.551c4.533.517,9.264.894,13.5,3.544,2.166,1.358,3.526,3.344,5.514,4.651v5.072c1.131,1.253,2.481.084,3.868.774v-15h43.51l20.567,20.566v18.371l-21.7,21.7H352.485V455.717a6.924,6.924,0,0,0-4.056-.1v8.611H336.66v11.053H348.2V567.3H326.622v5.054h4.616v11.493c4.457.767,81.7,1.037,97.177.354V514.389c3.548,3.478,4.8,4.132,10.925,1.576C441.288,510.041,440.962,508.976,437.415,505.389Zm159,129a2.478,2.478,0,0,0-4,0c-1.937-.609-.946-2.213-.948-3.289-.066-26.31-.043-52.62-.079-78.93,0-1.255.48-2.627-.557-3.944H537.638c-.6-2.014.267-4.045-.633-6.015h-42.79c0-4.958,0-9.74-.016-14.522,0-.1-.234-.2-.37-.308-.758.191-1.658-.385-2.49.6v20.5H468.446V551c-2.29,2.245-4.771,4.472-6.987,6.938-1.107,1.233-2.409,1.449-4.153,1.711v37.869H446.415c0,2.14.028,4.113-.018,6.084a.766.766,0,0,1-.982.792,3.438,3.438,0,0,0-5,0,2.478,2.478,0,0,0,0,4c-.351,1.948-1.875.947-2.79.951-14.153.07-28.307.033-42.461.078-1.245,0-2.619-.5-3.569.3v35.57h17.871V633.506h31.016v65.951h24.886c.587,2.872,3.614,4.026,4.316,6.537,6.051,3.061,11.973,6.042,17.881,9.05,6.546,3.334,6.54,3.343,13.6,3.353.309,0,.618.11.424.073,2.338,1.094,2.569,3.341,3.875,4.488,4.115,1.017,8.025,2.091,11.984,2.933,4.783,1.017,9.389,3.122,13.8,2.529l19.127-12.03h4.1l1.378-2.057h3.8c6.325-4.488,12.727-8.284,18.4-12.944,16.6,0,33.087,0,49.572-.006a.859.859,0,0,0,.434-.148c.137-.087.24-.228.2-.188V639.389h-4.575c-8.326,0-16.652.021-24.977-.033-.8,0-2.113.707-2.291-.967A2.478,2.478,0,0,0,596.415,634.389Zm-83-296v3q-.037,1.038,1,1h40v25c2.3,0,4.275.015,6.25,0,1.927-.019,3.853-.072,5.75-.11V342.389h18a.847.847,0,0,0,1-1v-3h18v34.828c17.434.715,92.686.429,96.83-.322V275.557c-16.825-.7-92.521-.419-96.83.354v46.478h-18v-8q.039-1.038-1-1h-11a.848.848,0,0,0-1,1v23h-58A.848.848,0,0,0,513.415,338.389ZM620.588,589.216h91.848V567.343h7.054v-5.85c1.709-.33,3.4.252,5.057-.506V548.46c8.069-.24,15.985.15,24.042-.224V500.368h11.625v-6.056h-11.9V433.283H669.651V403.244h12.674v-1.881h-5.963V382.6H628.551v10.913h11.7v28.866H589.207c-6.991,4-14.086,6.678-20.828,10.08a8.663,8.663,0,0,1-4.118.931h-9.693v31c2.12,0,4.094-.016,6.069,0,1.935.02,3.87.076,5.952.12v52.875c23.808,0,47.444,0,71.08.008a.786.786,0,0,1,.421.178,5.043,5.043,0,0,1,.517.58v6.294h7.6v54.8H621.415V548.4C620.2,552.423,620,575.481,620.588,589.216ZM499.929,861.359c2.9,3.25,6.6,5.834,8.645,9.9,1.9,0,3.881.5,5.435-.1,4.041-1.559,8.181-2.779,12.276-4.15,3.81-1.276,7.6-2.615,11.943-4.114l22.377-25.462v-4.758c11.949-15.507,23.485-30.025,34.944-45.087V780.4h11.736c2.024-3.836,5.287-6.594,8.153-9.543-.472-3.63,2.428-6.391,1.954-10.008,2.845-2.113,3.952-5.866,7.013-7.834V745.3c-1.739-4.055-4.391-7.183-6.466-10.8l-2.352-.259c-2.128-3.6-4.274-7.225-6.4-10.812-1.43.159-2.743-.529-3.9.569-2.536,2.4-5.864,3.641-8.836,5.248-7.229,3.907-14.267,8.139-21.449,12.121-3.257,1.805-6.628,3.4-9.736,5.528a12.753,12.753,0,0,1-7.943,2.587c-6.653-.288-13.327-.139-19.991-.055a22.8,22.8,0,0,0-5.651.717c-2.038.54-4.332,1.346-6.512,1.171-2.83-.227-5.263,1.813-8.09,1.079-1.484,1.851-3.67.654-5.477,1.249-4.22,1.39-10.429,1.12-14.088-.694-6.218-3.083-12.6-5.783-18.959-8.544s-12.708-5.562-18.958-8.518c-6.409-3.031-12.917-5.859-19.278-9-4.418-2.184-9.13-3.772-13.616-6.5-4.364.77-8.465-2.928-13.073-1.806-2,11.009-5.42,21.529-6.4,32.624,5.563,3.594,9.712,8.295,14.171,12.672v4.833c11.1,12.009,23.483,22.6,33.976,35.053,3.317,3.936,7.273,7.33,10.891,11.016a7.018,7.018,0,0,0,3.138,2.085v9.787l18.012,21.17v6.161c2.706,2.527,6.186,4.238,8.27,7.38Zm-132.6-251.97H286.415c0-6.483-.046-12.626.013-18.768.06-6.08-.266-12.173.2-18.423H305.3v-4.536c-7.212-.5-92.52-.376-96.761.131v47.692h13v30.044H240.58V657.3h11.875V645.389c12.33,0,24.309,0,36.288-.026.225,0,.449-.387.679-.6-.012-.485-.069-.991.324-1.239h58.393c.248.715.449,1.3.591,1.7h18.6ZM251.415,306.308V239.565c-16.323-.686-80.707-.417-84.831.31v66.433Zm-101.9-85.095h96.795V215.6H142.329v65.91h-54.9c.036.821-.211,1.347.33,1.715,2.167.593,4.521-.365,6.848.568v22.484H161.2v-12H149.518ZM465.328,5.564H453.415c0,2.145-.014,4.118,0,6.091.018,1.921.071,3.842.1,5.559h11.8ZM142.584,624.228l.831-.017c0-2.78.08-5.564-.022-8.34s.448-5.6-.809-8.291Zm26.67-26.008-.017-.831c-2.78,0-5.564-.08-8.34.023s-5.6-.449-8.291.808Zm9.33,25.007.831-.014c0-2.614.074-5.231-.021-7.841s.4-5.27-.81-7.793Zm-31.39,3.458c-.482.252-1.332-.989-1.64.376C146.158,627.544,146.712,627.579,147.194,626.685Zm5,5c-.482.252-1.332-.989-1.64.376C151.158,632.544,151.712,632.579,152.194,631.685Z"/>
  <path class="cls-1" d="M123.246,360.3H112.584V337.592c1.509-.533,3.322-.1,5.075-.184,1.8-.084,3.615-.019,5.587-.019Z"/>
  <path class="cls-1" d="M676.5,675.223V664.556h11.774c.044,1.566.113,3.328.137,5.09.024,1.8,0,3.608,0,5.577Z"/>
  <path class="cls-1" d="M220.331,477.555v10.668H209.558c-.044-1.567-.113-3.33-.137-5.093-.025-1.8-.006-3.607-.006-5.575Z"/>
  <path class="cls-1" d="M730.252,400.3H719.579V389.532c1.573-.044,3.338-.113,5.1-.137,1.8-.025,3.606-.006,5.57-.006Z"/>
  <path class="cls-1" d="M735.589,349.483h5.652V369.3h-5.652Z"/>
  <path class="cls-1" d="M741.254,400.3h-9.677V389.639h9.677Z"/>
  <path class="cls-1" d="M337.5,474.222v-8.665h9.592c.737,1.158.219,2.664.306,4.087.088,1.467.019,2.944.019,4.578Z"/>
  <path class="cls-1" d="M257.248,406.307h-9.665v-8.7c1.348-.517,3-.148,4.589-.206,1.635-.06,3.275-.014,5.076-.014Z"/>
  <path class="cls-1" d="M244.5,409.225V394.568H257.32v1.65H246.734c-.644,1.848-.221,3.658-.3,5.409-.082,1.8-.018,3.609-.018,5.748h10.641a1.53,1.53,0,0,1,.049,1.85Z"/>
  <path class="cls-1" d="M247.5,358.226v-7.674h8.8c.269,2.371,0,4.946.155,7.674Z"/>
  <path class="cls-1" d="M791.611,586.389h11.527v5.824H791.627A16.781,16.781,0,0,1,791.611,586.389Z"/>
  <path class="cls-1" d="M433.415,506.389h2c1.795,1.393,3.73,2.679,4,5.212-.866,2.591-2.5,4.315-5.028,4.748-2.514-.461-3.664-2.3-4.97-3.96v-2c1.927-.469.619-2.016,1-3C431.4,507.008,432.946,508.316,433.415,506.389Z"/>
  <path class="cls-1" d="M209.415,476.284a9.84,9.84,0,0,1,0-1.371c4.522-1.143,9.1-.2,13.824-.567v13.778a1.4,1.4,0,0,1-1.662-.036V476.5Z"/>
  <path class="cls-1" d="M803.218,585.217H754.957C758.708,584.165,794.593,583.931,803.218,585.217Z"/>
  <path class="cls-1" d="M429.415,512.389c1.306,1.657,2.456,3.5,4.97,3.96,2.531-.433,4.162-2.157,5.028-4.748-.268-2.533-2.2-3.819-4-5.212.086-1.5,1.242-.849,2-1,3.547,3.587,3.873,4.652,1.925,10.576-6.124,2.556-7.377,1.9-10.925-1.576C428.566,513.631,427.919,512.475,429.415,512.389Z"/>
  <path class="cls-1" d="M688.249,681.306h-5.667v-4.663h5.667Z"/>
  <path class="cls-1" d="M739.415,286.389h2.515c1.121,1.121.024,2.461.586,3.5-1.15.8-2.158.38-3.1.5Z"/>
  <path class="cls-1" d="M428.415,508.389v-3h3q-.5,1-1,2Q429.416,507.89,428.415,508.389Z"/>
  <path class="cls-1" d="M428.415,508.389q1-.5,2-1c-.381.984.927,2.531-1,3C427.919,510.3,428.566,509.147,428.415,508.389Z"/>
  <path class="cls-1" d="M430.415,507.389q.5-1,1-2c.758.151,1.915-.5,2,1C432.946,508.316,431.4,507.008,430.415,507.389Z"/>
  <path class="cls-4" d="M603.415,322.389V275.911c4.309-.773,80.005-1.055,96.83-.354V372.9c-4.144.751-79.4,1.037-96.83.322V338.389h32c0-2.967.018-5.608,0-8.249-.022-2.593.1-5.2-.065-7.751Zm84.828,3.012V312.389c-8.133,0-16.1,0-24.057.007a.823.823,0,0,0-.427.161c-.133.09-.231.232-.187.186v36.646c2.289,0,4.427.013,6.565,0,2.1-.016,4.2-.061,6.438-.1V325.4Z"/>
  <path class="cls-4" d="M251.415,306.308H166.584V239.875c4.124-.727,68.508-1,84.831-.31v66.743Zm-17.968-49.742H220.386v11.882H178.547v24.058h13.015v10.883c9.817,0,19.459,0,29.1-.007a.8.8,0,0,0,.423-.174,5.006,5.006,0,0,0,.52-.573v-10.3h12.809c0-2.967-.176-5.779.033-8.563C235.125,274.705,232.966,265.779,233.447,256.566Z"/>
  <path class="cls-1" d="M585.415,338.389a.763.763,0,0,1-.982-.785q-.045-7.215,0-14.429a.764.764,0,0,1,.982-.786h49.93c.162,2.553.043,5.158.065,7.751.023,2.641,0,5.282,0,8.249h-50Zm1.1-1.175H634.32V323.565H586.511Z"/>
  <path class="cls-1" d="M554.415,342.389a.763.763,0,0,1,.784-.981q5.216-.054,10.433,0a.762.762,0,0,1,.783.981v24.886c-1.9.038-3.823.091-5.75.11-1.975.019-3.95,0-6.25,0Zm10.833,17.917V343.389c-1.8,0-3.445-.048-5.081.014-1.592.06-3.241-.319-4.585.21v16.693ZM555.5,366.22h9.866c-.026-1.74.351-3.334-.189-4.661H555.5Z"/>
  <path class="cls-1" d="M465.328,5.564v11.65h-11.8c-.033-1.717-.086-3.638-.1-5.559-.019-1.973,0-3.946,0-6.091Zm-1,1h-9.914c0,1.811-.049,3.452.014,5.089.061,1.587-.327,3.234.21,4.562h9.69Z"/>
  <path class="cls-1" d="M142.584,624.228V607.58c1.257,2.689.707,5.521.809,8.291s.022,5.56.022,8.34Z"/>
  <path class="cls-1" d="M169.254,598.22H152.606c2.689-1.257,5.521-.706,8.291-.808s5.56-.023,8.34-.023Z"/>
  <path class="cls-1" d="M178.584,623.227V607.579c1.21,2.523.716,5.188.81,7.793s.021,5.227.021,7.841Z"/>
  <path class="cls-1" d="M440.415,604.389a3.438,3.438,0,0,1,5,0Z"/>
  <path class="cls-1" d="M440.415,608.389a2.478,2.478,0,0,1,0-4Z"/>
  <path class="cls-1" d="M739.415,286.389v4A2.478,2.478,0,0,1,739.415,286.389Z"/>
  <path class="cls-1" d="M592.415,634.389a2.478,2.478,0,0,1,4,0Z"/>
  <path class="cls-1" d="M596.415,634.389a2.478,2.478,0,0,1,0,4Z"/>
  <path class="cls-1" d="M147.194,626.685c-.482.894-1.036.859-1.64.376C145.862,625.7,146.712,626.937,147.194,626.685Z"/>
  <path class="cls-1" d="M152.194,631.685c-.482.894-1.036.859-1.64.376C150.862,630.7,151.712,631.937,152.194,631.685Z"/>
  <path class="cls-1" d="M573.415,313.389a.847.847,0,0,1-1,1A.847.847,0,0,1,573.415,313.389Z"/>
  <path class="cls-1" d="M585.415,314.389q-1.038.039-1-1Q585.453,313.352,585.415,314.389Z"/>
  <path class="cls-1" d="M514.415,337.389a.847.847,0,0,1-1,1A.847.847,0,0,1,514.415,337.389Z"/>
  <path class="cls-1" d="M513.415,341.389q1.038-.038,1,1Q513.377,342.428,513.415,341.389Z"/>
  <path class="cls-1" d="M584.415,342.389a.848.848,0,0,1,1-1A.848.848,0,0,1,584.415,342.389Z"/>
  <path class="cls-2" d="M437.515,445.221v-11.7H454.3V400.524h50.786c1.4,2.569-1.608,4.133-1.706,5.718.1,2.588,2.219,3.743,1.992,5.969H467.149a4.777,4.777,0,0,0-.555.511.8.8,0,0,0-.172.424c-.007,10.635-.007,21.271-.007,32.075Z"/>
  <path class="cls-3" d="M522.415,416.389c.077.983-.605,1-1.284,1-2.656,0-5.311,0-7.979,0-2.024-1.2-2.854-3.224-3.769-5.257-.881-1.961-2.026-3.8-3.02-5.633a53.937,53.937,0,0,1,5.815-10.17c2.8-1.647,6.382-.868,9.886-.755.125,0,.234.532.351.815-2.494,2.353-2.936,5.895-4.929,8.569a3.06,3.06,0,0,0,0,2.863C519.479,410.494,519.921,414.036,522.415,416.389Z"/>
  <path class="cls-3" d="M420.368,439.3c1.871-3.451,3.265-6.736,5.865-10.023,2.7-1.716,6.318-.6,10.1-.955-1.441,3.084-2.615,5.985-4.127,8.7a4.067,4.067,0,0,0,.058,4.8c1.161,1.782,1.834,3.876,2.884,5.741.47.835.011,1.6.451,2.594h-8.931C423.437,447.4,422.508,442.807,420.368,439.3Z"/>
  <path class="cls-3" d="M522.415,416.389c-2.494-2.353-2.936-5.895-4.929-8.568a3.06,3.06,0,0,1,0-2.863c1.993-2.674,2.435-6.216,4.929-8.569Z"/>
  <path class="cls-1" d="M494.514,548.238v-4.7H536.18c.515,1.369.179,2.963.179,4.7Z"/>
  <path class="cls-1" d="M447.577,598.478h9.677v10.661h-9.677Z"/>
  <path class="cls-1" d="M440.415,608.389v-4h5v4Z"/>
  <path class="cls-1" d="M596.415,634.389v4h-4v-4Z"/>
  <path class="cls-1" d="M609.587,505.468h36.657v10.6c.059-.058-.046.08-.183.167a.871.871,0,0,1-.433.15c-11.957.007-23.914.006-36.041.006Z"/>
  <path class="cls-1" d="M566.248,457.305H555.583V434.588c1.513-.52,3.327-.1,5.081-.181,1.8-.081,3.613-.018,5.584-.018Z"/>
  <path class="cls-1" d="M713.578,549.477h9.675v10.7c-1.361.507-3.009.147-4.606.2-1.634.059-3.272.013-5.069.013Z"/>
  <path class="cls-1" d="M629.5,392.215v-8.651h9.821c.211,2.686.035,5.583.106,8.651Z"/>
  <path class="cls-1" d="M555.5,463.225v-4.672h10.688c.57,1.337.012,2.945.314,4.672Z"/>
  <path class="cls-1" d="M639.583,517.472h5.665v5.66h-5.665Z"/>
  <path class="cls-1" d="M718.253,566.3h-4.675v-4.6c1.335-.792,2.956-.01,4.675-.465Z"/>
  <path class="cls-1" d="M241.5,656.227v-9.676h9.662v9.676Z"/>
  <path class="cls-1" d="M688.243,325.4H676.575v23.89c-2.236.034-4.337.079-6.438.1-2.138.016-4.276,0-6.565,0V312.743c-.044.046.054-.1.187-.186a.823.823,0,0,1,.427-.161c7.962-.008,15.924-.007,24.057-.007Zm-12.993,22.9V325.389c-1.967,0-3.777-.061-5.581.018-1.756.076-3.569-.331-5.088.177v22.721ZM664.5,324.226h22.913c0-1.967.02-3.773,0-5.578-.024-1.763-.093-3.526-.137-5.1H664.5Z"/>
  <path class="cls-1" d="M233.447,256.566c-.481,9.213,1.678,18.139,1,27.2-.209,2.784-.033,5.6-.033,8.563H221.606v10.3a5.006,5.006,0,0,1-.52.573.8.8,0,0,1-.423.174c-9.642.008-19.284.007-29.1.007V292.506H178.547V268.448h41.839V256.566ZM179.5,291.222h53.915c0-7.135,0-14.1-.007-21.074a.805.805,0,0,0-.169-.424c-.093-.13-.236-.225-.173-.168H179.5Zm13,11.007h27.91c0-1.794.047-3.436-.013-5.074-.058-1.6.311-3.247-.209-4.6H192.505Zm39.744-33.924V257.389c-1.967,0-3.771-.019-5.575.006-1.763.024-3.525.093-5.093.137v10.773Z"/>
  <path class="cls-1" d="M160.334,295.559v9.66h-9.7c-.525-1.341-.149-2.988-.208-4.579-.061-1.637-.014-3.277-.014-5.081Z"/>
  <path class="cls-1" d="M586.511,337.214V323.565H634.32v13.649Z"/>
  <path class="cls-1" d="M565.248,360.306h-9.666V343.613c1.344-.529,2.993-.15,4.585-.21,1.636-.062,3.277-.014,5.081-.014Z"/>
  <path class="cls-1" d="M555.5,366.22v-4.661h9.677c.54,1.327.163,2.921.189,4.661Z"/>
  <path class="cls-1" d="M464.329,6.564v9.651h-9.69c-.537-1.328-.149-2.975-.21-4.562-.063-1.637-.014-3.278-.014-5.089Z"/>
  <path class="cls-1" d="M675.25,348.305H664.581V325.584c1.519-.508,3.332-.1,5.088-.177,1.8-.079,3.614-.018,5.581-.018Z"/>
  <path class="cls-1" d="M664.5,324.226V313.553h22.771c.044,1.569.113,3.332.137,5.1.025,1.8,0,3.611,0,5.578Z"/>
  <path class="cls-1" d="M179.5,291.222V269.556h53.566c-.063-.057.08.038.173.168a.805.805,0,0,1,.169.424c.008,6.97.007,13.939.007,21.074Z"/>
  <path class="cls-1" d="M192.505,302.229V292.55h27.688c.52,1.358.151,3.009.209,4.6.06,1.638.013,3.28.013,5.074Z"/>
  <path class="cls-1" d="M232.249,268.305H221.581V257.532c1.568-.044,3.33-.113,5.093-.137,1.8-.025,3.608-.006,5.575-.006Z"/>
  <text class="cls-5" transform="translate(184.909 265.406)">B</text>
  <text class="cls-5" transform="translate(620.312 309.3)">A</text>
</svg>
