<svg id="Layer_1" data-name="Layer 1" xmlns="http://www.w3.org/2000/svg" viewBox="0 0 854.869 952.549">
  <defs>
    <style>
      .cls-1 {
        fill: #0c293b;
      }

      .cls-1, .cls-2 {
        stroke: #1cfce5;
        stroke-miterlimit: 10;
      }

      .cls-2 {
        fill: #0d4e54;
      }

      .cls-3 {
        font-size: 30px;
        fill: #fff;
        font-family: MyriadPro-Regular, Myriad Pro;
      }
    </style>
  </defs>
  <path class="cls-1" d="M771.357,574.156c.012.422.012.922.012,1.222l-76.16,45.7c-4.723,0-10.377.3-15.985-.083s-10.956,1.718-16.7,1.011v6.447c-1.248,1.244-2.741.132-4.061.952v14.463H600.406V607.259h-6.733c.073-.08-.059.03-.144.169a.89.89,0,0,0-.154.432c-.007,10.973-.006,21.945-.006,33.093h-14.9v14.06h-15.9v5.061h6.642v90.881H508.462V774.87H469.4V760.257H454.844c-.668,3.9-.909,64.409-.259,76.821h53.56v76.68c-4.236,1.6-8.026,4.613-12.1,7.151-4.9,3.051-9.82,6.083-14.7,9.177-5.153,3.271-10.259,6.615-15.4,9.91-4.738,3.039-9.391,6.234-14.3,8.976-1.514.847-2.388,2.161-3.876,3.077H346.394l-52.883-39.3V783.194H139.5V745.136h22.767V698.254h-7.753v30.678H31.589V643.181l3.589-.189V621.834a4.953,4.953,0,0,1,.52-.574.793.793,0,0,1,.423-.174c9.975-.008,19.951-.008,30.087-.008V558.407c-1.671-.906-3.733.148-5.752-.612V483.136H19.471V390.078h27.9c.785,2.142,2.583.926,3.789.93q42.21.137,84.422.07c1,0,2,.044,3-.018a.772.772,0,0,0,.793-.982h15v-130l7.79,0h8.091V244.17H262.3V183.118h115.05v-78.87h33.761c.791.538-.168,1.753.58,2.69h57.6V74.127h13.891V52.711a68.928,68.928,0,0,1,5.857-5.725c4.7-3.637,8.488-8.278,13.084-11.941,3.358-2.677,6.085-5.961,9.423-8.56,4.826-3.756,8.713-8.524,13.43-12.3a119.07,119.07,0,0,0,10.051-9.355c1.509-1.524,3.74-1.954,5.144-4.106L585.28,34.481V47.933H579.6V71.992h5.709v34.057h53.88v76.38a4.719,4.719,0,0,0,.53.492.872.872,0,0,0,.433.151q71.955.009,144.083.006v79.9h54.005v30.1h-8.808c-3.333,0-6.78-.533-9.968.146a50.139,50.139,0,0,1-10.116.847c-3.333.032-6.764.518-9.98-.1-7.194-1.374-14.4-.754-21.6-.87-7.321-.117-14.646-.026-22.32-.026V222.191H639.558v29.385c3.86.727,39.547.967,53.664.317v-14.58H725.28v13.706h13.059v47.713c1.406.7,2.751.163,4.03.346v56c-.666,2.307-2.755.518-4.143,1.42A9.414,9.414,0,0,1,731,357.911c.785,1.7.289,2.841.777,4.221a68.841,68.841,0,0,1,3.611,12.993c.148,1.018.945,1.615,2.466,2.18,1.133-.541,2.687-1.575,4.514-1.227v19h112v40.481a2.4,2.4,0,0,1-.345.353.834.834,0,0,1-.429.16c-9.637.007-19.274.006-29.068.006v69.863h29.7V567.85H784.642c-.207-.579-.413-1.158-.646-1.813-2.071,3.592-8.615,7.723-12.639,8.119a2.672,2.672,0,0,0-1.74-3.036C768.915,573.064,770.257,573.5,771.357,574.156ZM308.525,529.1a2.7,2.7,0,0,0-3.114,1.727c1.943.7,2.377-.639,2.8-1.775a2.7,2.7,0,0,0,3.115-1.727C309.383,526.625,308.949,527.966,308.525,529.1Zm456.868,34.82a2.7,2.7,0,0,0,1.727,3.114c.7-1.943-.639-2.377-2.252-2.95-1.322-1.4,1.94-1.706,1.148-2.893-1.862.441-2.234.661-2.531,1.483A4.1,4.1,0,0,0,765.393,563.922ZM329.369,519.078c-.13.616.317,1.341-.571,2.03h-11.99c-.808.879-.2,1.772-.642,2.867a2.288,2.288,0,0,0-2.557,1.6c1.065,2.515,1.671-1.328,2.885.172v4.32c7.743.057,15.319-.038,23.055.059v29.851H385.16V497.984H354.607V451.927h52.777c-.079-3.077.116-5.982-.149-9.042H369.307v-67.9H355.248V352.078c-2.812,0-5.452-.036-8.092.01a70.676,70.676,0,0,0-7.791.135c0,1.36.012,2.36-.015,3.358,0,.121-.221.237-.515.531h-16.53v11.059h-59.7v5.058h76.763c0,11.15,0,22.126-.008,33.1a.784.784,0,0,1-.177.421c-.094.128-.238.219-.143.135H239.486v-33.9h6.735v-4.657c-2-.7-4.056.327-6.03-.759v-6.528h-6.615V319.987h5.556V283.241H200.369c0,20.138,0,40.113-.008,60.088a.789.789,0,0,1-.176.422,5.028,5.028,0,0,1-.577.519h-14.3v45.9h-7.793v39.662h77.028V410.181h22.883v14.9c12.84,0,25.327,0,37.815-.011a6.113,6.113,0,0,0,1.244-.355V410.24h22.7c.669,14.548.415,57.765-.391,62.029H323.486v13.9h15.736v34.748c-1.406.159-2.676.493-3.853-.271v-1.565c.615-.129,1.34.317,1.9-.4v-4.523l-2.232-2.988h-4.7l-2.712,2.124v5.788Zm-51,5c-1.92-.225-.465-1.954-1.55-3.053H254.305V458.277h-77v24.589h-46.03V468.314H116.225v14.764c-2.81,0-5.452-.038-8.092.011a67.411,67.411,0,0,0-7.6.121V591.078c4.8,0,9.437.008,14.076-.022.25,0,.5-.324,1.25-.848H101.573V552.2h37.582v53.972H100.594v37.9h16.2a28.95,28.95,0,0,0,4.489-.049c1.593-.253,2.532,1.523,4.115.893a2.7,2.7,0,0,0,1.727,3.115c.7-1.944-.639-2.378-1.751-2.959-.078-.989.612-1,1.291-1,4.136,0,8.272,0,12.513,0v13.948c-.994-.279-1.473-1.807-2.381-.877l2.506,3.165h15.216v6.842c2.739-.262,5.325.187,8.039-.309v-6.809H177.43v-8.046h8.049v-7.774h45.983v99.735h15.005V728.974H293.48V713.949h15.889c0-2.637,0-5.109,0-7.58,0-.679.01-1.368,1-1.291a3.437,3.437,0,0,0,5,0c1.288-2.221,1.349-3.829.13-7.107h11.719V690.96H254.47V606.034h22.783V598h-6.989v-8.041H254.5v-59.98h22.853c.095-2.235-.415-4.25.663-5.8,2.383-.242,4.01-1.084,5.1-2.859C281.138,521.559,279.368,522.154,278.369,524.078Zm15.1-217.825H339.4v17.621h16.058V313.69a313.349,313.349,0,0,1,24.991-23.833h20.043V252.326h62.052V290.1h21.1l24.95,24.949v37.885h14.925V336.908h69.876V317.029h14.853V301.971h-8.01v-7.063h-7.047V221.037H546.3V152.21H462.256v72.868H293.468Zm68.876,392h31.049v30.626h61.049v-26.9h21.89c-.036-1.474.321-2.626-.259-3.725-2.2-.617-4.563.391-6.885-.586v-30.62H377.571V633.2H500.149v65h-5.612c-.164,1.436-.5,2.7.153,3.708h13.7V681.78c.518-.94,1.211-.477,1.511-.775,6.975-6.929,13.922-13.886,21.05-21.014h8.178v-5.058H510.369c0-11.147,0-22.12.007-33.094a.81.81,0,0,1,.168-.425,4.776,4.776,0,0,1,.561-.522h20.151V606H510.507V563.95H537.2v-4.881h-5.868v-77.05H524.28V473.96h-7.663V436.906h14.775V421.277h61.05v22.574H601.5V421.078c9.812,0,19.45,0,29.089.007a.89.89,0,0,1,.432.154,4.911,4.911,0,0,1,.529.469v15.268h61.424c.924-.852-.183-2.1,1.042-2.985h12.119V420.936H655.561c-.683-14.252-.411-102.663.351-107.036h37.353V283.281H639.293V396.86H523.257V382.325H508.2V421.1h-7.88v8.058h-8.058v14.055H438.353c.074,3.081-.1,5.99.136,9.049h23.779v93.874H446.5v14.054h54.72v68.686c-11.5.594-42.81.389-47.026-.328V606.178H392.318v22.975H331.6v23.052h30.749ZM639.317,559.078c18.181,0,35.836-.035,53.49.045a10.633,10.633,0,0,0,5.8-1.739c3.85-2.328,7.984-4.233,11.627-6.837,2.331-1.667,4.943-2.641,7.32-4.123,5.948-3.71,11.923-7.38,17.953-10.954,4.533-2.687,9.347-4.934,13.719-7.853,6.622-4.42,13.71-8.027,20.426-12.274,5.134-3.247,10.435-6.231,15.476-9.221V421.24H754.369c0,9.466,0,18.77.007,28.075a.807.807,0,0,0,.166.426,4.924,4.924,0,0,0,.556.522h14.168v48.62H707.307v-31.6H631.463c-.075,1.328-.138,2.448-.2,3.562H601.231V460.063c-3.08.074-5.987-.106-9.044.138v21.913H569.5v65.521c-4.483,3.356-6.913,8.46-10.954,11.744v4.715h34.866v9.864h7.05V537.216h38.86ZM323.452,836.912H427.194c.664-15.238.408-65.624-.317-69.668H323.452ZM484.284,319.251H378.53c-.72,17.926-.428,92.52.34,96.655H484.284Zm-38.013-32h-29.8V289.9h29.8ZM292.693,516.12c-3.737.989-3.737.989-5.236,3.6C289.356,518.294,291.2,518.137,292.693,516.12Zm485.127,40a1.308,1.308,0,0,0,.353-1.781,2.5,2.5,0,0,0-3.663,1.393c1.11,1.023,1.666-.021,2.383-.669ZM300.369,533.576a1.08,1.08,0,0,0,1.61.318c.449-.421,1.383-.688,1.178-1.633C301.6,531.606,301.19,533,300.369,533.576Z"/>
  <path class="cls-2" d="M154.369,283.078v76H92.574v16c15.485,0,30.764,0,46.044.008a.787.787,0,0,1,.421.174,2.306,2.306,0,0,1,.33.358v14.46a.772.772,0,0,1-.793.982c-1,.062-2,.018-3,.018q-42.212,0-84.422-.07c-1.206,0-3,1.212-3.789-.93V344.137c-6.411-.123-12.841-.04-19.267-.055-6.473-.016-12.945,0-19.591,0V330.193H.5v-46.9H70.308v14.6H85.2c.417-2.172.1-4.626.155-7.045.057-2.476.013-4.954.013-7.762Z"/>
  <path class="cls-2" d="M742.369,355.078v-56h96.972v13.974h15.028v82.026h-112v-19c2.016-.764,3.9-1.806,6.135-2.073,1.7-.2,3.606-.388,4.865-1.927,1.387-.312,2.737-.023,4.252-.561,4.226-1.5,8.706-2.28,13.056-3.455,4.33-1.171,8.619-2.491,12.933-3.72,4.169-1.188,8.347-2.345,12.8-3.593-.476-6.379-3.272-12.255-4.388-18.793l-11.653,3.122q-1.038-.037-1,1c-1.387.285-2.74.019-4.238.536a64.539,64.539,0,0,1-7.953,2.352,68.528,68.528,0,0,0-9.461,2.412c-3.066,1.106-6.3,1.376-9.356,2.572C746.567,354.653,744.553,355.772,742.369,355.078Z"/>
  <path class="cls-1" d="M578.352,760.252V660.26h13.525c.781,4.318,1.084,93.683.35,114.636H516.466V760.252Z"/>
  <path class="cls-1" d="M46.286,345.246v43.665H1.856c-.7-3.962-.91-29.763-.316-43.665Z"/>
  <path class="cls-1" d="M515.379,758.905v16h-5.766V752.218h60.595V660.247h6.917v98.658Z"/>
  <path class="cls-1" d="M785.54,230.168h22.807v29.89H821.71c.879.5.589,1.056.661,1.518-.265.168-.528.481-.792.481-11.955.024-23.911.021-36.039.021Z"/>
  <path class="cls-1" d="M169.282,245.241v13.674h-13.9c0-2.078-.007-4.341-.009-6.605,0-2.3,0-4.607,0-7.069Z"/>
  <path class="cls-1" d="M469.45,72.9V65.714c3.356-4.561,8.37-7.553,12.74-11.861.385,6.45.047,12.665.222,19.05Z"/>
  <path class="cls-1" d="M455.54,761.162H468.2v12.72c-1.86.435-3.984.136-6.073.185-2.137.051-4.277.011-6.584.011Z"/>
  <path class="cls-1" d="M71.452,296.907V284.25h12.72c.436,1.86.136,3.984.185,6.073.051,2.137.012,4.277.012,6.584Z"/>
  <path class="cls-1" d="M738.286,237.249v12.658H726.563c-.431-1.861-.134-3.985-.183-6.075-.05-2.137-.011-4.277-.011-6.583Z"/>
  <path class="cls-1" d="M579.531,642.166h12.675v11.819c-1.911.029-4.009.074-6.107.09-2.137.016-4.274,0-6.568,0Z"/>
  <path class="cls-1" d="M663.447,642.9v-19.65h5.762c.365,6.364.05,12.922.186,19.65Z"/>
  <path class="cls-1" d="M853.2,309H840.542v-8.724c1.859-.43,3.982-.134,6.07-.183,2.137-.05,4.276-.011,6.583-.011Z"/>
  <path class="cls-1" d="M766.463,297.923v-3.689h28.563c.693,1.007.314,2.279.194,3.689Z"/>
  <path class="cls-1" d="M580.522,49.175h4.693V70.844c-1.366.514-2.959.177-4.693.179Z"/>
  <path class="cls-1" d="M7.208,342.989H1.529V331.333H7.208Z"/>
  <path class="cls-1" d="M817.1,295.246a1.405,1.405,0,0,1-.026,1.664H796.639a1.405,1.405,0,0,1,.026-1.664Z"/>
  <path class="cls-1" d="M659.447,643.44V630.486c.764-.828,1.668-.107,2.821-.757.037,2.419.082,4.512.1,6.606.016,2.134,0,4.269,0,6.25C661.526,643.5,660.623,642.777,659.447,643.44Z"/>
  <path class="cls-1" d="M853.273,310.25v1.657H840.464V310.25Z"/>
  <path class="cls-1" d="M817.369,299.078h-21a.763.763,0,0,1,.787-.982q9.713-.04,19.425,0A.764.764,0,0,1,817.369,299.078Z"/>
  <path class="cls-1" d="M639.317,559.078V537.216h-38.86v36.742h-7.05v-9.864H558.541v-4.715c4.041-3.284,6.471-8.388,10.954-11.744V482.114h22.692V460.2c3.057-.244,5.964-.064,9.044-.138v10.784h30.031c.063-1.114.126-2.234.2-3.562h75.844v31.6h61.959v-48.62H755.1a4.924,4.924,0,0,1-.556-.522.807.807,0,0,1-.166-.426c-.008-9.305-.007-18.609-.007-28.075h30.759v84.882c-5.041,2.99-10.342,5.974-15.476,9.221-6.716,4.247-13.8,7.854-20.426,12.274-4.372,2.919-9.186,5.166-13.719,7.853-6.03,3.574-12,7.244-17.953,10.954-2.377,1.482-4.989,2.456-7.32,4.123-3.643,2.6-7.777,4.509-11.627,6.837a10.633,10.633,0,0,1-5.8,1.739C675.153,559.043,657.5,559.078,639.317,559.078Zm116.21-136.923v26.923c2.457,0,4.762,0,7.066,0,2.266,0,4.531-.007,6.942-.011V436.078c2.636,0,5.109.041,7.581-.011,2.423-.051,4.876.238,7.079-.148V422.155Z"/>
  <path class="cls-2" d="M484.284,319.251v96.655H378.87c-.768-4.135-1.06-78.729-.34-96.655Zm-90.756,24.9v38.879c7.717.189,15.295-.168,23.013.216v14.83c9.8,0,19.437,0,29.069-.007a.8.8,0,0,0,.425-.17,4.729,4.729,0,0,0,.515-.556v-14.3h22.636v-38.9Z"/>
  <path class="cls-1" d="M139.369,390.078v-14.46a2.306,2.306,0,0,0-.33-.358.787.787,0,0,0-.421-.174c-15.28-.008-30.559-.008-46.044-.008v-16h61.8v31Zm-45.91-16.16h59.91c0-2.463.045-4.771-.013-7.077-.057-2.26.257-4.554-.179-6.6H93.459Zm47.079,1.242v13.918c2.3,0,4.444.039,6.581-.011,2.091-.048,4.215.245,6.08-.182V375.16Z"/>
  <path class="cls-1" d="M753.369,372.078c-1.259,1.539-3.163,1.724-4.865,1.927-2.239.267-4.119,1.309-6.135,2.073-1.827-.348-3.381.686-4.514,1.227-1.521-.565-2.318-1.162-2.466-2.18a68.841,68.841,0,0,0-3.611-12.993c-.488-1.38.008-2.516-.777-4.221a9.414,9.414,0,0,0,7.225-1.413c1.388-.9,3.477.887,4.143-1.42,2.184.694,4.2-.425,5.992-1.128,3.052-1.2,6.29-1.466,9.356-2.572a68.528,68.528,0,0,1,9.461-2.412,64.539,64.539,0,0,0,7.953-2.352c1.5-.517,2.851-.251,4.238-.536-1.61,2.167-4.235,2.363-6.477,2.914-6.182,1.518-12.317,3.146-18.4,5.03-5.19,1.607-10.583,2.556-15.778,4.147-1.824.558-4.2.4-5.34,2.552,1.716,4.646,2,9.73,4.461,14.438,1.09-.5,2.223.055,3.615-.51C745.227,373.114,749.087,371.474,753.369,372.078Z"/>
  <path class="cls-1" d="M446.271,287.252V289.9h-29.8v-2.653Zm-1.075,1.826c-8.584-1.421-24.672-1.218-28.736,0H445.2Z"/>
  <path class="cls-1" d="M329.369,519.078h-1.75V513.29l2.712-2.124h4.7l2.232,2.988v4.523c-.558.718-1.283.272-1.9.4-.464-1.282.91-1.966,1.038-3.448-1.4-.139-.609-1.741-1.665-2.655-1.249,1.2-1.222-1.278-2.491-.858-.854.419-1.818.893-2.783,1.365.4,1.286-1.488,1.743-1.1,3.035A2.572,2.572,0,0,1,329.369,519.078Z"/>
  <path class="cls-1" d="M292.693,516.12c-1.5,2.017-3.337,2.174-5.236,3.6C288.956,517.109,288.956,517.109,292.693,516.12Z"/>
  <path class="cls-1" d="M278.016,524.176a6.468,6.468,0,0,1,5.1-2.859C282.026,523.092,280.4,523.934,278.016,524.176Z"/>
  <path class="cls-1" d="M777.82,556.115l-.927-1.057c-.717.648-1.273,1.692-2.383.669a2.5,2.5,0,0,1,3.663-1.393A1.308,1.308,0,0,1,777.82,556.115Z"/>
  <path class="cls-1" d="M764.868,564.086c-.459-.469-.919-.937-1.383-1.41.3-.822.669-1.042,2.531-1.483C766.808,562.38,763.546,562.681,764.868,564.086Z"/>
  <path class="cls-1" d="M315.369,705.078a3.437,3.437,0,0,1-5,0Z"/>
  <path class="cls-1" d="M771.344,574.235c-1.087-.737-2.429-1.171-1.727-3.115A2.7,2.7,0,0,1,771.344,574.235Z"/>
  <path class="cls-1" d="M765.393,563.922c1.088.737,2.429,1.171,1.727,3.114A2.7,2.7,0,0,1,765.393,563.922Z"/>
  <path class="cls-1" d="M125.393,644.922c1.088.737,2.429,1.171,1.727,3.115A2.7,2.7,0,0,1,125.393,644.922Z"/>
  <path class="cls-1" d="M300.369,533.577c.821-.576,1.231-1.971,2.788-1.316.205.945-.729,1.212-1.178,1.633A1.08,1.08,0,0,1,300.369,533.577Z"/>
  <path class="cls-1" d="M308.525,529.1c-.737,1.088-1.171,2.43-3.114,1.727A2.7,2.7,0,0,1,308.525,529.1Z"/>
  <path class="cls-1" d="M308.212,529.054c.737-1.088,1.171-2.429,3.115-1.727A2.7,2.7,0,0,1,308.212,529.054Z"/>
  <path class="cls-1" d="M753.369,372.078c-4.282-.6-8.142,1.036-11.922,2.571-1.392.565-2.525.007-3.615.51-2.463-4.708-2.745-9.792-4.461-14.438,1.138-2.15,3.516-1.994,5.34-2.552,5.195-1.591,10.588-2.54,15.778-4.147,6.086-1.884,12.221-3.512,18.4-5.03,2.242-.551,4.867-.747,6.477-2.914q-.039-1.038,1-1c-.114.632.268.923.791.991,3.127.408,5.81-1.146,8.746-2.105,2.805,3.281,2.178,7.772,4.115,11.322.8,1.458.33,3.12.275,4.369-4.778,1.656-9.354,2.59-13.815,3.892-6.85,2-13.693,3.97-20.641,5.618C757.6,369.7,754.978,369.916,753.369,372.078Z"/>
  <path class="cls-1" d="M753.369,372.078c1.609-2.162,4.229-2.381,6.471-2.913,6.948-1.648,13.791-3.618,20.641-5.618,4.461-1.3,9.037-2.236,13.815-3.892.055-1.249.52-2.911-.275-4.369-1.937-3.55-1.31-8.041-4.115-11.322-2.936.959-5.619,2.513-8.746,2.105-.523-.068-.9-.359-.791-.991l11.653-3.122c1.116,6.538,3.912,12.414,4.388,18.793-4.453,1.248-8.631,2.4-12.8,3.593-4.314,1.229-8.6,2.549-12.933,3.72-4.35,1.175-8.83,1.952-13.056,3.455C756.106,372.055,754.756,371.766,753.369,372.078Z"/>
  <path class="cls-1" d="M269.369,591.09v13.75c-2.194.5-4.481.164-6.731.225-2.3.061-4.613.013-7.093.013V591.255C260.033,590.882,264.7,591.144,269.369,591.09Z"/>
  <path class="cls-1" d="M294.543,699.164H308.2v13.718c-2.023.451-4.312.124-6.563.183-2.305.06-4.612.013-7.089.013Z"/>
  <path class="cls-1" d="M176.369,645.175v13.654c-2.023.5-4.146.185-6.23.237-2.139.054-4.281.012-6.594.012v-13.8c2.016-.46,4.3-.133,6.552-.183C172.194,645.049,174.294,645.143,176.369,645.175Z"/>
  <path class="cls-1" d="M232.54,730.162H245.2v12.72c-1.86.435-3.984.136-6.073.185-2.137.051-4.277.011-6.584.011Z"/>
  <path class="cls-1" d="M117.456,481.9v-12.65h12.71c.452,1.851.14,3.974.191,6.06.053,2.138.012,4.279.012,6.59Z"/>
  <path class="cls-1" d="M184.205,650.992h-6.673v-5.664h6.673Z"/>
  <path class="cls-1" d="M276.286,599.246v5.665h-5.66v-5.665Z"/>
  <path class="cls-1" d="M315.369,705.078h-5v-4.425c2.3-1.888,2.3-1.888,5-.183Z"/>
  <path class="cls-1" d="M462.276,244.235v6.686H400.629v-6.686Z"/>
  <path class="cls-1" d="M594.452,315.912V303.245h12.895c.007,1.9.017,4,.021,6.091,0,2.138,0,4.275,0,6.576Z"/>
  <path class="cls-1" d="M594.449,301.909v-5.661h4.662v5.661Z"/>
  <path class="cls-1" d="M447.2,629H400.54V614.554c4.038-.691,32.2-.9,46.657-.312Z"/>
  <path class="cls-1" d="M399.541,628.984h-6.016V607.541c4.266-.683,43.988-.908,59.667-.309V628.79c-1.314.737-2.939,0-4.665.409V613.324H399.541Z"/>
  <path class="cls-1" d="M530.283,607.243v12.671H511.389c-.006-1.906-.016-4-.02-6.1,0-2.138,0-4.277,0-6.576Z"/>
  <path class="cls-1" d="M516.452,435.912V421.245h13.76a50.662,50.662,0,0,1,.146,7.092c.049,2.469.011,4.941.011,7.575Z"/>
  <path class="cls-1" d="M362.278,644.248v6.661h-29.7c-.5-2.009-.048-4.264-.27-6.661Z"/>
  <path class="cls-1" d="M345.285,630.25v12.657h-12.72c-.435-1.86-.136-3.984-.185-6.073-.051-2.138-.011-4.278-.011-6.584Z"/>
  <path class="cls-1" d="M447.541,547.162H461.2v11.724c-2.028.441-4.317.121-6.57.179-2.3.059-4.61.013-7.085.013Z"/>
  <path class="cls-1" d="M493.452,441.908v-11.66h13.805c.034,1.727.088,3.651.107,5.576.02,1.973.005,3.945.005,6.084Z"/>
  <path class="cls-1" d="M705.282,422.242v10.673H694.511c-.044-1.574-.113-3.338-.137-5.1-.025-1.8,0-3.608,0-5.569Z"/>
  <path class="cls-1" d="M400.463,631.909v-1.662h46.811v1.662Z"/>
  <path class="cls-1" d="M507.2,429h-5.663v-6.624c.6-.736,1.66-.189,2.585-.275.963-.089,1.94-.02,3.078-.02Z"/>
  <path class="cls-1" d="M755.527,422.155H784.2v13.764c-2.2.386-4.656.1-7.079.148-2.472.052-4.945.011-7.581.011v12.989c-2.411,0-4.676.009-6.942.011-2.3,0-4.609,0-7.066,0Z"/>
  <path class="cls-1" d="M355.869,376.078h11.987c.758,4.335,1.008,49.812.359,66.824H355.851C355.178,439.056,355.167,380.252,355.869,376.078Z"/>
  <path class="cls-1" d="M186.529,360.168h12.679v28.888c-1.912.007-4.009.018-6.106.021-2.139,0-4.279,0-6.573,0Z"/>
  <path class="cls-1" d="M278.54,410.168h5.675v9.667h24.991v-9.509h6.012v13.515H278.54Z"/>
  <path class="cls-1" d="M308.281,410.24v8.676H285.493c-.336-2.7.02-5.616-.178-8.676Z"/>
  <path class="cls-1" d="M186.533,345.164H199.2v13.891c-1.907.007-4,.018-6.1.022-2.138,0-4.276,0-6.574,0Z"/>
  <path class="cls-1" d="M338.284,473.25v11.657h-13.8c-.035-1.724-.088-3.647-.107-5.571-.019-1.972,0-3.945,0-6.086Z"/>
  <path class="cls-1" d="M315.087,407.251a1.408,1.408,0,0,1,.008,1.654H278.65a1.408,1.408,0,0,1-.007-1.654Z"/>
  <path class="cls-1" d="M329.369,519.078a2.572,2.572,0,0,0-1-2.561c-.392-1.292,1.5-1.749,1.1-3.035.965-.472,1.929-.946,2.783-1.365,1.269-.42,1.242,2.059,2.491.858,1.056.914.267,2.516,1.665,2.655-.128,1.482-1.5,2.166-1.038,3.448Z"/>
  <path class="cls-1" d="M393.528,344.153h75.658v38.9H446.55v14.3a4.729,4.729,0,0,1-.515.556.8.8,0,0,1-.425.17c-9.632.008-19.265.007-29.069.007v-14.83c-7.718-.384-15.3-.027-23.013-.216Zm51.82,37.758h23.021c0-12.126,0-24.087-.007-36.048a.885.885,0,0,0-.151-.433.7.7,0,0,0-.187-.208H394.6V382.2h22.907v14.722h27.843Z"/>
  <path class="cls-1" d="M93.459,373.918v-13.68h59.718c.436,2.049.122,4.343.179,6.6.058,2.306.013,4.614.013,7.077Z"/>
  <path class="cls-1" d="M140.538,375.16H153.2v13.725c-1.865.427-3.989.134-6.08.182-2.137.05-4.277.011-6.581.011Z"/>
  <path class="cls-1" d="M445.2,289.078H416.46C420.524,287.86,436.612,287.657,445.2,289.078Z"/>
  <path class="cls-1" d="M445.348,381.911v15.013H417.505V382.2H394.6v-36.98h73.426a.7.7,0,0,1,.187.208.885.885,0,0,1,.151.433c.007,11.961.007,23.922.007,36.048Z"/>
  <text class="cls-3" transform="translate(62.759 352.121)">C</text>
  <text class="cls-3" transform="translate(423.358 376.078)">B</text>
  <text class="cls-3" transform="translate(817.389 352.122)">A</text>
</svg>
