<svg id="Layer_1" data-name="Layer 1" xmlns="http://www.w3.org/2000/svg" viewBox="0 0 1012.813 944.888">
  <defs>
    <style>
      .cls-1 {
        fill: #0c293b;
      }

      .cls-1, .cls-2 {
        stroke: #1cfce5;
        stroke-miterlimit: 10;
      }

      .cls-2 {
        fill: #0d4e54;
      }

      .cls-3 {
        font-size: 30px;
        fill: #fff;
        font-family: MyriadPro-Regular, Myriad Pro;
      }
    </style>
  </defs>
  <path class="cls-1" d="M230.323,377.546h27.5a2.336,2.336,0,0,1,.346.358.865.865,0,0,1,.148.435q.009,50.248.014,100.5c0,.138.128.277.268.564h17.634V464.665h49.9v7.3c4.082.783,88.111.8,92.169-.3H327.458v-7.057h112.7c-1.678-.565-.633-.134-.98-.7-.085-.138-.231-.342-.349-.342q-31-.022-62.028-.014a2.442,2.442,0,0,1-.317-.356.89.89,0,0,1-.154-.433c-.007-8.639-.006-17.278-.006-26.092H448.1V327.192c.744-.623,1.31-1.51,1.97-1.586,5.473-.633,10.543-2.785,15.773-4.258,2.936-.827,5.923-1.947,8.863-2.613,2.9-.655,5.716-1.691,8.574-2.405,4.148-1.036,8.269-2.5,12.4-3.758,4.746-1.445,9.6-2.556,14.324-4.056,7.979-2.532,16.069-4.661,24.1-6.989,4.768-1.382,9.392-3.267,14.346-4,.923-.136,1.416-1.338,2.679-1.1,1.727-5.434,3.441-10.885,5.191-16.323,2.225-6.911,4.418-13.842,6.527-20.779,1.845-6.068,4-12.06,5.486-18.246.829-3.46,2.27-6.731,3.221-10.173,1.351-4.889,3.172-9.582,2.831-14.849-.322-4.979-.069-10-.069-15a2.454,2.454,0,0,1,.346-.352.837.837,0,0,1,.43-.158c11.64-.007,23.28-.007,35.071-.007v-32.9H582.394v-32.9H572.335v59.643h-7.883v24.059H494.4v51.991H406.507V250.818c-2.226-.5-4.358-.213-6.455-.261-2.141-.049-4.284-.011-6.6-.011v-6.9H386.4v-7.9H368.336V346.377h-57.77V308.65h7.544V228.657h-9.6V409.983c-4.167.765-27.625.968-40.046.37v-23.7h-9.01V348.6H268.3V198.546h5.03c12.833,0,25.667-.073,38.5.043a31.994,31.994,0,0,0,11.7-1.959c6.223-2.31,12.812-3.676,18.94-6.187,7.6-3.115,15.5-5.25,23.187-8.01,8.417-3.022,16.948-5.707,25.345-8.8,8.251-3.036,16.609-5.825,25.007-8.475a15.026,15.026,0,0,1,4.73-.575q47.248-.08,94.5-.04h5.085v-5.207q0-52.5-.045-105c0-2.3.1-4.621,1.141-6.533,1.1-2.013.394-4.378,1.834-6.277.58-.765.056-2.05.669-3.208,2.165-4.1,3.909-8.427,6.466-12.306a57.809,57.809,0,0,1,16.3-16.04c4.784-3.2,10.32-5.463,15.846-7.512a33.828,33.828,0,0,1,13.2-1.94c3,.1,6.005-.1,9,.046C590.1.842,595.28,1.813,600.1,4.5c4.32,2.41,8.976,4.16,13.117,6.982,2.78,1.894,4.684,4.6,7.226,6.665,4.717,3.83,7.083,9.463,10.765,14.091,1.539,1.933,1.747,4.9,2.675,7.349,1.987,5.25,3.024,10.759,4.366,16.177.466,1.885.074,3.982.074,5.982v10.62H822.616L954.322,204.075V304.3H911.469V236.633H919.1c-1.634-.575-.586-.115-.9-.7-.075-.14-.228-.341-.347-.342-3.842-.026-7.684-.032-11.526-.041-4.31-5.387-9.619-9.808-14.311-14.826-2.554-2.732-5.6-5-7.689-8.174V194.522h-27.19l-48.867-48.867V123.983l-14.125-21.214H751.2v8.919H669.3c.085.81-.185,1.351.634,1.858,29.031,0,58.332,0,87.633.007a.814.814,0,0,1,.425.171,4.981,4.981,0,0,1,.521.565v7.31h7.713v34.428c3,1.611,18.728,17.2,21.172,20.941l-9.146,9.16c8.854,8.854,17.425,17.426,26.418,26.418h7.655V344.634q-44.425.132-88.9.088V361.6H738.41V464.322l19.706,19.628v48.464H624.2V521.709h-9.7c-.612,13.5-.4,36.878.4,41.03h31.3v87.9H614.471v33.634c.287.14.426.267.565.267q36.249.014,72.5.015a.873.873,0,0,1,.434.149,4.693,4.693,0,0,1,.533.506v71.234H702.33l8.089-16.04V675.746h26.9c0,15.851,0,31.5.01,47.156a.681.681,0,0,0,.248.389,2.237,2.237,0,0,0,.545.23V674.546c-9.087,0-18.061,0-27.035-.006a.822.822,0,0,1-.428-.164c-.132-.092-.228-.235-.155-.156V546.546h5.13q55.248,0,110.5,0c3.557,0,7.1.132,10.6-.952,4.32-1.337,8.8-2.155,13.164-3.285,6.324-1.636,12.665-3.2,19-4.8,4.381-1.1,8.773-2.165,13.147-3.28,6.178-1.575,12.4-3.013,18.536-4.726,3.877-1.082,7.928-1.581,11.631-3.332V508.662c-2.566-.783-5.35-1.1-7.52-2.426a34.286,34.286,0,0,0-9.059-3.449c-3.319-.9-6.378-2.427-9.639-3.413a89.974,89.974,0,0,1-12.244-4.168,61.084,61.084,0,0,0-9.065-3.412c-3.295-.94-6.374-2.432-9.635-3.417-4.118-1.245-8.408-2.318-12.261-4.128a63.391,63.391,0,0,0-9.044-3.47c-3.281-.958-6.493-2.22-9.624-3.4-5.037-1.9-10.328-3.067-15.206-5.551-3.527-1.8-7.636-2.452-11.474-3.613V438.459h23.736V389.4h-8.853V344.634q63-.132,126-.088v43.965c-7.923.075-15.858.024-23.792.033q-12,.015-24,0H866.47v49.78h17.8v-23.59h72.682l55.364,55.379v47.132c-5.835,7.427-10.553,15.866-16.54,23.434-2.419,3.057-4.114,6.683-6.5,9.776-3.96,5.142-7.179,10.782-11.16,15.919-3.071,3.963-5.514,8.407-8.531,12.449-4.055,5.434-7.407,11.356-11.591,16.726-1.285,1.649-2.614,3.244-4.009,4.9h-73.51V584.785h-26.06v15.7H798.356v61.885H782.332c-.019,6.073,0,11.976-.011,18.059H798.1V723.01L710.52,810.592H638.379v63.929H632.5V895.4h5.681v31.061h-81.8v17.894H509.649c.084.077-.059-.018-.151-.149a.81.81,0,0,1-.168-.426c-.008-5.641-.007-11.283-.007-17.1H444.554V892.624h6.568v-21.06h-6.635V858.21L420.8,834.523H234.447V726.77h-52.06v31.583H35.834c-.767-3.95-1.047-61.656-.331-77.656h4.583V559.68h-8.7v14.763H.5V547.871l39.95-39.95V399.566h46.7V382.683H63.429v-7.061H55.368v-7.891H40.877c-.759-4.241-1-46.2-.353-59.053H108.1v-9.06H91.52V244.64H258.164v63.778h8.022v38.06h-7.825v11.068H230.323q0-24.109-.006-48.221a.868.868,0,0,0-.155-.429,2.448,2.448,0,0,0-.314-.35h-1.525V274.72c-16.94-.7-89.678-.422-94,.344v217.67h7.816v49.855h-7.631V680.546q74.709,0,149.049.007a.809.809,0,0,1,.426.165,2.381,2.381,0,0,1,.34.354v46.474q0,24.729.013,49.458c0,.122.188.262.313.363.518.42.159-.636.674,1.081v-50.9c2.175,2.843,2.157,2.9,5.768,3.957a11.27,11.27,0,0,1,2.683.816,3.954,3.954,0,0,0,3.682-.294,9.28,9.28,0,0,1,3.87-1.587,3.329,3.329,0,0,0,2.875-2.872,7.953,7.953,0,0,1,1.292-3.487,4.618,4.618,0,0,0,.091-4.873,35.2,35.2,0,0,1-1.616-5.792l-5.721-2.947h-3.695V680.7h39.922V788.374h37.849q0-99.705.007-199.066a.81.81,0,0,1,.168-.425,2.236,2.236,0,0,1,.35-.331h68.981l15.859,15.859h6.753V524.564h35.01c3.852-2.522,6.8-5.726,10.4-8.2,2.418-1.664,4.761-3.923,4.424-7.749a39.539,39.539,0,0,0-12.928-4.374l-1.3-1.5H390.265v31.675H327.672c-3.444-2.637-7.132-5.186-10.813-7.547-6.867-4.4-13.424-9.257-20.235-13.734a13.626,13.626,0,0,0-7.958-2.615q-34.992.081-69.985.01c-1.437,0-2.943.373-4.209-.285v-57.7c2.784,0,5.425.036,8.064-.01a70.839,70.839,0,0,0,7.787-.133V377.546Zm724,153c.122.609-.3,1.315.333,1.841.97-.022,2.276,1.036,2.667-.841,1.723-1.233,1.875-3.408,3-5,1.7-.312.97-2.242,2-3,1.723-1.233,1.875-3.408,3-5,1.723-1.233,1.875-3.408,3-5,1.723-1.233,1.875-3.408,3-5,1.7-.312.97-2.242,2-3a11.264,11.264,0,0,0,3.114-6.257,6.445,6.445,0,0,0-5.114-2.743c-.313-1.7-2.242-.969-3-2a10.984,10.984,0,0,0-5.289-2.955c-.632-.2-1.707-.363-1.711.955-1.808,1.988-3.171,4.165-3,7h-1.435c-.906,1.544-1.873,3.071-1.565,5h-1.76c-.08,1.627-1.617,2.5-1.24,4-1.927.469-.619,2.016-1,3h-1.435c-.906,1.544-1.873,3.071-1.481,5h-1.624c-1.214,2.464-2.435,4.94-3.633,7.37,2.418,1.874,3.737,2.166,4.044,1-.338-.849-1.85.24-1.868-1.145.793-2.484,2.714-4.514,3-7.224,2.267-.906,2.646-2.945,3-5,1.927-.468.619-2.015,1-3h1.76c.08-1.626,1.617-2.5,1.24-4,1.723-1.233,1.875-3.408,3-5,1.808-1.987,3.171-4.164,3-7a4.334,4.334,0,0,1,2.213.591c1.439.79,2.948,1.8,4.787,1.409v2h3v1.519l4,1.946a6.775,6.775,0,0,0-2,5.535h-2v3h-1.435c-.906,1.544-1.873,3.071-1.565,5h-1.435c-.906,1.544-1.873,3.071-1.565,5h-1.435c-.906,1.544-1.873,3.071-1.565,5h-2v3h-1.435c-.906,1.544-1.873,3.071-1.565,5-1.274.49-1.937-.855-3-1-.313-1.7-2.242-.969-2.5-2.122l-3.583-1.885c.118.907.174,1.342.245,1.885a21.356,21.356,0,0,1,2.835.122v2ZM773.209,215.882l-12.33-12.33c-3.436,3.189-6.815,6.982-10.454,10.246l-22.2-22.2V150.661h-9.169l-7.276,3.718H640.37c-.172-6.721.129-13.295-.171-19.64h-9.924V218.6h-34c.28,5.781.008,11.09,1.815,16.55a47.763,47.763,0,0,1,2.36,16.087c-.355,15.3-.122,30.616-.122,45.533,5.387,9.487,8.8,19.5,14.114,28.742v59.109h16.886c0,6.338.061,12.326-.033,18.312a7.288,7.288,0,0,0,2,5.749c.193-2.877-1.351-5.181-1.041-7.79a72.312,72.312,0,0,0,.075-8.487v-7.98h38.123V278.546c8.158,0,15.982.016,23.8-.013a8.911,8.911,0,0,1,4.106.967c7.063,3.44,13.926,7.264,21.282,10.15,5.149,2.02,9.909,5.026,14.859,7.558a11.455,11.455,0,0,0,5.442,1.39c17.324-.09,34.649-.052,51.974-.052H796.2V250.619h-9.3c-7.949-7.95-15.724-15.723-23.49-23.507-.09-.09-.067-.3-.079-.461s0-.333,0-.885ZM515.115,528.98c.62,2.371,2.408,1.706,2.632,1.487,2.246-2.2,5.512-2.017,8.039-3.694,2.365-1.57,5.361-2.189,8.455-3.37v9.266h8.226v53.888c6.07-.043,11.969.047,18.033-.062V532.519h15.871V480.49h95.018V432.459h16.7V414.414H638.667c-.647-1.42-1.206-2.644-1.8-3.942-1.181,1.47-.256,2.673.242,3.9-15.068.645-48.675.407-52.968-.4V342.652H578.26v15.894c-8.835,0-17.32,0-25.8,0a8.786,8.786,0,0,0-4.116.938c-5.653,2.812-11.224,5.779-17.112,8.148-5.566,2.238-10.849,5.175-16.269,7.778q-14.382,6.906-28.778,13.781a10.8,10.8,0,0,1-5.438,1.412c-3.436-.2-6.892-.054-10.3-.054v46.1h32.995V451.3h17.051V436.643h13.643v84.263Zm151.116,201.4H570.487c-.629-15.424-.4-41.8.388-45.827.472-.042,1.012.154,1.328-.385v-9.525H514.914l-43.97-43.971H434.235v50.988H419.552v109.85l.771.015v-92.8h26.012v7.871h7.879v95.569c-1.993,1.994-3.908,3.849-5.754,5.772a58.151,58.151,0,0,0-5.5,5.76c3.864,3.865,7.466,7.534,11.143,11.125,3.759,3.671,7.242,7.643,11.21,10.892l23.166-23.167v-71.9h156.3c3.254,5.247,4.661,11.382,8.737,15.755h12.708ZM76.489,534.63v40.962c7.391-.2,14.622.189,21.668-.22V534.63Zm2.843,192.741h16.01v-7.857h7.883v-16.8h-31.9c0,2.966-.011,5.769,0,8.571.014,2.763-.065,5.533.064,8.433h7.942ZM735.153,567.74l-.83-.035q0,38.137.013,76.276c0,.124.179.262.3.37.491.451.169-.606.521.633ZM715.24,497.713H699.323c0,2.8-.037,5.439.011,8.076a69.35,69.35,0,0,0,.116,7.591h15.79Z"/>
  <path class="cls-2" d="M938.323,344.546h-126v-132h72c2.091,3.169,5.135,5.442,7.689,8.174,4.692,5.018,10,9.439,14.311,14.826h-4.814a48.983,48.983,0,0,0-.175,7.256c-.05,2.47-.011,4.942-.011,7.581h4.8v60.066h32.2Zm-63.171-58V265.794H827.478v35.753c5.391,0,10.623,0,16.014,0v-15Z"/>
  <path class="cls-2" d="M134.323,430.546v-122h16c0,2.977-.018,5.619,0,8.26.023,2.59-.1,5.192.055,7.557h17.975V308.546h61.49a2.448,2.448,0,0,1,.314.35.868.868,0,0,1,.155.429q.009,24.111.006,48.221H208.511c-.416,6.545-.064,13.109-.226,20h22.038v53h-41c0-2.781.038-5.254-.011-7.726a51.567,51.567,0,0,0-.143-7.1H173.323c0,2.645.045,5.122-.013,7.6-.056,2.417.264,4.868-.192,7.23Z"/>
  <path class="cls-1" d="M638.235,927.709v16.675h-80.85c-.135-2.562-.042-5.332-.058-8.093-.017-2.808,0-5.616,0-8.582Z"/>
  <path class="cls-1" d="M508.231,927.7v16.684H444.379c-.122-2.572-.038-5.345-.053-8.111-.015-2.806,0-5.612,0-8.573Z"/>
  <path class="cls-1" d="M40.418,398.391V383.7h45.9c0,2.257,0,4.691,0,7.125,0,2.472,0,4.943,0,7.565Z"/>
  <path class="cls-1" d="M609.234,168.722v21.649H582.476c-.359-7.029-.019-14.254-.193-21.649Z"/>
  <path class="cls-1" d="M225.823,358.546h31.946a2.276,2.276,0,0,1,.362.32.768.768,0,0,1,.184.417c.009,5.637.008,11.275.008,17.087H225.842C225.136,372.8,225.106,362.805,225.823,358.546Z"/>
  <path class="cls-1" d="M209.407,376.38V358.712H224c-.057-.061.077.047.163.185a.885.885,0,0,1,.153.432c.007,5.629.006,11.258.006,17.051Z"/>
  <path class="cls-1" d="M907.478,249.541h-5V236.788h7.67v67.663h-2.675Z"/>
  <path class="cls-1" d="M783.41,679.371V663.722h14.853c.153,2.371.032,4.971.055,7.558.023,2.64,0,5.279,0,8.091Z"/>
  <path class="cls-1" d="M385.24,236.713v13.666H369.511c-.429-2.039-.119-4.33-.175-6.588-.057-2.3-.013-4.61-.013-7.078Z"/>
  <path class="cls-1" d="M275.238,464.719v13.655h-15.72c-.448-2.027-.123-4.316-.182-6.568-.06-2.305-.013-4.613-.013-7.087Z"/>
  <path class="cls-1" d="M54.237,368.711v13.671h-13.9c0-2.076-.007-4.338-.009-6.6,0-2.3,0-4.608,0-7.071Z"/>
  <path class="cls-1" d="M450.163,891.456h-5.68V872.805h5.68Z"/>
  <path class="cls-1" d="M39.162,574.458H32.484V560.8h6.678Z"/>
  <path class="cls-1" d="M638.335,894.546H633.38c-.124-6.206-.021-12.427-.066-18.823h4.949C638.4,881.879,638.279,888.213,638.335,894.546Z"/>
  <path class="cls-1" d="M55.41,382.383V376.71h6.66v5.673Z"/>
  <path class="cls-1" d="M386.485,244.634h5.676V250.3h-5.676Z"/>
  <path class="cls-1" d="M79.332,727.371v-7.654H71.39c-.129-2.9-.05-5.67-.064-8.433-.014-2.8,0-5.605,0-8.571h31.9v16.8H95.342v7.857Zm22.815-8.907V703.546c-9.8,0-19.43,0-29.058.007a.814.814,0,0,0-.426.165c-.132.091-.228.233-.164.165v14.581Zm-8,8v-6.921c-2.473,0-4.778-.044-7.08.013-2.255.056-4.543-.254-6.574.175v6.733Z"/>
  <path class="cls-1" d="M735.153,567.74v77.244c-.352-1.239-.03-.182-.521-.633-.117-.108-.3-.246-.3-.37q-.02-38.137-.013-76.276Z"/>
  <path class="cls-1" d="M715.24,497.713V513.38H699.45a69.35,69.35,0,0,1-.116-7.591c-.048-2.637-.011-5.275-.011-8.076Zm-1.079,14.745V498.546c-2.46,0-4.764,0-7.067,0-2.264,0-4.528.007-6.609.01v13.9Z"/>
  <path class="cls-1" d="M284.323,727.546h1v50.9c-.515-1.717-.156-.661-.674-1.081-.125-.1-.313-.241-.313-.363Q284.315,752.275,284.323,727.546Z"/>
  <path class="cls-1" d="M948.407,516.546c-.367,2.71-2.288,4.74-3.081,7.224.018,1.385,1.53.3,1.867,1.146-.306,1.166-1.625.874-4.043-1,1.2-2.43,2.419-4.906,3.633-7.37Z"/>
  <path class="cls-1" d="M973.323,505.546a6.775,6.775,0,0,1,2-5.535l-4-1.946v-1.519a6.445,6.445,0,0,1,5.114,2.743A11.264,11.264,0,0,1,973.323,505.546Z"/>
  <path class="cls-1" d="M951.323,511.546c-.354,2.055-.733,4.094-3,5-.308-1.929.659-3.456,1.565-5Z"/>
  <path class="cls-1" d="M958.323,499.546c-.171-2.835,1.192-5.012,3-7C961.494,495.382,960.131,497.559,958.323,499.546Z"/>
  <path class="cls-1" d="M968.323,494.546c-1.839.387-3.348-.619-4.787-1.409a4.334,4.334,0,0,0-2.213-.591c0-1.318,1.079-1.152,1.711-.955A10.984,10.984,0,0,1,968.323,494.546Z"/>
  <path class="cls-1" d="M952.323,508.546c-.377-1.5,1.16-2.373,1.24-4h1.76c.377,1.5-1.16,2.374-1.24,4Z"/>
  <path class="cls-1" d="M971.323,508.546c-1.125,1.592-1.277,3.767-3,5-.308-1.929.659-3.456,1.565-5Z"/>
  <path class="cls-1" d="M968.323,513.546c-1.125,1.592-1.277,3.767-3,5-.308-1.929.659-3.456,1.565-5Z"/>
  <path class="cls-1" d="M958.323,499.546c-1.125,1.592-1.277,3.767-3,5-.308-1.929.659-3.456,1.565-5Z"/>
  <path class="cls-1" d="M962.323,523.546c-.308-1.929.659-3.456,1.565-5h1.435C964.2,520.138,964.046,522.313,962.323,523.546Z"/>
  <path class="cls-1" d="M957.323,531.546c-.308-1.929.659-3.456,1.565-5h1.435C959.2,528.138,959.046,530.313,957.323,531.546Z"/>
  <path class="cls-1" d="M960.323,526.546v-3h2C961.293,524.3,962.021,526.234,960.323,526.546Z"/>
  <path class="cls-1" d="M951.826,528.424h-3.338c-.071-.543-.127-.978-.245-1.885Z"/>
  <path class="cls-1" d="M954.323,530.546h-3v-2C952.081,529.577,954.01,528.849,954.323,530.546Z"/>
  <path class="cls-1" d="M954.323,530.546c1.063.145,1.726,1.49,3,1-.391,1.877-1.7.819-2.667.841C954.025,531.861,954.445,531.155,954.323,530.546Z"/>
  <path class="cls-1" d="M968.323,494.546c.758,1.031,2.687.3,3,2h-3Z"/>
  <path class="cls-1" d="M971.323,508.546v-3h2C972.293,506.3,973.021,508.234,971.323,508.546Z"/>
  <path class="cls-1" d="M951.323,511.546c.381-.984-.927-2.531,1-3C951.942,509.531,953.25,511.078,951.323,511.546Z"/>
  <path class="cls-1" d="M875.152,286.549h-31.66v15c-5.391,0-10.623,0-16.014,0V265.794h47.674Zm-.914-19.844H828.565v33.68h13.758c0-2.63-.039-5.1.011-7.575a48.043,48.043,0,0,1,.2-7.428h31.7Z"/>
  <path class="cls-1" d="M293.164,710.371c-2.573-.038-4.348,1.764-6.565,2.4-.2.577-.409,1.153-.619,1.745-.2-.112-.418-.179-.418-.245-.015-11.076-.015-22.153-.015-33.477h7.617Z"/>
  <path class="cls-1" d="M188.236,416.722v13.649H174.52c-.454-2.02-.124-4.308-.183-6.559-.062-2.3-.014-4.612-.014-7.09Z"/>
  <path class="cls-1" d="M724.489,345.631h13.668v14.73c-2.043.422-4.335.118-6.594.173-2.3.056-4.608.012-7.074.012Z"/>
  <path class="cls-1" d="M543.491,532.634h15.664v52.851c-2.381.155-4.983.033-7.574.056-2.641.024-5.283,0-8.09,0Z"/>
  <path class="cls-1" d="M568.484,480.635h6.678v50.71c-2.028.487-4.286,0-6.678.3Z"/>
  <path class="cls-1" d="M504.405,450.379V436.714h14.729c.431,2.039.12,4.329.176,6.586.058,2.3.013,4.61.013,7.079Z"/>
  <path class="cls-1" d="M420.406,697.38V682.713h13.76a50.662,50.662,0,0,1,.146,7.092c.05,2.47.011,4.941.011,7.575Z"/>
  <path class="cls-1" d="M447.406,705.38v-6.667h6.661v6.667Z"/>
  <path class="cls-1" d="M766.239,103.706v8.665H753.615l-1.2-1.395v-7.27Z"/>
  <path class="cls-1" d="M759.406,120.375v-6.657h6.72c.466,2.011.047,4.26.253,6.657Z"/>
  <path class="cls-1" d="M151.5,308.631H167.15v14.856c-2.376.151-4.977.032-7.566.054-2.639.023-5.278,0-8.088,0Z"/>
  <path class="cls-1" d="M102.147,718.464H72.5V703.883c-.064.068.032-.074.164-.165a.814.814,0,0,1,.426-.165c9.628-.007,19.256-.007,29.058-.007Z"/>
  <path class="cls-1" d="M94.15,726.467H80.5v-6.733c2.031-.429,4.319-.119,6.574-.175,2.3-.057,4.607-.013,7.08-.013Z"/>
  <path class="cls-1" d="M714.161,512.458H700.485v-13.9c2.081,0,4.345-.008,6.609-.01,2.3,0,4.607,0,7.067,0Z"/>
  <path class="cls-1" d="M874.238,266.705v18.677h-31.7a48.043,48.043,0,0,0-.2,7.428c-.05,2.472-.011,4.945-.011,7.575H828.565v-33.68Z"/>
  <text class="cls-3" transform="translate(167.15 376.38)">B</text>
  <text class="cls-3" transform="translate(874.238 332.177)">A</text>
</svg>
