<svg id="Layer_1" data-name="Layer 1" xmlns="http://www.w3.org/2000/svg" viewBox="0 0 946.687 890.978">
  <defs>
    <style>
      .cls-1 {
        fill: #0c293b;
      }

      .cls-1, .cls-2 {
        stroke: #1cfce5;
        stroke-miterlimit: 10;
      }

      .cls-2 {
        fill: #0d4e54;
      }

      .cls-3 {
        font-size: 30px;
        fill: #fff;
        font-family: MyriadPro-Regular, Myriad Pro;
      }
    </style>
  </defs>
  <path class="cls-1" d="M34.34,547.3a.769.769,0,0,1-.982-.794c-.055-1.331-.018-2.666-.018-4V464.42H48.118V447.361H33.532V383.51a57.58,57.58,0,0,0-15.189.672H32.207v14.912H17.193c0-4.536,0-8.988-.015-13.44,0-.118-.22-.236-.838-.858v14.358H.56V384.181H15.335c-2.389-1.109-4.834-.817-7.25-.868C5.61,383.26,3.132,383.3.5,383.3V363.535H16.432V382.67c.539-.644.883-.863.884-1.085.029-6.312.024-12.624.024-19.112H.588V296.416H41.12V278.357H.53V180.808c3.822-.731,32.7-.959,46.661-.324v14.7h7.06v9.06H63.31V239.3H80.34v21c2.977,0,5.62-.019,8.263,0,2.589.023,5.19-.1,7.737.069V307.3H79.572V344.39h59.821v15.8H156.34V320.3h59V360.32h12.8v39.032H79.541v64.021h56.893v16.78H153.34c0-2.28,0-4.42,0-6.56,0-.679.007-1.37,1-1.292a.763.763,0,0,0,.78.98q3.219.069,6.44,0a5.547,5.547,0,0,1,1.76-1.76q.069-3.219,0-6.44a.763.763,0,0,0-.98-.78c-.078-.991.614-1,1.292-1,11.137,0,22.274,0,33.509,0v72.074h-4.574V551.43H232.49v83.7h24.867V552.5h38.876c.379,5.058-.277,9.975.366,14.8.864.012,1.368.058,1.863-.728V552.548h66.049v14.775H380.39v15.85h8.052v-80H408.09V451.3H328.744l-35.763,35.8h-24.7V385.73c-.933-.923-2.173.135-3.049-1.1V347.544H231.178v11.662H216.529V239.415h12.887v91.753h67.039v-48h55.687c.617-12.512.4-47.8-.346-52.036h-95.48V215.249H240.262V171.527H208.211v15.7c-8.07.259-15.988-.16-23.871.233V239.3h-28V187.63c-2.146-.883-4.508.1-6.85-.536V140.527H280.25v52.566H416.277V.5h78.029V135.118H641c-.086.075.058-.016.152-.144a.789.789,0,0,0,.176-.422c.008-17.974.008-35.947.008-54.086H831.865c.662,3.907.879,42.839.261,54.835H789.567v8.928h5.73v15.052H888.34V194.3h-23v-9.78H796.445V239.3H838.34v96h-45.5c-.7,4.133-.957,93.127-.3,105.849h24.7V408.422H864.3v129.8c.551-1.748.161-.7.7-1.087.131-.1.327-.236.327-.357.014-42.662.014-85.324.014-128.232h13.889v126.67h31V590.11H849.1a4.978,4.978,0,0,0-.576.519.79.79,0,0,0-.176.422c-.008,8.308-.007,16.617-.007,25.1H863.1v16.059h-7.558V669.27h7.617V686.3l-7.114,0h-7.591v9.907H672.409v76.048H502.362V890.3h-7.029c-6.167,0-12.344-.231-18.5.057a134.854,134.854,0,0,1-24.556-1.287c-5.567-.763-11.071-.264-16.58-.892-.782-.675-.072-1.59-.551-2.479-.063-.044-.316-.375-.57-.377-4.833-.03-9.754-.6-14.476.129-5.39.826-10.756.486-16.1.974-2.486.228-4.9,1.286-7.523.606-.091-.816-.179-1.6-.285-2.564H373.585V783.413h3.537v-14H359.528v7.318c-4.409.818-123.911,1.123-140.04.383V736.537H197.465c-.07.773-.141,1.562-.237,2.624-5.325.743-10.548-1.646-15.888-.86.069-.921-.548-1-1.228-1H173.34a.766.766,0,0,0-.793-.982c-1.972-.045-3.946-.018-5.836-.018l-.757-2.084H136.462V608.379h31.763V598.49H162.09a4.955,4.955,0,0,1-.57-.52.8.8,0,0,1-.173-.423c-.008-20.636-.007-41.272-.007-62.077H104.667c.054-.055-.085.049-.172.187a.86.86,0,0,0-.149.434q-.011,15.243-.014,30.487c0,.14-.123.279-.259.571h-32.4c-.972-.958.206-2.462-.694-3.767H49.4V551.3c-3.82,0-7.291,0-10.763,0-.679,0-1.37-.008-1.292-1,1.37-1.006,1.37-1.994,0-3C36.334,545.931,35.346,545.931,34.34,547.3Zm376,85a3.437,3.437,0,0,0-5,0,.767.767,0,0,1-.982-.793c-.045-1.972-.018-3.946-.018-5.874-1.349-.27-2.12-.872-2.264-2.1H389.728c-.633.666.038,1.591-1.42,1.6V615.42H380.25v32.736H327.2V615.473H296.32v47.872H232.268V671.4H215.492v16.9c22.123,0,44.093,0,66.064.006a.875.875,0,0,1,.432.153,2.375,2.375,0,0,1,.353.318q0,19.543,0,39.025l7.367,7.367H482.453V708.459h19.812c.267,7.716-.185,15.3.251,22.658h94.863V646.51h19.054v16.554h32.056V646.3h70.594q34,0,67.991.011c1.69,0,3.473-.433,5.343,1.04V599.2H808.1V576.47h-4.772V583.1H773.463V551.526h30v6.718c1.758,0,3.354.341,5.053-.307V535.263h15.612v-47.92H807.8c-10.606,10.606-21.313,21.313-31.74,31.742h-47.83V468.542H664.356l-.015.759h22.8v30.88H624.02c-2.335-3.644-5.515-6.053-8.211-8.882-2.643-2.774-5.4-5.434-8.116-8.145l-8.114-8.114V407.147H620.34c0-2.816.018-5.46,0-8.1-.024-2.591.1-5.195-.082-7.937H608.276v-7.9h-8.788V339.3h4.062c7.5,0,15,.023,22.5-.033.8-.006,2.114.708,2.293-.967h12.912v-2H628.34c-.179-1.675-1.492-.962-2.294-.967-8.332-.054-16.665-.033-25-.033h-26.5V307.216h33.909V276.159h14.826a104.031,104.031,0,0,1,.873-10.718c.775-4.5.188-9.239.188-14.222H572.232V167.41H487.084c-6.336,7.615-12.51,15.036-18.925,22.748V243.2H416.274V231.436H381.219v72.012H328.34c0,23.481,0,46.788-.007,70.094a.8.8,0,0,1-.171.425,4.862,4.862,0,0,1-.565.522H312.454v16.894h16v27.671h16.058V387.4h54.878v31.777h9.058V395.168h48.109c-.627-1.4.454-2.733-.418-3.574-1.408-.641-2.626.167-3.841-.8V379.7q-10.124-10.113-19.77-19.746V335.41H519.41V364.4H535.1v27.056H476.47c-.071,1.423-.516,2.706.329,3.819.562.079,1.108-.136,1.608.736V406.4h8.783v44.9c-2.953,0-5.76-.011-8.567,0-2.77.014-5.547-.066-8.1.049v15.983h16.613v34.831H454.221V451.323c-1.094,4-1.085,48.049-.306,52.168H475.4v7.9h7.8v25.058h-30.68V551.2H568.388V537.427h24.056v60.724h147.9c0-7.954-.011-15.759,0-23.565.014-7.764-.063-15.532.045-23.108h31.85V631.1H568.268V583.525H483.217V639.3H425.131c-4.333,0-8.666.015-13-.015-.722,0-1.779.394-1.793-.985A4.771,4.771,0,0,0,410.34,632.3Zm255-239.056V435.14c18.243.7,58.9.428,63-.4.169-1.107-.413-2.3.512-3.509h15.587v-32.05h15.655V367.3H713.516c-.67-15.936-.422-51.884.405-56.189h30.3V295.221H728.475V232.179h11.011V189.307h6.191c4.707-3.724,7.2-9,11.815-12.477V144.117h6.657v-8.869H712.266V114.439h-8.05v53h-107.9c.111,6.734-.116,13.305.166,20.228l.718-.718c.117-.118.215-.279.357-.344a2.254,2.254,0,0,1,.875-.289q48.982-.019,97.967-.011a1.157,1.157,0,0,1,.478.048c.142.067.241.224.529.512v56.109c1.1.406,2.017.635,3.052-.258V232.546h26.725V310.3c-2.468,0-4.779.048-7.087-.014-2.257-.06-4.55.272-6.763-.226V291.826c-4.856-7.805-7.706-16.574-12.053-24.4h-4.031v16h-9.665a12.251,12.251,0,0,0-1.225,1.684c-2.358,4.852-4.251,9.994-7.116,14.523-4.163,6.58-7.224,13.711-11.1,20.424-2.391,4.147-4.432,8.5-6.653,12.8V339.3c2.784,0,5.425-.036,8.064.01a71.088,71.088,0,0,1,7.787.133v29.917Z"/>
  <path class="cls-2" d="M865.34,194.3h23c.178,1.673,1.49.964,2.29.967,11.823.047,23.646.033,35.469.033h20.076V228c-.908.922-2.4-.174-3.69.592V347.971c.912.958,2.4-.139,3.7.61V379.3c-5.8,0-11.734.083-17.664-.074a6.407,6.407,0,0,1-3.3-1.591c-5.235-4.065-10.926-7.508-16.192-11.473-5.587-4.206-11.387-8.129-16.943-12.385-4.226-3.238-8.669-6.282-13.1-9.286-3.532-2.394-7.21-4.587-10.369-7.475-.859-.786-2.238-.564-2.8-1.716H838.34v-96H848.5v15.848h16.84Zm20.081,108.831H900.34c0-10.128,0-20.087-.007-30.046a.869.869,0,0,0-.151-.432c-.086-.138-.222-.244-.165-.184h-14.6Z"/>
  <path class="cls-2" d="M215.34,320.3h-59V307.179H128.256V291.5H112.3v15.8H96.34V260.375c-2.547-.17-5.148-.046-7.737-.069-2.643-.024-5.286,0-8.263,0v-21H215.134v33.071H200.542v14.992h14.8Z"/>
  <path class="cls-1" d="M136.418,607.129V551.472h23.441c.72,4.145.949,40.138.317,55.657Z"/>
  <path class="cls-1" d="M181.34,738.3c.117.284.245.821.351.816,5.383-.213,10.6,1.787,16.006,1.175.139-.016.264-.16.5-.31l.27-2.483h19.772V751.12H136.451V735.492h28.661l.471,1.809h7.757c-.07.921.547,1,1.228,1Z"/>
  <path class="cls-1" d="M40.167,295.222H.513V279.784c3.964-.7,25.424-.891,39.654-.323Z"/>
  <path class="cls-1" d="M856.418,668.129V633.473h6.922v34.656Z"/>
  <path class="cls-1" d="M33.506,552.385H48.174v14.759a50.7,50.7,0,0,1-7.094.146c-2.47.05-4.941.011-7.574.011Z"/>
  <path class="cls-1" d="M47.254,448.465v14.671H33.494a51.576,51.576,0,0,1-.143-7.1c-.049-2.469-.011-4.94-.011-7.571Z"/>
  <path class="cls-1" d="M863.176,606.214H849.5v-14.9c2.078,0,4.34-.007,6.6-.009,2.3,0,4.607,0,7.07,0Z"/>
  <path class="cls-1" d="M48.5,180.386H63.175v13.76a51.73,51.73,0,0,1-7.1.144c-2.469.049-4.94.011-7.571.011Z"/>
  <path class="cls-1" d="M849.513,607.382h13.654v7.73c-2.03.432-4.318.119-6.573.176-2.3.058-4.607.013-7.081.013Z"/>
  <path class="cls-1" d="M849.507,687.383h13.665v7.909c-2.072,0-4.332.007-6.593.009h-7.072Z"/>
  <path class="cls-1" d="M147.175,188.034a1.4,1.4,0,0,1-1.67-.041V139.568a1.4,1.4,0,0,1,1.67.04Z"/>
  <path class="cls-1" d="M49.436,567.129v-2.656H70.244v2.656Z"/>
  <path class="cls-1" d="M62.178,203.213H55.5v-6.662h6.676Z"/>
  <path class="cls-1" d="M162.424,607.135v-7.668h4.666v7.668Z"/>
  <path class="cls-1" d="M37.34,550.3h-3v-3h3Z"/>
  <path class="cls-1" d="M628.34,338.3v-2h12.912v2Z"/>
  <path class="cls-1" d="M162.34,472.3a.764.764,0,0,1-.78.98q-3.219.069-6.44,0a.763.763,0,0,1-.78-.98Z"/>
  <path class="cls-1" d="M181.34,738.3h-6.772c-.681,0-1.3-.079-1.228-1h6.772C180.792,737.3,181.409,737.38,181.34,738.3Z"/>
  <path class="cls-1" d="M162.34,464.3a.763.763,0,0,1,.98.78q.069,3.219,0,6.44a.764.764,0,0,1-.98.78Z"/>
  <path class="cls-1" d="M410.34,632.3a4.771,4.771,0,0,1,0,6Z"/>
  <path class="cls-1" d="M405.34,632.3a3.437,3.437,0,0,1,5,0Z"/>
  <path class="cls-1" d="M37.34,547.3h-3C35.346,545.931,36.334,545.931,37.34,547.3Z"/>
  <path class="cls-1" d="M37.34,550.3v-3C38.71,548.307,38.71,549.295,37.34,550.3Z"/>
  <path class="cls-1" d="M885.421,303.132V272.47h14.6c-.057-.06.079.046.165.184a.869.869,0,0,1,.151.432c.007,9.959.007,19.918.007,30.046Zm1.085-29.747V302.3c2.3,0,4.444.039,6.583-.011,2.091-.05,4.217.251,6.085-.188V273.385Z"/>
  <path class="cls-1" d="M573.188,365.317h-9.621c-.41,6.977-1.732,13.726-1.245,20.6.117,1.646.018,3.307.018,5.173H536.461V307.538h36.727Z"/>
  <path class="cls-1" d="M483.248,537.459v12.683H453.365c-.008-1.916-.02-4.014-.024-6.113,0-2.139,0-4.277,0-6.57Z"/>
  <path class="cls-1" d="M599.507,392.384h19.666V406.17c-6.379.293-12.94.043-19.666.157Z"/>
  <path class="cls-1" d="M632.255,646.466v15.669h-14.79a70.468,70.468,0,0,1-.115-7.6c-.047-2.636-.01-5.274-.01-8.073Z"/>
  <path class="cls-1" d="M232.251,672.462v14.677H216.344c0-2.247,0-4.679,0-7.11,0-2.47,0-4.94,0-7.567Z"/>
  <path class="cls-1" d="M328.172,390.219H313.508v-14.76c2.209-.381,4.662-.1,7.086-.147,2.47-.051,4.942-.011,7.578-.011Z"/>
  <path class="cls-1" d="M633.422,662.13V646.472h13.787a67.07,67.07,0,0,1,.12,7.575c.049,2.638.011,5.277.011,8.083Z"/>
  <path class="cls-1" d="M486.257,452.471v13.66H471.531c-.438-2.033-.121-4.323-.178-6.578-.059-2.3-.013-4.611-.013-7.082Z"/>
  <path class="cls-1" d="M403.09,637.372c-1.832-.516-1.691.764-2,1.782h-10.4c-.6-.6-.3-2.265-2.161-1.932V626.454c.156-.343.961-.011,1.486-.328.215-.578.431-1.154.638-1.708h10.409a2.283,2.283,0,0,0,2.026,2.166Z"/>
  <path class="cls-1" d="M623.252,252.463v13.676H609.59V252.463Z"/>
  <path class="cls-1" d="M563.5,374.391h8.68v15.821c-2.714.2-5.618.034-8.68.1Z"/>
  <path class="cls-1" d="M609.508,267.382h12.663v7.895c-1.9.007-4,.019-6.089.023-2.136,0-4.273,0-6.574,0Z"/>
  <path class="cls-1" d="M483.166,510.215h-6.653V503.5c2.006-.476,4.255-.046,6.653-.257Z"/>
  <path class="cls-1" d="M564.5,366.386h7.671v5.665H564.5Z"/>
  <path class="cls-1" d="M607.258,384.469v5.664h-6.623c-.737-.6-.19-1.661-.275-2.586-.09-.965-.02-1.945-.02-3.078Z"/>
  <path class="cls-1" d="M405.34,632.3h5v6h-5Z"/>
  <path class="cls-1" d="M406.069,638.113c-1.671,1.55-2.648,1.453-3.69.761C403.208,637.754,404.374,638.531,406.069,638.113Z"/>
  <path class="cls-1" d="M388.84,639.3c-.466-.328-.466-.662,0-.99C389.306,638.634,389.306,638.968,388.84,639.3Z"/>
  <path class="cls-1" d="M192.67,421.128,171.992,400.45h57.222V361c.875-1.251,2.108-.221,3.057-1.106V348.5h31.974v72.631Z"/>
  <path class="cls-1" d="M256.173,634.21h-7.666V552.417c2.359-.274,4.933-.037,7.666-.139Z"/>
  <path class="cls-1" d="M152.254,463.465v15.672h-14.79a71.359,71.359,0,0,1-.114-7.6c-.047-2.636-.01-5.273-.01-8.071Z"/>
  <path class="cls-1" d="M365.425,566.136v-13.67h13.731c.418,2.046.117,4.337.172,6.6.055,2.3.012,4.608.012,7.073Z"/>
  <path class="cls-1" d="M241.423,230.129V216.473h13.723c.444,2.028.123,4.317.181,6.571.059,2.3.013,4.611.013,7.085Z"/>
  <path class="cls-1" d="M201.436,273.3H215.09c.5,2.023.186,4.145.238,6.23.053,2.139.012,4.28.012,6.594h-13.8c-.46-2.017-.133-4.3-.183-6.553C201.31,277.475,201.4,275.375,201.436,273.3Z"/>
  <path class="cls-1" d="M162.34,464.3v8h-8v-8Z"/>
  <path class="cls-1" d="M728.5,399.393h14.684v30.9l-7.117,0H728.5Z"/>
  <path class="cls-1" d="M743.34,296.441V310.1c-2.366.439-4.815.133-7.232.187-2.472.055-4.946.012-7.592.012V296.483A136.877,136.877,0,0,1,743.34,296.441Z"/>
  <path class="cls-1" d="M864.175,254.216h-14.67v-14.76a51.219,51.219,0,0,1,7.1-.144c2.47-.05,4.941-.011,7.573-.011Z"/>
  <path class="cls-1" d="M140.427,359.126v-14.65h14.747c.405,2.191.1,4.641.154,7.058.054,2.472.012,4.946.012,7.592Z"/>
  <path class="cls-1" d="M113.51,292.383h13.66v14.726c-2.033.438-4.323.122-6.578.179-2.3.058-4.611.013-7.082.013Z"/>
  <path class="cls-1" d="M886.506,273.385h12.668V302.1c-1.868.439-3.994.138-6.085.188-2.139.05-4.281.011-6.583.011Z"/>
  <text class="cls-3" transform="translate(160.545 286.125)">B</text>
  <text class="cls-3" transform="translate(900.34 246.738)">A</text>
</svg>
