<svg id="Layer_1" data-name="Layer 1" xmlns="http://www.w3.org/2000/svg" viewBox="0 0 945.4 1000.55">
  <defs>
    <style>
      .cls-1 {
        fill: #0c293b;
      }

      .cls-1, .cls-2 {
        stroke: #1cfce5;
        stroke-miterlimit: 10;
      }

      .cls-2 {
        fill: #0d4e54;
      }

      .cls-3 {
        font-size: 30px;
        fill: #fff;
        font-family: MyriadPro-Regular, Myriad Pro;
      }
    </style>
  </defs>
  <path class="cls-1" d="M96.686,373.7a.77.77,0,0,0-.794-.982c-1.331-.055-2.666-.018-4-.018H.833V341.92H40.625v15.586h16c.153-2.359.032-4.964.054-7.557.024-2.643.006-5.287.006-8.1H104.45V325.787H80.686v-4.5c0-13.833.131-27.668-.1-41.5-.051-3,1.415-5.651,1.1-8.588,1.869-1.369.549-3.406,1.154-5,1.991-4.223,5.279-7.524,8.106-11.134,2.465-3.147,6.246-4.694,9.825-6.345.275-.127.755.12.979-.037,5.136-3.586,11-2.985,16.77-2.985q106.5.012,212.991,0h5.04V197.763h-31.76V90.856a5.9,5.9,0,0,0,.968-1.414c2.541-7.106,5.423-14.094,7.861-21.234a18.177,18.177,0,0,1,6.49-9.234,21.156,21.156,0,0,0,3.374-2.606c6.045-6.572,13.483-11.672,19.374-18.393.8-.914,1.916-1.088,2.792-1.746A24.357,24.357,0,0,0,353.513,25c.822-2.183,1.96-4.2,2.694-6.33,1.616-1.675,3.673-1.667,5.732-2.073,3.066-.6,6.229-.548,9.252-1.745,1.982-.785,4.526.4,6.526-1.149,3.148.757,6.147-.6,9.05-1.174,8.387-1.675,16.771-.158,25.438-1l13.412-11c6.9.628,14.066,1.643,21.3,1.181,3.254,1.425,6.705.819,10.083,1.047,2.328.157,4.321,1.613,6.5,2.4,9.283,3.35,18.411,7.126,27.931,9.813a67.65,67.65,0,0,0,6.764,1.808,43.007,43.007,0,0,1,7.8,1.65,7.47,7.47,0,0,0,3.872.219c1.5-.3,2.127,1.443,3.606,1.1,2.442-.568,4.584,1.566,7.078.966,1.784,2.135,4.893-.153,6.671,2,3.291-.579,6.275,1.117,9.586,1.1,29.154-.169,58.309-.1,87.676-.1V139.917l9.947,9.781q90.1,0,180.718-.046c5.525-.006,10.392,2.263,15.553,3.531,1.528.376,2.449,1.482,3.467,2.5,3.779,3.762,7.545,7.539,11.038,11.032,1.987,4.515,1.559,9.253,3.4,13.486.427.982.089,2.3.089,3.461,0,9.833,0,19.666,0,29.95-5.9.189-11.83.063-17.751.086-5.976.023-11.952,0-18.088,0v31.684c1.316.881,3.075-.147,4.928.713v8.576c1.219-2.842.708-5.768.988-8.8h5.674v4.671l19.072,19.071h4.973v6.237H839.67q0,.354,0,.707h8.908v4.923h32.012c.058-1.172.113-2.293.178-3.6H944.19c.728,3.963,1.006,80.95.3,95.674H912.918v32.059h15.716v16.06h7.884v7.883h8.025V533.481H846.2l-13.542-13.547V501.846h-31.88V661.632h-127.9v64.056h31.638v63.677L576.686,917.2v74c-1.05,1.334-2.921-.378-3.956,1.05,1.1,1.04,2.559.091,3.838.6v6.661h-7.6c-1.031-.88.412-2.689-.751-3.85-1.148,1.147-.14,2.619-.7,3.91H553.89v-5.021c5.544,0,11,0,16.447-.014.122,0,.243-.207.931-.834-3,0-5.459.174-7.88-.033-7.085-.605-14,1.434-21.092,1.137-3.415-.143-6.6-1.526-10.088-1.175-3.3.331-6.659.071-10.149.071-.919,1.79.043,3.836-.61,5.843H487.794V993.7c-5.148,0-10.118-.783-14.7.212a39.484,39.484,0,0,1-14.594.556c-6.426-1.038-12.764-.365-19.123-.759a10.678,10.678,0,0,0-1.5.124c-.057,1.352,1.219.551,1.61,1.132s-.178,1.85,1.2,1.735v2.551c-1.161.9-2.527.324-3.794.426-1.3.1-2.609.023-4.059.023v-6.691c.614-.871,1.852.179,2.855-.8-.719-.811-1.688-.368-2.464-.512a2.312,2.312,0,0,1-.358-.331.8.8,0,0,1-.173-.423q-.01-108.455-.007-217.077H416.819V789.59H304.358c-1.237.874-.179,2.114-1.048,2.993H276.253l-19.536-19.536V742.109l11.125-11.126c-1.086-2.4-3.4-3.837-5.145-5.738-1.789-1.95-3.728-3.764-5.882-5.917-2.4,1.853-4.261,4.167-6.56,6.261H192.87V646.432a4.877,4.877,0,0,0-.52-.558.8.8,0,0,0-.425-.169c-10.308-.008-20.615-.007-31.1-.007v31.766H72.777V661.906H56.719v15.613H12.165c-.683-3.939-.933-66.62-.278-79.689H40.458V565.775H1.108c-.529-4.53-.614-57.7-.108-64.052H32.686V437.7h32v31.787h8.076V453.7H96.686v31.826c16.063.668,59.8.414,64-.354V437.7h32v54c2.974,0,5.618.019,8.261,0,2.589-.024,5.192.1,7.574-.058V325.823c-3.375-.374-6.658.188-10.026-.384v-15.8H184.6v-8.054h-8.055v-7.723H160.686c0,10.474,0,20.779-.008,31.085a.792.792,0,0,1-.177.421,5.1,5.1,0,0,1-.58.518H152.8v15.885h39.753v40.037H176.842V397.7c2.792,0,5.434-.038,8.074.011a67,67,0,0,1,7.77.141V435.7h-32v-62Zm337.876,85.153c-.929,1.154-.929,1.154,0,2.814a21.615,21.615,0,0,1,.128-2.971.7.7,0,0,0,.886-.592c.017-.078-.217-.312-.294-.294C434.825,457.911,434.6,458.214,434.562,458.851ZM414.686,479.76l2.932-1.583c-.362-.61-.869-.462-1.32-.476-.608-.017-1.26-.135-1.612.6a1.2,1.2,0,0,0,.543,1.238c-1.187.341-2.079-.293-2.466.759C413.454,480.962,414.09,480.878,414.686,479.76Zm10.038,9.921c-1,.246-2.17-.529-3,.584.852.56,1.244,2.034,2.865,1.124a1.831,1.831,0,0,0-.383-1.565c1.443-.356,2.609.421,3.9-1.325C426.628,489.076,425.616,488.051,424.724,489.681ZM736.686,437.7h-8.022v-15.8H712.623v15.712h-11.7c-9.607,4.253-13.837,10.842-11.85,21.592-.05,1.153,1.682,2.39,2.743,3.811,3.034,4.066,6.95,6.761,12.572,6.751q85.926-.151,171.853-.062h4.323c.765-27.137.446-127.318-.407-132H848.686v-28h-64v-8.027h-31.8V245.793l3.564-.2V213.556h-3.767c0-7.817,0-15.459-.008-23.1a.8.8,0,0,0-.17-.424c-.093-.13-.237-.223-.149-.144H736.632v23.891h-135.8v31.877H671.7l32.986,32.985c0,17.945,0,36.11-.007,54.275a.888.888,0,0,1-.153.433,4.972,4.972,0,0,1-.477.53h-15.4v6.886H655.592v63.7H640.537V293.7c-2.813,0-5.457-.018-8.1,0-2.593.023-5.2-.1-7.942.079v15.971H496.6v32.056h-7.672v32.058h7.775v40.816L518.722,436.7c-3.757,0-7.377-.083-10.992.023s-7.3-.447-10.872,1h79.714v96.053H560.828v31.676h63.623c.553-1.34-.19-2.549.62-3.66H704.73v35.978h8.059v15.772h15.9c0-2.792-.038-5.434.01-8.075a65.2,65.2,0,0,1,.168-7.955h7.712v-63.6h-31.8c-.071,1.333-.13,2.454-.188,3.548H640.85V405.7c2.8,0,5.448.019,8.092,0,2.591-.023,5.195.1,7.936-.081v-63.8h31.9v8h15.87c.172,8.074-.165,15.993.2,23.88h31.837Zm-368-160v32c2.967,0,5.608.018,8.249,0,2.593-.022,5.2.1,7.751-.065V277.7h63.748l.472,1.806h31.62l.468-1.89h79.622c0-.3,0-.611.007-.916H400.833V261.571H560.547V133.936H528.536v31.515H400.518V133.7c-10.479,0-20.787,0-31.094.008a.783.783,0,0,0-.419.183,2.323,2.323,0,0,0-.319.363ZM565.533,661.522H400.656V645.639H392.6v-7.7h-16.06v7.95h-7.658v79.873h127.9V848.552h18.058V837.7h61.717l48.027-48.028V597.912H592.722V631.3c-2.711,2.2-4.811,5.092-7.069,7.865-2.464,3.028-5.3,5.751-7.886,8.679C573.642,652.507,569.393,657.093,565.533,661.522ZM320.673,533.527H161.636l-7.611-15.117-28.578,15.039q2.5,7.514,5.03,15.105l-1.9.422v16.848H88.931v47.7H104.7V597.871H288.6v89.374c-2.108,2.252-4.324,4.2-6.347,6.52,2.179,2.178,4.007,4.091,5.928,5.9,1.881,1.774,3.446,3.933,5.695,5.252,3.729-3.754,7.241-7.291,10.99-11.067V597.7q64.217,0,128.072-.007a.784.784,0,0,0,.421-.177c.128-.094.22-.237.14-.146V565.649H408.612V549.835H392.56v15.7H368.686c0-31.791,0-63.421-.007-95.051a.884.884,0,0,0-.15-.434c-.087-.138-.223-.244-.162-.181H320.673Zm-48.651-96H370.76c-.291-3.393.255-6.642-.31-9.805-.8-.06-1.338.115-1.642-.4V389.606H432.8V373.554h7.711V341.7q-67.71,0-135.075-.007a.8.8,0,0,1-.423-.174,5.042,5.042,0,0,1-.515-.567V277.805H240.829V406.334ZM496.509,477.8v95.926H480.892v16.06H496.8v31.749h31.882c0-7.8,0-15.447-.008-23.089a.8.8,0,0,0-.176-.422,5.032,5.032,0,0,0-.579-.519H512.8v-95.9h15.735V477.8Zm-261,148.1c-1.252,8.174-1.037,36.517,0,40.282Zm14.659-.027c-.987,9.936-.725,36.7.209,39.631C250.817,660.14,250.791,630.729,250.17,625.874Zm6.685-122.368c1.27-8.5,1.053-32.55,0-36.243ZM272.512,467.9c-1.245,8.129-1.037,32.537,0,36.274ZM248.686,624.448v-.5h-12v.5Zm10.183-119.584c3.882.705,7.783,1.064,11.649,0ZM248.538,667.523c-3.938-.514-7.824-1.28-11.7-.459-.007,0,.032.219.068.459Zm10.341-201.654c3.866.635,7.778,1.175,11.649,0ZM440.1,476.79l2.948-2.978c-1.943-.044-3.191-.461-4.374.317C439.517,474.737,439.648,475.672,440.1,476.79Zm-10.129-14.385c2.344,2.12-1.635,2.327.117,4.205h1.63c-.154-1.314-.272-2.669,1.157-3.635Zm-11.2,13.91a2.6,2.6,0,0,0,2.82.017v-1.251a2.6,2.6,0,0,0-2.82-.017Zm18.977,2.292c-1.018.156-1.55-.111-1.9.446-.139.875-.524,1.807.313,2.631Zm2.035-17.4-3.006-1.36v1.5A2.762,2.762,0,0,0,439.788,461.205Zm4.364,8.493a2.339,2.339,0,0,0,.07,3.1l1.359-3.1Zm-25.99,17.137a2.856,2.856,0,0,0,.042-3.268A2.9,2.9,0,0,0,418.162,486.835Zm24.387-20.66a2.859,2.859,0,0,0,3.268.042A2.893,2.893,0,0,0,442.549,466.175Zm-13.363,17.532c-.467.324-.467.658,0,.982C429.652,484.365,429.652,484.031,429.186,483.707Zm2,2.982c.466-.324.466-.658,0-.982C430.719,486.031,430.719,486.365,431.186,486.689ZM446.694,468.2c.325.467.658.467.983,0C447.352,467.732,447.019,467.732,446.694,468.2Z"/>
  <path class="cls-2" d="M64.686,437.7H1.2c-.73-4.161-.972-49.876-.323-64H160.686v62c-3.824,0-7.668.252-11.464-.071s-7.268,1.512-11.068,1.135c-3.127-.311-6.31-.064-9.468-.064V405.874c-15.725-.659-59.786-.41-64,.345Z"/>
  <path class="cls-1" d="M929.857,405.781h14.657v14.756c-2.2.391-4.652.1-7.074.15-2.471.052-4.943.011-7.583.011Z"/>
  <path class="cls-1" d="M417.853,774.78h13.665v14.73c-2.039.43-4.329.119-6.586.175-2.3.058-4.61.013-7.079.013Z"/>
  <path class="cls-1" d="M57.853,662.78H71.518v14.73c-2.039.43-4.329.119-6.586.175-2.3.058-4.61.013-7.079.013Z"/>
  <path class="cls-1" d="M41.861,341.786H55.51V356.5c-2.019.457-4.307.124-6.557.184-2.306.062-4.614.014-7.092.014Z"/>
  <path class="cls-1" d="M440.214,994.78H455.47v4.785H441.865C442.03,998.1,441.188,996.714,440.214,994.78Z"/>
  <path class="cls-1" d="M536.594,994.856v4.684H523.011c-.8-1.343-.03-2.965-.45-4.684Z"/>
  <path class="cls-1" d="M472.857,994.777h13.658v4.6c.061-.059-.058.156-.178.156-4.436.017-8.873.015-13.48.015Z"/>
  <path class="cls-1" d="M552.589,995.851v3.694H538.022c-.994-.991.07-2.319-.535-3.694Z"/>
  <path class="cls-1" d="M471.589,995.851v3.694H457.022c-.994-.991.07-2.319-.535-3.694Z"/>
  <path class="cls-1" d="M937.773,428.536V421.86h6.663v6.676Z"/>
  <path class="cls-2" d="M736.686,373.7V318.241a2.3,2.3,0,0,1,.327-.36.8.8,0,0,1,.422-.176c15.634-.007,31.268-.007,47.251-.007v-8h64v128h-112Z"/>
  <path class="cls-2" d="M96.686,453.7h23.9v15.77h8.1V453.7h16.155v-8.166h8.025V437.7h7.82V485.17c-4.2.768-47.937,1.022-64,.354Z"/>
  <path class="cls-1" d="M160.686,437.7h-7.82v7.834h-8.025V453.7H128.686v-1h15c0-2.8.041-5.277-.012-7.749-.052-2.423.243-4.876-.181-7.251H128.686v-1c3.158,0,6.341-.247,9.468.064,3.8.377,7.267-1.457,11.068-1.135s7.64.071,11.464.071h32v2Zm-9.084.171H144.63c.206,2.4-.214,4.647.252,6.658h6.72Z"/>
  <path class="cls-1" d="M368.686,277.7h1v31c2.632,0,4.942.047,7.249-.013,2.256-.059,4.549.267,6.751-.221V277.7h1v31.93c-2.553.162-5.158.043-7.751.065-2.641.023-5.282,0-8.249,0Z"/>
  <path class="cls-1" d="M235.511,625.9v40.282C234.474,662.418,234.259,634.075,235.511,625.9Z"/>
  <path class="cls-1" d="M250.17,625.874c.621,4.855.647,34.266.209,39.631C249.445,662.571,249.183,635.81,250.17,625.874Z"/>
  <path class="cls-1" d="M256.855,503.506V467.263C257.908,470.956,258.125,495.006,256.855,503.506Z"/>
  <path class="cls-1" d="M272.512,467.9v36.274C271.475,500.436,271.267,476.028,272.512,467.9Z"/>
  <path class="cls-1" d="M248.686,624.448h-12v-.5h12Z"/>
  <path class="cls-1" d="M258.869,504.864h11.649C266.652,505.928,262.751,505.569,258.869,504.864Z"/>
  <path class="cls-1" d="M248.538,667.523H236.906c-.036-.24-.075-.458-.068-.459C240.714,666.243,244.6,667.009,248.538,667.523Z"/>
  <path class="cls-1" d="M258.879,465.869h11.649C266.657,467.044,262.745,466.5,258.879,465.869Z"/>
  <path class="cls-1" d="M424.724,489.681l-.133,1.708c-1.621.91-2.013-.564-2.865-1.124C422.554,489.152,423.719,489.927,424.724,489.681Z"/>
  <path class="cls-1" d="M783.6,302.862v13.669H736.785v-6.655h15.52c.9-2.315-.027-4.662.594-7.014Z"/>
  <path class="cls-1" d="M737.848,190.786h13.675v22.727c-2.049.421-4.342.118-6.6.173-2.3.056-4.61.012-7.073.012Z"/>
  <path class="cls-1" d="M639.521,309.613H625.85V294.882c2.047-.417,4.339-.118,6.6-.172,2.3-.055,4.608-.012,7.072-.012Z"/>
  <path class="cls-1" d="M727.514,612.614H713.858V597.893c2.027-.446,4.316-.123,6.57-.182,2.3-.059,4.611-.013,7.086-.013Z"/>
  <path class="cls-1" d="M399.6,646.87v14.656H369.854c-.412-2.194-.1-4.644-.156-7.062-.056-2.474-.012-4.95-.012-7.594Z"/>
  <path class="cls-1" d="M391.686,638.711v6.758c-2.2.477-4.487.159-6.739.216-2.3.059-4.608.013-7.085.013v-6.865C382.351,638.552,387.018,638.744,391.686,638.711Z"/>
  <path class="cls-1" d="M407.546,565.7H393.884c-.439-2.366-.133-4.814-.186-7.231-.055-2.472-.012-4.946-.012-7.593H407.5A136.875,136.875,0,0,1,407.546,565.7Z"/>
  <path class="cls-1" d="M89.852,597.781h13.667v14.73c-2.041.426-4.332.119-6.59.175-2.3.056-4.609.012-7.077.012Z"/>
  <path class="cls-1" d="M383.686,277.7v30.766c-2.2.488-4.5.162-6.751.221-2.307.06-4.617.013-7.249.013v-31Z"/>
  <path class="cls-1" d="M479.521,278.531H449.407C452.8,277.471,470.374,277.249,479.521,278.531Z"/>
  <path class="cls-1" d="M431.6,373.868v14.66H368.857c-.419-2.195-.1-4.647-.159-7.065-.057-2.475-.012-4.952-.012-7.6Z"/>
  <path class="cls-1" d="M713.853,422.78h13.665v14.73c-2.039.43-4.329.119-6.586.175-2.3.058-4.61.013-7.079.013Z"/>
  <path class="cls-1" d="M161.779,325.523v-14.65h35.813v14.65Z"/>
  <path class="cls-1" d="M175.518,309.616H161.853V294.887c2.039-.43,4.33-.12,6.587-.176,2.3-.057,4.609-.013,7.078-.013Z"/>
  <path class="cls-1" d="M192.6,382.867v13.662H177.876c-.434-2.035-.121-4.326-.178-6.582-.057-2.3-.012-4.61-.012-7.08Z"/>
  <path class="cls-1" d="M183.686,302.883v6.569c-2.176.528-4.426.089-6.825.3v-6.871A26.912,26.912,0,0,1,183.686,302.883Z"/>
  <path class="cls-1" d="M128.686,437.7h14.807c.424,2.375.129,4.828.181,7.251.053,2.472.012,4.946.012,7.749h-15Z"/>
  <path class="cls-1" d="M481.773,588.536V574.861h14.9c0,2.079.008,4.342.009,6.606,0,2.3,0,4.607,0,7.069Z"/>
  <path class="cls-1" d="M151.6,437.869v6.658h-6.72c-.466-2.011-.046-4.26-.252-6.658Z"/>
  <text class="cls-3" transform="translate(26.685 405.781)">B</text>
  <text class="cls-3" transform="translate(777.616 373.699)">A</text>
  <rect class="cls-1" x="421.841" y="449.195" width="22.073" height="46.441" transform="translate(349.235 1107.682) rotate(-130)"/>
  <rect class="cls-1" x="798.908" y="380.221" width="22.073" height="46.441" transform="translate(1021.513 1283.224) rotate(-130)"/>
</svg>
